<?xml version="1.0" encoding="utf-8"?>
<!-- Generator: Adobe Illustrator 22.1.0, SVG Export Plug-In . SVG Version: 6.00 Build 0)  -->
<svg version="1.1" id="Слой_1" xmlns="http://www.w3.org/2000/svg" xmlns:xlink="http://www.w3.org/1999/xlink" x="0px" y="0px"
	 viewBox="0 0 135.7 82.8" style="enable-background:new 0 0 135.7 82.8;" xml:space="preserve">
<style type="text/css">
	.st0{fill:#FFFFFF;}
	.st1{fill:#928025;}
	.st2{fill:none;}
</style>
<path class="st0" d="M10,60.8c0,0.6,0.2,1.2,0.6,1.7c0.4,0.5,0.9,0.9,1.4,1.3c0.6,0.4,1.2,0.8,1.9,1.2s1.3,0.8,1.9,1.3
	c0.6,0.5,1,1,1.4,1.7s0.6,1.4,0.6,2.4c0,0.6-0.1,1.2-0.3,1.7s-0.5,1-1,1.4c-0.4,0.4-0.9,0.7-1.4,0.9s-1.2,0.3-1.8,0.3
	s-1.1-0.1-1.5-0.2c-0.4-0.1-0.8-0.3-1.1-0.4c-0.3-0.2-0.6-0.4-0.8-0.6c-0.1,0.2-0.3,0.5-0.5,0.7s-0.5,0.3-0.7,0.4H8.3
	c0-0.2,0-0.5,0-0.7s0-0.4,0-0.7s0-0.5,0-0.7c0-0.3,0-0.5,0-0.8s0-0.5,0-0.7c0-0.3,0-0.5,0-0.7h0.4c0.4,1.3,0.9,2.3,1.6,3
	c0.7,0.7,1.6,1,2.8,1c1,0,1.7-0.3,2.3-0.9c0.6-0.6,0.9-1.4,0.9-2.5c0-0.6-0.2-1.2-0.6-1.7c-0.4-0.5-0.9-0.9-1.4-1.3
	c-0.6-0.4-1.2-0.8-1.9-1.2s-1.3-0.8-1.9-1.3c-0.6-0.5-1-1-1.4-1.7c-0.4-0.6-0.6-1.4-0.6-2.4c0-0.5,0.1-1,0.3-1.5s0.5-0.9,0.9-1.3
	s0.8-0.6,1.3-0.9c0.5-0.2,1-0.3,1.6-0.3c0.5,0,0.9,0.1,1.3,0.2c0.4,0.1,0.7,0.3,0.9,0.4c0.3,0.2,0.5,0.4,0.8,0.6
	c0.1-0.2,0.3-0.5,0.5-0.7s0.5-0.3,0.7-0.4h0.4c0,0.2,0,0.5-0.1,0.7c0,0.2,0,0.5,0,0.7s0,0.5,0,0.7c0,0.3,0,0.5,0,0.8s0,0.5,0,0.7
	c0,0.3,0,0.5,0.1,0.7h-0.4c-0.4-1.3-0.9-2.3-1.5-3s-1.4-1-2.4-1c-0.8,0-1.4,0.3-1.9,0.8C10.3,59.2,10,59.9,10,60.8z"/>
<path class="st0" d="M24.4,69.5h-4.9l-1.2,4.1l1.5,0.6v0.2h-3.6v-0.2l1.5-0.6l4.7-16.2h0.4l5,16.5l1.4,0.4v0.2h-5v-0.2l1.4-0.4
	L24.4,69.5z M19.6,69.1h4.6l-2.4-7.9L19.6,69.1z"/>
<path class="st0" d="M31.7,65.8v8l1.4,0.4v0.2h-4.9v-0.2l1.4-0.4V58.3l-1.4-0.4v-0.2h4.9v0.2l-1.4,0.4v7h4.9v-7l-1.4-0.4v-0.2h4.9
	v0.2l-1.4,0.4v15.5l1.4,0.4v0.2h-4.9v-0.2l1.4-0.4v-8C36.6,65.8,31.7,65.8,31.7,65.8z"/>
<path class="st0" d="M47.5,69.5h-4.9l-1.2,4.1l1.5,0.6v0.2h-3.5v-0.2l1.5-0.6l4.7-16.2H46l5,16.5l1.4,0.4v0.2h-5v-0.2l1.4-0.4
	L47.5,69.5z M42.7,69.1h4.6l-2.4-7.9L42.7,69.1z"/>
<path class="st0" d="M55.8,57.7c1,0,1.9,0.1,2.6,0.3s1.4,0.5,1.9,0.9s0.9,0.8,1.1,1.3c0.2,0.5,0.4,1,0.4,1.6c0,0.5-0.1,0.9-0.2,1.2
	c-0.1,0.4-0.3,0.7-0.5,1c-0.2,0.3-0.5,0.5-0.8,0.7s-0.6,0.4-0.9,0.5c-0.7,0.3-1.4,0.5-2.3,0.6c0.7,0.1,1.3,0.2,1.9,0.5
	c0.5,0.2,1,0.5,1.4,1c0.4,0.4,0.7,1,0.8,1.7l0.5,4.2c0,0.3,0.1,0.5,0.2,0.6c0.1,0.1,0.2,0.2,0.4,0.2c0.1,0,0.2,0,0.3-0.1
	c0.1,0,0.2-0.1,0.3-0.2c0.1-0.1,0.1-0.2,0.2-0.3l0.2,0.2c-0.1,0.2-0.2,0.4-0.4,0.5c-0.1,0.1-0.3,0.2-0.6,0.4
	c-0.2,0.1-0.5,0.2-0.8,0.2c-0.5,0-1-0.2-1.3-0.5s-0.5-0.7-0.6-1.1l-0.5-4.2c-0.1-0.5-0.2-1-0.3-1.4c-0.1-0.4-0.3-0.7-0.6-0.9
	c-0.2-0.2-0.6-0.4-1-0.5c-0.4-0.1-0.8-0.2-1.4-0.2h-1v7.7l1.4,0.4v0.2h-4.9V74l1.4-0.4V58.1l-1.4-0.4v-0.2L55.8,57.7L55.8,57.7z
	 M59.5,61.9c0-1.2-0.3-2.1-1-2.7c-0.6-0.6-1.5-1-2.7-1h-1v7.4h1c1.2,0,2.1-0.3,2.7-1C59.1,64,59.5,63.1,59.5,61.9z"/>
<path class="st0" d="M80.6,64.1v0.2c-0.5,0-0.8,0.1-1.1,0.3S79,65,78.7,65.4c-0.3,0.4-0.5,0.8-0.7,1.4c-0.3,0.7-0.5,1.2-0.7,1.6
	c-0.2,0.4-0.4,0.7-0.5,1c-0.1,0.2-0.3,0.4-0.4,0.6c0,0,0.3,0.2,0.7,0.6c0.4,0.4,0.8,0.7,1.1,1c0.7,0.6,1.2,0.9,1.6,1.1
	c0.4,0.2,0.8,0.2,1.1,0.3v0.1H78c-1.1-0.9-1.9-1.5-2.4-2c-0.4,0.5-0.9,1-1.6,1.5c-0.7,0.5-1.6,0.8-2.5,0.8c-0.5,0-1-0.1-1.4-0.3
	c-0.5-0.2-0.8-0.4-1.2-0.8c-0.3-0.3-0.6-0.7-0.8-1.1s-0.3-0.9-0.3-1.3c0-0.9,0.3-1.7,0.8-2.4s1.2-1.3,2-1.8l-0.1-0.1
	c-0.6-0.6-1-1.2-1.3-1.7c-0.3-0.5-0.5-1.1-0.5-1.7c0-0.5,0.1-1.1,0.5-1.6c0.3-0.5,0.7-0.9,1.3-1.2c0.5-0.3,1.1-0.5,1.8-0.5
	c0.9,0,1.6,0.2,2.1,0.7s0.8,1.1,0.8,1.8c0,0.8-0.3,1.5-0.9,2.1c-0.6,0.6-1.4,1.2-2.2,1.7c0.3,0.4,0.8,0.9,1.5,1.6l1.4,1.4
	c0.5,0.5,1,1,1.4,1.4c0.3-0.5,0.7-1.2,1.1-2.2c0.4-0.9,0.6-1.7,0.6-2.3c0-0.4-0.1-0.6-0.3-0.8c-0.2-0.1-0.5-0.2-0.8-0.2v-0.2h3.6
	V64.1z M70.8,66.1c-1.3,0.9-1.9,1.9-1.9,3c0,0.6,0.2,1.1,0.5,1.6s0.8,0.9,1.3,1.2s1.1,0.4,1.6,0.4s0.9-0.1,1.3-0.3
	c0.4-0.2,0.7-0.4,1-0.6c0.3-0.2,0.5-0.5,0.8-0.7c-0.5-0.5-1-0.9-1.2-1.2c-0.3-0.3-0.6-0.6-0.9-0.9c-0.3-0.3-0.6-0.7-1-1
	C71.9,67.3,71.4,66.8,70.8,66.1z M71.7,65c0.7-0.4,1.2-0.9,1.6-1.3c0.4-0.5,0.6-1,0.6-1.7c0-0.4-0.1-0.8-0.3-1.1
	c-0.2-0.4-0.5-0.7-0.8-0.9c-0.4-0.2-0.8-0.3-1.2-0.3c-0.6,0-1.1,0.2-1.4,0.5s-0.5,0.8-0.5,1.3c0,0.3,0.1,0.7,0.3,1.2
	s0.5,0.9,0.8,1.3C71.1,64.3,71.4,64.7,71.7,65z"/>
<path class="st0" d="M82.3,58v-0.2h5V58l-1.4,0.4l3.8,12.5L93,58.6L91.5,58v-0.2h3.6V58l-1.5,0.6l-4.4,16.2h-0.4l-5-16.5L82.3,58z"
	/>
<path class="st0" d="M104.4,66.1c0,1.5-0.2,2.7-0.5,3.8s-0.8,2-1.3,2.7s-1.1,1.3-1.8,1.6s-1.4,0.5-2,0.5c-0.7,0-1.4-0.2-2-0.5
	s-1.3-0.9-1.8-1.6c-0.5-0.7-1-1.6-1.3-2.7s-0.5-2.4-0.5-3.8c0-1.5,0.2-2.7,0.5-3.8c0.3-1.1,0.8-2,1.3-2.7s1.1-1.3,1.8-1.6
	c0.7-0.4,1.4-0.5,2-0.5c0.7,0,1.4,0.2,2,0.5c0.7,0.4,1.3,0.9,1.8,1.6s1,1.6,1.3,2.7C104.2,63.3,104.4,64.6,104.4,66.1z M102.2,66.1
	c0-1.6-0.1-3-0.3-4.1s-0.5-1.9-0.8-2.6c-0.3-0.6-0.7-1.1-1.1-1.3c-0.4-0.3-0.8-0.4-1.2-0.4s-0.8,0.1-1.2,0.4s-0.8,0.7-1.1,1.3
	s-0.6,1.5-0.8,2.6s-0.3,2.4-0.3,4.1c0,1.6,0.1,3,0.3,4.1s0.5,1.9,0.8,2.6c0.3,0.6,0.7,1.1,1.1,1.3c0.4,0.3,0.8,0.4,1.2,0.4
	s0.8-0.1,1.2-0.4s0.8-0.7,1.1-1.3s0.6-1.5,0.8-2.6S102.2,67.7,102.2,66.1z"/>
<path class="st0" d="M106.4,60.8c0,0.6,0.2,1.2,0.6,1.7c0.4,0.5,0.9,0.9,1.4,1.3c0.6,0.4,1.2,0.8,1.9,1.2s1.3,0.8,1.9,1.3
	c0.6,0.5,1,1,1.4,1.7c0.4,0.6,0.6,1.4,0.6,2.4c0,0.6-0.1,1.2-0.3,1.7s-0.5,1-1,1.4c-0.4,0.4-0.9,0.7-1.4,0.9s-1.2,0.3-1.8,0.3
	s-1.1-0.1-1.5-0.2c-0.4-0.1-0.8-0.3-1.1-0.4c-0.3-0.2-0.6-0.4-0.8-0.6c-0.1,0.2-0.3,0.5-0.5,0.7s-0.5,0.3-0.7,0.4h-0.4
	c0-0.2,0-0.5,0-0.7s0-0.4,0-0.7s0-0.5,0-0.7c0-0.3,0-0.5,0-0.8s0-0.5,0-0.7c0-0.3,0-0.5,0-0.7h0.4c0.4,1.3,0.9,2.3,1.6,3
	c0.7,0.7,1.6,1,2.8,1c1,0,1.7-0.3,2.3-0.9c0.6-0.6,0.9-1.4,0.9-2.5c0-0.6-0.2-1.2-0.6-1.7c-0.4-0.5-0.9-0.9-1.4-1.3
	c-0.6-0.4-1.2-0.8-1.9-1.2s-1.3-0.8-1.9-1.3c-0.6-0.5-1-1-1.4-1.7c-0.4-0.6-0.6-1.4-0.6-2.4c0-0.5,0.1-1,0.3-1.5s0.5-0.9,0.9-1.3
	s0.8-0.6,1.3-0.9c0.5-0.2,1-0.3,1.6-0.3c0.5,0,0.9,0.1,1.3,0.2c0.4,0.1,0.7,0.3,0.9,0.4c0.3,0.2,0.5,0.4,0.8,0.6
	c0.1-0.2,0.3-0.5,0.5-0.7s0.5-0.3,0.7-0.4h0.4c0,0.2,0,0.5-0.1,0.7c0,0.2,0,0.5,0,0.7s0,0.5,0,0.7c0,0.3,0,0.5,0,0.8s0,0.5,0,0.7
	c0,0.3,0,0.5,0.1,0.7h-0.4c-0.4-1.3-0.9-2.3-1.5-3s-1.4-1-2.4-1c-0.8,0-1.4,0.3-1.9,0.8C106.6,59.2,106.4,59.9,106.4,60.8z"/>
<path class="st0" d="M117.8,68.2v5.6l1.4,0.4v0.2h-4.9v-0.2l1.4-0.4V58.3l-1.4-0.4v-0.2h4.9v0.2l-1.4,0.4v9.1l5.1-8.8l-1.5-0.6v-0.2
	h3.6V58l-1.5,0.6l-3,5.2l4.8,10.1l1.4,0.4v0.2h-5.1v-0.2l1.4-0.4l-3.8-8L117.8,68.2z"/>
<g>
	<path class="st1" d="M78.9,15.3c-3.2-3.1-7.4-4.9-11.9-4.9s-8.7,1.7-11.9,4.9c-3.1,3.2-4.9,7.4-4.9,11.9s1.7,8.7,4.9,11.9
		C58.3,42.2,62.5,44,67,44s8.7-1.7,11.9-4.9c3.1-3.2,4.9-7.4,4.9-11.9S82,18.5,78.9,15.3z M78.6,38.8c-3.1,3.1-7.2,4.8-11.6,4.8
		c-4.4,0-8.5-1.7-11.6-4.8c-3.1-3.1-4.8-7.2-4.8-11.6s1.7-8.5,4.8-11.6s7.2-4.8,11.6-4.8c4.4,0,8.5,1.7,11.6,4.8
		c3.1,3.1,4.8,7.2,4.8,11.6C83.4,31.6,81.7,35.7,78.6,38.8z"/>
	<path class="st1" d="M83.3,10.9c0.4,0,0.7,0,1.1,0c0.1-0.4,0.2-0.9,0.2-1.3c-0.5,0-0.9,0.1-1.3,0.2C83.4,10.2,83.4,10.5,83.3,10.9z
		"/>
	<path class="st1" d="M83.3,43.5c0,0.4,0,0.7,0,1.1c0.4,0.1,0.9,0.2,1.3,0.2c0-0.5-0.1-0.9-0.2-1.3C84.1,43.5,83.7,43.5,83.3,43.5z"
		/>
	<path class="st1" d="M50.7,43.5c-0.4,0-0.7,0-1.1,0c-0.1,0.4-0.2,0.9-0.2,1.3c0.5,0,0.9-0.1,1.3-0.2C50.7,44.2,50.7,43.8,50.7,43.5
		z"/>
	<path class="st1" d="M50.7,10.9c0-0.4,0-0.7,0-1.1c-0.4-0.1-0.9-0.2-1.3-0.2c0,0.5,0.1,0.9,0.2,1.3C50,10.8,50.4,10.8,50.7,10.9z"
		/>
	<path class="st1" d="M76.4,7.7c0-0.3-0.1-0.6-0.2-0.9c-0.3,0.1-0.5,0.3-0.8,0.5c0.1,0.2,0.2,0.5,0.3,0.7
		C75.9,7.9,76.2,7.8,76.4,7.7z"/>
	<path class="st1" d="M47.9,18.5c-0.1-0.2-0.2-0.5-0.3-0.7c-0.3,0-0.6,0.1-0.9,0.2c0.1,0.3,0.3,0.5,0.5,0.8
		C47.4,18.7,47.6,18.6,47.9,18.5z"/>
	<path class="st1" d="M57.6,46.6c0,0.3,0.1,0.6,0.2,0.9c0.3-0.1,0.5-0.3,0.8-0.5c-0.1-0.2-0.2-0.5-0.3-0.7
		C58.1,46.5,57.9,46.6,57.6,46.6z"/>
	<path class="st1" d="M86.2,35.9c0.1,0.2,0.2,0.5,0.3,0.7c0.3,0,0.6-0.1,0.9-0.2c-0.1-0.3-0.3-0.5-0.5-0.8
		C86.7,35.7,86.4,35.8,86.2,35.9z"/>
	<path class="st1" d="M87.4,18c-0.3-0.1-0.6-0.2-0.9-0.2c-0.1,0.2-0.2,0.5-0.3,0.7c0.2,0.1,0.5,0.2,0.7,0.3
		C87.1,18.5,87.3,18.3,87.4,18z"/>
	<path class="st1" d="M58.6,7.3c-0.2-0.2-0.5-0.4-0.8-0.5c-0.1,0.3-0.2,0.6-0.2,0.9c0.2,0.1,0.5,0.2,0.7,0.3
		C58.4,7.8,58.5,7.5,58.6,7.3z"/>
	<path class="st1" d="M46.7,36.4c0.3,0.1,0.6,0.2,0.9,0.2c0.1-0.2,0.2-0.5,0.3-0.7c-0.2-0.1-0.5-0.2-0.7-0.3
		C47,35.8,46.8,36.1,46.7,36.4z"/>
	<path class="st1" d="M75.4,47c0.2,0.2,0.5,0.4,0.8,0.5c0.1-0.3,0.2-0.6,0.2-0.9c-0.2-0.1-0.5-0.2-0.7-0.3
		C75.6,46.6,75.5,46.8,75.4,47z"/>
	<path class="st1" d="M91.8,27.3c0,0-0.1,0-0.2-0.1c0,0,0.1,0,0.2-0.1c0.3-0.2,0.6-0.5,0.7-0.9c0.1-0.4,0.1-0.7-0.1-1
		c-0.2-0.3-0.5-0.5-0.8-0.5l0,0c-0.2,0-0.5,0.2-0.5,0.5c0,0.2,0.2,0.5,0.5,0.5c0.2,0,0.4-0.2,0.4-0.4l0.1,0.1
		c0.1,0.2,0.1,0.5,0.1,0.7c-0.1,0.3-0.3,0.5-0.5,0.7c-0.3,0.1-0.6,0.2-0.9,0.1c-0.4-0.1-0.7-0.4-1-0.7c-0.1-0.1-0.1-0.1-0.2-0.2
		c-0.1-0.1-0.2-0.2-0.4-0.3c0.1-0.3,0.2-0.6,0.2-0.9c0-0.4-0.2-0.8-0.5-1.2c-0.2-0.2-0.4-0.4-0.6-0.5c0.2,0,0.3,0,0.5-0.1
		c0.4,0,0.7-0.2,1-0.4c0.4-0.3,0.7-0.9,0.7-1.4c0-0.3,0-0.5-0.1-0.8c0-0.3,0-0.5,0.3-0.7c-0.3,0.1-0.6,0.3-0.8,0.6
		c-0.1-0.1-0.3-0.2-0.5-0.1c-0.1,0-0.2,0-0.2,0.1h-0.1c-0.5-0.2-1.1,0-1.4,0.4c0,0,0,0,0,0.1c0,0,0,0.1,0,0.2c0,0.2,0.2,0.5,0.5,0.5
		s0.5-0.2,0.5-0.5c0-0.1,0-0.2-0.1-0.3c0.2-0.1,0.4-0.1,0.6,0c0.3,0.1,0.6,0.5,0.6,0.8c0,0.4-0.1,0.8-0.4,1
		c-0.3,0.3-0.7,0.4-1.1,0.4c-0.2,0-0.5-0.1-0.7-0.1c0,0,0,0-0.1,0c-0.8-0.3-1.7-0.4-2.5-0.2c-0.2-0.8-0.5-1.6-0.8-2.4
		c0.1,0,0.2,0,0.3,0c0.2,0,0.3,0,0.5-0.1c0.5-0.2,0.9-0.5,1.1-1c0.2,0.2,0.3,0.4,0.3,0.7s0,0.5-0.2,0.6c-0.1-0.1-0.2-0.2-0.4-0.2
		s-0.5,0.2-0.5,0.5c0,0.2,0.2,0.5,0.5,0.5h0.1l0,0l0,0l0,0c0.5-0.2,0.8-0.7,0.7-1.3c0-0.4-0.3-0.8-0.6-1c0.1-0.4,0-0.8-0.3-1.1
		c-0.3-0.4-0.9-0.6-1.4-0.4l0,0l0,0l0,0c0,0-0.1,0-0.1,0.1c-0.2,0.2-0.2,0.5,0,0.6c0.2,0.2,0.5,0.2,0.6,0c0.1-0.1,0.2-0.3,0.1-0.5
		c0.2,0,0.4,0.1,0.6,0.3c0.2,0.2,0.2,0.5,0.2,0.7l0,0c-0.5-0.2-1-0.2-1.5,0.1c-0.3,0.1-0.5,0.3-0.6,0.5c-0.4-0.7-0.7-1.4-1.2-2.1
		c0.1,0,0.2,0,0.3,0c0.3,0,0.5-0.1,0.8-0.3c0.2-0.2,0.4-0.4,0.5-0.6l0,0c0,0,0.1,0.1,0.2,0c0.2,0,0.4-0.3,0.4-0.5
		c0.2,0.1,0.5,0.1,0.8,0c0.2-0.1,0.5-0.3,0.6-0.5c-0.4,0.2-1,0.1-1.3-0.2c-0.2-0.2-0.3-0.5-0.5-0.7c-0.3-0.3-0.7-0.5-1.2-0.5
		c-0.3,0-0.6,0-0.8,0s-0.4,0-0.5,0c0,0,0,0-0.1,0v-0.1c0.2-0.6,0.6-1.2,1.2-1.6c0.3-0.2,0.8-0.5,1.3-0.5s1,0.2,1.2,0.5
		c0.1,0.2,0.2,0.3,0.2,0.5s-0.1,0.3-0.2,0.4c0-0.1,0.1-0.1,0.1-0.2c0-0.2-0.2-0.5-0.5-0.5c-0.1,0-0.1,0-0.2,0c0,0,0,0-0.1,0
		c-0.1,0.1-0.2,0.2-0.2,0.4c0,0.2,0.1,0.3,0.2,0.5c0.2,0.2,0.6,0.2,0.8,0s0.4-0.4,0.3-0.7c0-0.3-0.2-0.5-0.3-0.7
		c-0.3-0.4-0.9-0.7-1.5-0.6c-0.4,0-0.9,0.1-1.3,0.4c0.3-0.4,0.4-0.9,0.4-1.3c0-0.6-0.2-1.2-0.6-1.5c-0.1-0.1-0.4-0.3-0.7-0.3
		S81.1,8.6,81,8.8c-0.2,0.3-0.2,0.6,0,0.8c0.1,0.1,0.3,0.2,0.5,0.2l0,0c0.2,0,0.3-0.1,0.4-0.2c0,0,0,0,0-0.1s0-0.1,0-0.2
		c0-0.2-0.2-0.5-0.5-0.5c-0.1,0-0.2,0-0.2,0.1c0.1-0.1,0.3-0.2,0.4-0.2c0.2,0,0.3,0.1,0.5,0.2c0.3,0.3,0.5,0.7,0.5,1.2
		s-0.3,1-0.5,1.3c-0.4,0.5-1,1-1.6,1.2h-0.1c0,0,0,0,0-0.1c0-0.2,0-0.4,0-0.5c0-0.3,0.1-0.5,0-0.8c0-0.4-0.2-0.9-0.5-1.2
		c-0.2-0.2-0.5-0.3-0.7-0.5c-0.4-0.3-0.5-0.9-0.2-1.3c-0.2,0.2-0.4,0.4-0.5,0.6s-0.1,0.5,0,0.8C78.3,9.6,78,9.7,78,10
		c0,0.1,0,0.1,0,0.2l0,0c-0.3,0.1-0.5,0.3-0.6,0.5c-0.2,0.3-0.3,0.7-0.2,1c-0.7-0.5-1.4-0.8-2.1-1.2c0.2-0.1,0.4-0.3,0.5-0.6
		c0.2-0.5,0.3-1,0.1-1.5l0,0c0.3,0,0.5,0.1,0.7,0.2s0.3,0.4,0.3,0.6c-0.2,0-0.3,0-0.5,0.1c-0.2,0.2-0.2,0.5,0,0.6
		c0.2,0.2,0.5,0.2,0.6,0c0,0,0-0.1,0.1-0.1l0,0l0,0l0,0c0.2-0.5,0-1.1-0.4-1.4c-0.3-0.3-0.7-0.4-1.1-0.3c-0.2-0.3-0.6-0.5-1-0.6
		c-0.5,0-1.1,0.3-1.3,0.7l0,0l0,0l0,0v0.1c0,0.2,0.2,0.5,0.5,0.5c0.2,0,0.5-0.2,0.5-0.5c0-0.2-0.1-0.3-0.2-0.4
		c0.2-0.1,0.4-0.2,0.6-0.2S75,7.8,75.2,8c-0.5,0.2-0.8,0.6-1,1.1c-0.1,0.3-0.1,0.5-0.1,0.8c-0.8-0.3-1.5-0.6-2.4-0.8
		c0.2-0.8,0.1-1.7-0.2-2.5c0,0,0,0,0-0.1c-0.1-0.2-0.1-0.5-0.1-0.7c0-0.4,0.1-0.8,0.4-1.1c0.3-0.3,0.6-0.5,1-0.4
		c0.4,0,0.7,0.3,0.8,0.6c0.1,0.2,0,0.4,0,0.6c-0.1-0.1-0.2-0.1-0.3-0.1c-0.2,0-0.5,0.2-0.5,0.5s0.2,0.5,0.5,0.5c0,0,0.1,0,0.2,0
		c0,0,0,0,0.1,0C74,6.1,74.2,5.5,74,5V4.9c0-0.1,0.1-0.2,0.1-0.2c0-0.2,0-0.3-0.1-0.5c0.3-0.1,0.5-0.4,0.6-0.8
		c-0.2,0.2-0.5,0.3-0.7,0.3c-0.3,0-0.5-0.1-0.8-0.1c-0.5,0-1.1,0.3-1.4,0.7c-0.2,0.3-0.4,0.6-0.4,1c0,0.2-0.1,0.3-0.1,0.5
		c-0.2-0.2-0.4-0.4-0.5-0.6c-0.4-0.3-0.8-0.5-1.2-0.5c-0.3,0-0.6,0-0.9,0.2c-0.1-0.1-0.2-0.2-0.3-0.4c-0.1-0.1-0.1-0.1-0.2-0.2
		c-0.3-0.3-0.6-0.6-0.7-1c-0.1-0.3,0-0.6,0.1-0.9c0.1-0.3,0.4-0.5,0.7-0.5c0.3-0.1,0.5,0,0.7,0.1L69,2.1c-0.2,0-0.4,0.2-0.4,0.4
		S68.8,3,69.1,3c0.2,0,0.5-0.2,0.5-0.5l0,0c0-0.3-0.2-0.6-0.5-0.8s-0.7-0.2-1-0.1c-0.4,0.1-0.7,0.4-0.9,0.7c0,0,0,0.1-0.1,0.2
		c0,0,0-0.1-0.1-0.2c-0.2-0.3-0.5-0.6-0.9-0.7c-0.4-0.1-0.7-0.1-1,0.1c-0.3,0.2-0.5,0.5-0.5,0.8l0,0c0,0.2,0.2,0.5,0.5,0.5
		c0.2,0,0.5-0.2,0.5-0.5c0-0.2-0.2-0.4-0.4-0.4L65.3,2c0.2-0.1,0.5-0.1,0.7-0.1c0.3,0.1,0.5,0.3,0.7,0.5c0.1,0.3,0.2,0.6,0.1,0.9
		c-0.1,0.4-0.4,0.7-0.7,1C66,4.4,66,4.4,65.9,4.5c-0.1,0.1-0.2,0.2-0.3,0.4c-0.3-0.1-0.6-0.2-0.9-0.2c-0.4,0-0.8,0.2-1.2,0.5
		c-0.2,0.2-0.4,0.4-0.5,0.6c0-0.2,0-0.4-0.1-0.5c0-0.4-0.2-0.7-0.4-1c-0.3-0.4-0.9-0.7-1.4-0.7c-0.3,0-0.5,0-0.8,0.1
		c-0.3,0-0.5,0-0.7-0.3c0.1,0.3,0.3,0.6,0.6,0.8c-0.1,0.1-0.2,0.3-0.1,0.5c0,0.1,0,0.2,0.1,0.2V5c-0.2,0.5,0,1.1,0.4,1.4
		c0,0,0,0,0.1,0c0,0,0.1,0,0.2,0c0.2,0,0.5-0.2,0.5-0.5s-0.2-0.5-0.5-0.5c-0.1,0-0.2,0-0.3,0.1c-0.1-0.2-0.1-0.4,0-0.6
		c0.1-0.3,0.5-0.6,0.8-0.6c0.4,0,0.8,0.1,1,0.4c0.3,0.3,0.4,0.7,0.4,1.1c0,0.2-0.1,0.5-0.1,0.7c0,0,0,0,0,0.1
		c-0.3,0.8-0.4,1.7-0.2,2.5c-0.8,0.2-1.6,0.5-2.4,0.8c0-0.2,0-0.5-0.1-0.8c-0.2-0.5-0.5-0.9-1-1.1c0.2-0.2,0.4-0.3,0.7-0.3
		s0.5,0,0.6,0.2c-0.1,0.1-0.2,0.2-0.2,0.4c0,0.2,0.2,0.5,0.5,0.5c0.2,0,0.5-0.2,0.5-0.5V8.2l0,0l0,0l0,0c-0.2-0.5-0.7-0.8-1.3-0.7
		c-0.4,0-0.8,0.3-1,0.6c-0.4-0.1-0.8,0-1.1,0.3c-0.4,0.3-0.6,0.9-0.4,1.4l0,0l0,0l0,0c0,0,0,0.1,0.1,0.1c0.2,0.2,0.5,0.2,0.6,0
		c0.2-0.2,0.2-0.5,0-0.6c-0.1-0.1-0.3-0.2-0.5-0.1c0-0.2,0.1-0.4,0.3-0.6s0.5-0.2,0.7-0.2l0,0c-0.2,0.5-0.2,1,0.1,1.5
		c0.1,0.3,0.3,0.5,0.5,0.6c-0.7,0.4-1.4,0.7-2.1,1.2c0.1-0.3,0-0.7-0.2-1c-0.2-0.2-0.4-0.4-0.6-0.5l0,0c0,0,0.1-0.1,0-0.2
		c0-0.2-0.3-0.4-0.5-0.4c0.1-0.2,0.1-0.5,0-0.8c-0.1-0.2-0.3-0.5-0.5-0.6c0.2,0.4,0.1,1-0.2,1.3c-0.2,0.2-0.5,0.3-0.7,0.5
		c-0.3,0.3-0.5,0.7-0.5,1.2c0,0.3,0,0.6,0,0.8c0,0.2,0,0.4,0,0.5c0,0,0,0,0,0.1h-0.1c-0.6-0.2-1.2-0.6-1.6-1.2
		c-0.2-0.3-0.5-0.8-0.5-1.3s0.2-1,0.5-1.2c0.2-0.1,0.3-0.2,0.5-0.2s0.3,0.1,0.4,0.2c-0.1,0-0.1-0.1-0.2-0.1c-0.2,0-0.5,0.2-0.5,0.5
		c0,0.1,0,0.1,0,0.2c0,0,0,0,0,0.1c0.1,0.1,0.3,0.2,0.4,0.2c0.2,0,0.3-0.1,0.4-0.2c0.2-0.2,0.2-0.6,0-0.8c-0.2-0.2-0.4-0.4-0.7-0.3
		c-0.3,0-0.5,0.2-0.7,0.3c-0.4,0.3-0.7,0.9-0.6,1.5c0,0.4,0.1,0.9,0.4,1.3c-0.4-0.3-0.9-0.4-1.3-0.4c-0.6,0-1.2,0.2-1.5,0.6
		c-0.1,0.1-0.3,0.4-0.3,0.7c0,0.3,0.1,0.6,0.3,0.7c0.3,0.2,0.6,0.2,0.8,0c0.1-0.1,0.2-0.3,0.2-0.5s-0.1-0.3-0.2-0.4c0,0,0,0-0.1,0
		s-0.1,0-0.2,0c-0.2,0-0.5,0.2-0.5,0.5c0,0.1,0,0.2,0.1,0.2c-0.1-0.1-0.2-0.3-0.2-0.4s0.1-0.3,0.2-0.5c0.3-0.3,0.7-0.5,1.2-0.5
		s1,0.3,1.3,0.5c0.5,0.4,1,1,1.2,1.6v0.1c0,0,0,0-0.1,0c-0.2,0-0.4,0-0.5,0c-0.3,0-0.5-0.1-0.8,0c-0.4,0-0.9,0.2-1.2,0.5
		c-0.2,0.2-0.3,0.5-0.5,0.7c-0.3,0.4-0.9,0.5-1.3,0.2c0.2,0.2,0.4,0.4,0.6,0.5c0.2,0.1,0.5,0.1,0.8,0c0,0.2,0.1,0.5,0.4,0.5
		c0.1,0,0.1,0,0.2,0l0,0c0.1,0.3,0.3,0.5,0.5,0.6c0.2,0.2,0.5,0.3,0.8,0.3c0.1,0,0.2,0,0.3,0c-0.5,0.7-0.8,1.4-1.2,2.1
		c-0.1-0.2-0.3-0.4-0.6-0.5c-0.5-0.2-1-0.3-1.5-0.1l0,0c0-0.3,0.1-0.5,0.2-0.7c0.1-0.2,0.4-0.3,0.6-0.3c0,0.2,0,0.3,0.1,0.5
		c0.2,0.2,0.5,0.2,0.6,0c0.2-0.2,0.2-0.5,0-0.6c0,0-0.1,0-0.1-0.1l0,0l0,0l0,0c-0.5-0.2-1.1,0-1.4,0.4c-0.3,0.3-0.4,0.7-0.3,1.1
		c-0.3,0.2-0.5,0.6-0.6,1c0,0.5,0.3,1.1,0.7,1.3l0,0l0,0l0,0h0.1c0.2,0,0.5-0.2,0.5-0.5c0-0.2-0.2-0.5-0.5-0.5
		c-0.2,0-0.3,0.1-0.4,0.2c-0.1-0.2-0.2-0.4-0.2-0.6s0.1-0.5,0.3-0.7c0.2,0.5,0.6,0.8,1.1,1c0.2,0,0.3,0.1,0.5,0.1c0.1,0,0.2,0,0.3,0
		c-0.3,0.8-0.6,1.5-0.8,2.4c-0.8-0.2-1.7-0.1-2.5,0.2c0,0,0,0-0.1,0c-0.2,0.1-0.5,0.1-0.7,0.1c-0.4,0-0.8-0.1-1.1-0.4
		s-0.5-0.6-0.4-1c0-0.4,0.3-0.7,0.6-0.8c0.2-0.1,0.4,0,0.6,0c-0.1,0.1-0.1,0.2-0.1,0.3c0,0.2,0.2,0.5,0.5,0.5s0.5-0.2,0.5-0.5
		c0,0,0-0.1,0-0.2c0,0,0,0,0-0.1c-0.3-0.4-0.9-0.6-1.4-0.4h-0.1c-0.1,0-0.2-0.1-0.2-0.1c-0.2,0-0.3,0-0.5,0.1
		c-0.1-0.3-0.4-0.5-0.8-0.6c0.2,0.2,0.3,0.5,0.3,0.7s-0.1,0.5-0.1,0.8c0,0.5,0.3,1.1,0.7,1.4c0.3,0.2,0.6,0.4,1,0.4
		c0.2,0,0.3,0.1,0.5,0.1c-0.2,0.2-0.4,0.4-0.6,0.5c-0.3,0.4-0.5,0.8-0.5,1.2c0,0.3,0,0.6,0.2,0.9c-0.1,0.1-0.2,0.2-0.4,0.3
		c-0.1,0.1-0.1,0.1-0.2,0.2c-0.3,0.3-0.6,0.6-1,0.7c-0.3,0.1-0.6,0-0.9-0.1c-0.3-0.1-0.5-0.4-0.5-0.7c-0.1-0.3,0-0.5,0.1-0.7
		l0.1-0.1c0,0.2,0.2,0.4,0.4,0.4s0.5-0.2,0.5-0.5c0-0.2-0.2-0.5-0.5-0.5l0,0c-0.3,0-0.6,0.2-0.8,0.5s-0.2,0.7-0.1,1
		c0.1,0.4,0.4,0.7,0.7,0.9c0,0,0.1,0,0.2,0.1c0,0-0.1,0-0.2,0.1c-0.3,0.2-0.6,0.5-0.7,0.9c-0.1,0.4-0.1,0.7,0.1,1
		c0.2,0.3,0.5,0.5,0.8,0.5l0,0l0,0c0.2,0,0.5-0.2,0.5-0.5c0-0.2-0.2-0.5-0.5-0.5c-0.2,0-0.4,0.2-0.4,0.4L42,29
		c-0.1-0.2-0.1-0.5-0.1-0.7c0.1-0.3,0.3-0.5,0.5-0.7c0.3-0.1,0.6-0.2,0.9-0.1c0.4,0.1,0.7,0.4,1,0.7c0.1,0.1,0.1,0.1,0.2,0.2
		c0.1,0.1,0.2,0.2,0.4,0.3c-0.1,0.3-0.2,0.6-0.2,0.9c0,0.4,0.2,0.8,0.5,1.2c0.2,0.2,0.4,0.4,0.6,0.5c-0.2,0-0.4,0-0.5,0.1
		c-0.4,0-0.7,0.2-1,0.4c-0.4,0.3-0.7,0.9-0.7,1.4c0,0.3,0,0.5,0.1,0.8c0,0.3,0,0.5-0.3,0.7c0.3-0.1,0.6-0.3,0.8-0.6
		c0.1,0.1,0.3,0.2,0.5,0.1c0.1,0,0.2,0,0.2-0.1H45c0.1,0,0.3,0.1,0.4,0.1c0.4,0,0.8-0.2,1-0.5c0,0,0,0,0-0.1c0,0,0-0.1,0-0.2
		c0-0.2-0.2-0.5-0.5-0.5s-0.5,0.2-0.5,0.5c0,0.1,0,0.2,0.1,0.3c-0.2,0.1-0.4,0.1-0.6,0c-0.3-0.1-0.6-0.5-0.6-0.8
		c0-0.4,0.1-0.8,0.4-1c0.3-0.3,0.7-0.4,1.1-0.4c0.2,0,0.5,0.1,0.7,0.1l0,0c0.5,0.2,1,0.3,1.6,0.3c0.3,0,0.6,0,0.9-0.1
		c0.2,0.8,0.5,1.6,0.8,2.4c-0.2,0-0.5,0-0.8,0.1c-0.5,0.2-0.9,0.5-1.1,1c-0.2-0.2-0.3-0.4-0.3-0.7s0-0.5,0.2-0.6
		c0.1,0.1,0.2,0.2,0.4,0.2s0.5-0.2,0.5-0.5c0-0.2-0.2-0.5-0.5-0.5h-0.1l0,0l0,0l0,0c-0.5,0.2-0.8,0.7-0.7,1.3c0,0.4,0.3,0.8,0.6,1
		c-0.1,0.4,0,0.8,0.3,1.1s0.6,0.5,1,0.5c0.1,0,0.3,0,0.4-0.1c0,0,0,0,0.1,0l0,0l0,0c0,0,0.1,0,0.1-0.1c0.2-0.2,0.2-0.5,0-0.6
		c-0.2-0.2-0.5-0.2-0.6,0c-0.1,0.1-0.2,0.3-0.1,0.5c-0.2,0-0.4-0.1-0.6-0.3c-0.2-0.2-0.2-0.5-0.2-0.7l0,0c0.2,0.1,0.4,0.1,0.6,0.1
		c0.3,0,0.6-0.1,0.9-0.2c0.3-0.1,0.5-0.3,0.6-0.5c0.4,0.7,0.7,1.4,1.2,2.1c-0.3-0.1-0.7,0-1,0.2c-0.2,0.2-0.4,0.4-0.5,0.6l0,0
		c0,0-0.1-0.1-0.2,0c-0.2,0-0.4,0.3-0.4,0.5c-0.2-0.1-0.5-0.1-0.8,0c-0.2,0.1-0.5,0.3-0.6,0.5c0.4-0.2,1-0.1,1.3,0.2
		c0.2,0.2,0.3,0.5,0.5,0.7c0.3,0.3,0.7,0.5,1.2,0.5c0.3,0,0.5,0,0.8,0c0.1,0,0.2,0,0.3,0s0.1,0,0.2,0h0.1v0.1
		c-0.2,0.6-0.6,1.2-1.2,1.6c-0.3,0.2-0.8,0.5-1.3,0.5s-1-0.2-1.2-0.5c-0.1-0.2-0.2-0.3-0.2-0.5s0.1-0.3,0.2-0.4
		c0,0.1-0.1,0.1-0.1,0.2c0,0.2,0.2,0.5,0.5,0.5c0.1,0,0.1,0,0.2,0c0,0,0,0,0.1,0c0.1-0.1,0.2-0.2,0.2-0.4c0-0.2-0.1-0.3-0.2-0.5
		c-0.2-0.2-0.6-0.2-0.8,0s-0.4,0.4-0.3,0.7c0,0.3,0.2,0.5,0.3,0.7c0.3,0.4,0.9,0.6,1.4,0.6c0,0,0,0,0.1,0c0.4,0,0.9-0.1,1.3-0.4
		c-0.3,0.4-0.4,0.9-0.4,1.3c0,0.6,0.2,1.2,0.6,1.5c0.1,0.1,0.4,0.3,0.7,0.3l0,0c0.3,0,0.5-0.1,0.7-0.3c0.2-0.3,0.2-0.6,0-0.8
		c-0.1-0.1-0.3-0.2-0.5-0.2h-0.1c-0.1,0-0.1,0-0.2,0.1c0,0-0.1,0-0.1,0.1c0,0,0,0,0,0.1s0,0.1,0,0.2c0,0.2,0.2,0.5,0.5,0.5
		c0.1,0,0.2,0,0.2-0.1c-0.1,0.1-0.3,0.2-0.4,0.2c-0.2,0-0.3-0.1-0.5-0.2c-0.3-0.3-0.5-0.7-0.5-1.2s0.3-1,0.5-1.3
		c0.4-0.5,1-1,1.6-1.2h0.1c0,0,0,0,0,0.1c0,0.2,0,0.4,0,0.5c0,0.3-0.1,0.5,0,0.8c0,0.4,0.2,0.9,0.5,1.2c0.2,0.2,0.5,0.3,0.7,0.5
		c0.4,0.3,0.5,0.9,0.2,1.3c0.2-0.2,0.4-0.4,0.5-0.6s0.1-0.5,0-0.8c0.2,0,0.5-0.1,0.5-0.4c0-0.1,0-0.1,0-0.2l0,0
		c0.3-0.1,0.5-0.3,0.6-0.5c0.2-0.3,0.3-0.7,0.2-1c0.7,0.5,1.4,0.8,2.1,1.2c-0.2,0.1-0.4,0.3-0.5,0.6c-0.2,0.5-0.3,1-0.1,1.5l0,0
		c-0.3,0-0.5-0.1-0.7-0.2s-0.3-0.4-0.3-0.6c0.2,0,0.3,0,0.5-0.1c0.2-0.2,0.2-0.5,0-0.6c-0.2-0.2-0.5-0.2-0.6,0c0,0,0,0.1-0.1,0.1
		l0,0l0,0l0,0c-0.2,0.5,0,1.1,0.4,1.4c0.3,0.2,0.6,0.3,0.9,0.3c0.1,0,0.2,0,0.2,0c0.2,0.3,0.6,0.5,1,0.6h0.1c0.5,0,1-0.3,1.2-0.7
		l0,0l0,0l0,0V46c0-0.2-0.2-0.5-0.5-0.5c-0.2,0-0.5,0.2-0.5,0.5c0,0.2,0.1,0.3,0.2,0.4c-0.2,0.1-0.4,0.2-0.6,0.2
		c-0.2,0-0.5-0.1-0.7-0.3c0.5-0.2,0.8-0.6,1-1.1c0.1-0.3,0.1-0.5,0.1-0.8c0.8,0.3,1.5,0.6,2.4,0.8c-0.2,0.8-0.1,1.7,0.2,2.5
		c0,0,0,0,0,0.1c0.1,0.2,0.1,0.5,0.1,0.7c0,0.4-0.1,0.8-0.4,1.1c-0.3,0.3-0.6,0.5-1,0.4c-0.4,0-0.7-0.3-0.8-0.6
		c-0.1-0.2,0-0.4,0-0.6c0.1,0.1,0.2,0.1,0.3,0.1c0.2,0,0.5-0.2,0.5-0.5s-0.2-0.5-0.5-0.5c0,0-0.1,0-0.2,0c0,0,0,0-0.1,0
		c-0.4,0.3-0.6,0.9-0.4,1.4v0.1c0,0.1-0.1,0.2-0.1,0.2c0,0.2,0,0.3,0.1,0.5c-0.3,0.1-0.5,0.4-0.6,0.8c0.2-0.2,0.5-0.3,0.7-0.3
		c0.3,0,0.5,0.1,0.8,0.1c0.5,0,1.1-0.3,1.4-0.7c0.2-0.3,0.4-0.6,0.4-1c0-0.2,0.1-0.3,0.1-0.5c0.2,0.2,0.4,0.4,0.5,0.6
		c0.4,0.3,0.8,0.5,1.2,0.5h0.1c0.3,0,0.5,0,0.8-0.2c0.1,0.1,0.2,0.2,0.3,0.3c0.1,0.1,0.1,0.1,0.2,0.2c0.3,0.3,0.6,0.6,0.7,1
		c0.1,0.3,0,0.6-0.1,0.9s-0.4,0.5-0.7,0.5c-0.3,0.1-0.5,0-0.7-0.1l-0.1-0.1c0.2,0,0.4-0.2,0.4-0.4c0-0.2-0.2-0.5-0.5-0.5
		c-0.2,0-0.5,0.2-0.5,0.5l0,0c0,0.3,0.2,0.6,0.5,0.8c0.2,0.1,0.4,0.2,0.6,0.2c0.1,0,0.3,0,0.4,0c0.4-0.1,0.7-0.4,0.9-0.7
		c0,0,0-0.1,0.1-0.2c0,0,0,0.1,0.1,0.2c0.2,0.3,0.5,0.6,0.9,0.7s0.7,0.1,1-0.1s0.5-0.5,0.5-0.8l0,0c0-0.2-0.2-0.5-0.5-0.5
		c-0.2,0-0.5,0.2-0.5,0.5c0,0.2,0.2,0.4,0.4,0.4l-0.1,0.1c-0.2,0.1-0.5,0.1-0.7,0.1c-0.3-0.1-0.5-0.3-0.7-0.5
		c-0.1-0.3-0.2-0.6-0.1-0.9c0.1-0.4,0.4-0.7,0.7-1c0.1-0.1,0.1-0.1,0.2-0.2c0.1-0.1,0.2-0.2,0.3-0.3c0.2,0.1,0.5,0.2,0.8,0.2h0.1
		c0.4,0,0.8-0.2,1.2-0.5c0.2-0.2,0.4-0.4,0.5-0.6c0,0.2,0,0.4,0.1,0.5c0,0.4,0.2,0.7,0.4,1c0.3,0.4,0.9,0.7,1.4,0.7
		c0.3,0,0.5,0,0.8-0.1c0.3,0,0.5,0,0.7,0.3c-0.1-0.3-0.3-0.6-0.6-0.8c0.1-0.1,0.2-0.3,0.1-0.5c0-0.1,0-0.2-0.1-0.2v-0.1
		c0.2-0.5,0-1.1-0.4-1.4c0,0,0,0-0.1,0c0,0-0.1,0-0.2,0c-0.2,0-0.5,0.2-0.5,0.5S73,49,73.3,49c0.1,0,0.2,0,0.3-0.1
		c0.1,0.2,0.1,0.4,0,0.6c-0.1,0.3-0.5,0.6-0.8,0.6c-0.4,0-0.8-0.1-1-0.4c-0.3-0.3-0.4-0.7-0.4-1.1c0-0.2,0.1-0.5,0.1-0.7
		c0,0,0,0,0-0.1c0.3-0.8,0.4-1.7,0.2-2.5c0.8-0.2,1.6-0.5,2.4-0.8c0,0.2,0,0.5,0.1,0.8c0.2,0.5,0.5,0.9,1,1.1
		c-0.2,0.2-0.4,0.3-0.7,0.3c-0.2,0-0.5,0-0.6-0.2c0.1-0.1,0.2-0.2,0.2-0.4c0-0.2-0.2-0.5-0.5-0.5c-0.2,0-0.5,0.2-0.5,0.5v0.1l0,0
		l0,0l0,0c0.2,0.4,0.7,0.7,1.2,0.7h0.1c0.4,0,0.8-0.3,1-0.6c0.1,0,0.2,0,0.2,0c0.3,0,0.7-0.1,0.9-0.3c0.4-0.3,0.6-0.9,0.4-1.4l0,0
		l0,0l0,0c0,0,0-0.1-0.1-0.1c-0.2-0.2-0.5-0.2-0.6,0c-0.2,0.2-0.2,0.5,0,0.6c0.1,0.1,0.3,0.2,0.5,0.1c0,0.2-0.1,0.4-0.3,0.6
		S75.9,46,75.7,46l0,0c0.2-0.5,0.2-1-0.1-1.5c-0.1-0.3-0.3-0.5-0.5-0.6c0.7-0.4,1.4-0.7,2.1-1.2c-0.1,0.3,0,0.7,0.2,1
		c0.2,0.2,0.4,0.4,0.6,0.5l0,0c0,0-0.1,0.1,0,0.2c0,0.2,0.3,0.4,0.5,0.4c-0.1,0.2-0.1,0.5,0,0.8c0.1,0.2,0.3,0.5,0.5,0.6
		c-0.2-0.4-0.1-1,0.2-1.3c0.2-0.2,0.5-0.3,0.7-0.5c0.3-0.3,0.5-0.7,0.5-1.2c0-0.3,0-0.6,0-0.8c0-0.2,0-0.4,0-0.5c0,0,0,0,0-0.1h0.1
		c0.6,0.2,1.2,0.6,1.6,1.2c0.2,0.3,0.5,0.8,0.5,1.3s-0.2,1-0.5,1.2c-0.2,0.1-0.3,0.2-0.5,0.2s-0.3-0.1-0.4-0.2
		c0.1,0,0.1,0.1,0.2,0.1c0.2,0,0.5-0.2,0.5-0.5c0-0.1,0-0.1,0-0.2c0,0,0,0,0-0.1c0,0-0.1-0.1-0.2-0.1l0,0l0,0c0,0,0,0-0.1,0h-0.1
		c-0.2,0-0.3,0.1-0.5,0.2c-0.2,0.2-0.2,0.6,0,0.8c0.1,0.2,0.4,0.3,0.7,0.3l0,0c0.3,0,0.5-0.2,0.7-0.3c0.4-0.3,0.7-0.9,0.6-1.5
		c0-0.4-0.1-0.9-0.4-1.3c0.4,0.3,0.9,0.4,1.3,0.4c0,0,0,0,0.1,0c0.6,0,1.1-0.2,1.4-0.6c0.1-0.1,0.3-0.4,0.3-0.7
		c0-0.3-0.1-0.6-0.3-0.7c-0.3-0.2-0.6-0.2-0.8,0c-0.1,0.1-0.2,0.3-0.2,0.5s0.1,0.3,0.2,0.4c0,0,0,0,0.1,0s0.1,0,0.2,0
		c0.2,0,0.5-0.2,0.5-0.5c0-0.1,0-0.2-0.1-0.2c0.1,0.1,0.2,0.3,0.2,0.4s-0.1,0.3-0.2,0.5c-0.3,0.3-0.7,0.5-1.2,0.5s-1-0.3-1.3-0.5
		c-0.5-0.4-1-1-1.2-1.6v-0.1h0.1c0.1,0,0.1,0,0.2,0c0.1,0,0.2,0,0.3,0c0.3,0,0.5,0.1,0.8,0c0.4,0,0.9-0.2,1.2-0.5
		c0.2-0.2,0.3-0.5,0.5-0.7c0.3-0.4,0.9-0.5,1.3-0.2c-0.2-0.2-0.4-0.4-0.6-0.5c-0.2-0.1-0.5-0.1-0.8,0c0-0.2-0.1-0.5-0.4-0.5
		c-0.1,0-0.1,0-0.2,0l0,0c-0.1-0.3-0.3-0.5-0.5-0.6c-0.3-0.2-0.7-0.3-1-0.2c0.5-0.7,0.8-1.4,1.2-2.1c0.1,0.2,0.3,0.4,0.6,0.5
		s0.6,0.2,0.9,0.2c0.2,0,0.5,0,0.6-0.1l0,0c0,0.3-0.1,0.5-0.2,0.7C85.5,36.9,85.2,37,85,37c0-0.2,0-0.3-0.1-0.5
		c-0.2-0.2-0.5-0.2-0.6,0c-0.2,0.2-0.2,0.5,0,0.6c0,0,0.1,0,0.1,0.1l0,0l0,0c0,0,0,0,0.1,0s0.2,0.1,0.4,0.1c0.4,0,0.8-0.2,1-0.5
		c0.3-0.3,0.4-0.7,0.3-1.1c0.3-0.2,0.5-0.6,0.6-1c0-0.5-0.3-1.1-0.7-1.3l0,0l0,0l0,0H86c-0.2,0-0.5,0.2-0.5,0.5
		c0,0.2,0.2,0.5,0.5,0.5c0.2,0,0.3-0.1,0.4-0.2c0.1,0.2,0.2,0.4,0.2,0.6s-0.1,0.5-0.3,0.7c-0.2-0.5-0.6-0.8-1.1-1
		c-0.3-0.1-0.5-0.1-0.8-0.1c0.3-0.8,0.6-1.5,0.8-2.4c0.3,0.1,0.6,0.1,0.9,0.1c0.5,0,1.1-0.1,1.6-0.3l0,0c0.2-0.1,0.5-0.1,0.7-0.1
		c0.4,0,0.8,0.1,1.1,0.4s0.5,0.6,0.4,1c0,0.4-0.3,0.7-0.6,0.8c-0.2,0.1-0.4,0-0.6,0c0.1-0.1,0.1-0.2,0.1-0.3c0-0.2-0.2-0.5-0.5-0.5
		s-0.5,0.2-0.5,0.5c0,0,0,0.1,0,0.2c0,0,0,0,0,0.1c0.2,0.3,0.6,0.5,1,0.5c0.1,0,0.3,0,0.4-0.1h0.1c0.1,0,0.2,0.1,0.2,0.1
		c0.2,0,0.3,0,0.5-0.1c0.1,0.3,0.4,0.5,0.8,0.6c-0.2-0.2-0.3-0.5-0.3-0.7c0-0.3,0.1-0.5,0.1-0.8c0-0.5-0.3-1.1-0.7-1.4
		c-0.3-0.2-0.6-0.4-1-0.4c-0.2,0-0.3-0.1-0.5-0.1c0.2-0.2,0.4-0.4,0.6-0.5c0.3-0.4,0.5-0.8,0.5-1.2c0-0.3,0-0.6-0.2-0.9
		c0.1-0.1,0.2-0.2,0.4-0.3c0.1-0.1,0.1-0.1,0.2-0.2c0.3-0.3,0.6-0.6,1-0.7c0.3-0.1,0.6,0,0.9,0.1c0.3,0.1,0.5,0.4,0.5,0.7
		c0.1,0.3,0,0.5-0.1,0.7l-0.1,0.1c0-0.2-0.2-0.4-0.4-0.4s-0.5,0.2-0.5,0.5c0,0.2,0.2,0.5,0.5,0.5l0,0l0,0c0.3,0,0.6-0.2,0.8-0.5
		s0.2-0.7,0.1-1C92.4,27.8,92.2,27.4,91.8,27.3z M87.8,23.2c0.4,0.2,0.6,0.4,0.9,0.7c0.2,0.3,0.4,0.6,0.4,1c0,0.2,0,0.5-0.1,0.7
		c-0.3-0.2-0.6-0.3-0.9-0.4c-0.6-0.2-1.3-0.1-1.8,0.3c-0.2,0.1-0.4,0.4-0.5,0.6c-0.3-0.4-0.4-0.9-0.2-1.3c0.1-0.4,0.4-0.6,0.8-0.7
		l0,0c0,0.2,0.2,0.5,0.5,0.5c0.2,0,0.5-0.2,0.5-0.5c0-0.2-0.2-0.4-0.4-0.4l0,0l0,0l0,0l0,0c-0.6,0-1.2,0.4-1.4,0.9
		c-0.1-0.5-0.2-1-0.3-1.6C85.9,22.5,86.9,22.7,87.8,23.2z M88.8,25.8c-0.1,0.1-0.1,0.2-0.2,0.3c-0.3,0.3-0.8,0.5-1.3,0.5
		s-1-0.1-1.4-0.5c0.1-0.2,0.3-0.4,0.5-0.5c0.4-0.3,1-0.4,1.5-0.2C88.2,25.5,88.5,25.6,88.8,25.8z M79.9,39.9L79.9,39.9L79.9,39.9
		L79.9,39.9c-0.1,0.1-0.1,0.1-0.2,0.2c-3.4,3.3-7.9,5.2-12.7,5.2s-9.3-1.8-12.7-5.2c0,0,0,0-0.1-0.1l0,0l0,0c0,0,0,0-0.1-0.1
		c-3.3-3.4-5.2-7.9-5.2-12.7c0-4.8,1.8-9.3,5.2-12.7c0,0,0,0,0.1-0.1l0,0l0,0c0,0,0,0,0.1-0.1C57.7,11,62.2,9.1,67,9.1
		s9.3,1.8,12.7,5.2c0,0,0,0,0.1,0.1l0,0l0,0c0,0,0,0,0.1,0.1c3.3,3.4,5.2,7.9,5.2,12.7S83.3,36.5,79.9,39.9z M79.8,40.5
		c0.1,0.2,0.1,0.4,0.2,0.6c-0.3,0-0.6,0-0.9,0C79.4,40.9,79.6,40.7,79.8,40.5z M81,39.3c0,0.3,0,0.6,0,0.9c-0.2,0-0.4-0.1-0.6-0.2
		C80.6,39.7,80.8,39.5,81,39.3z M68.6,46.6c0.3,0.4,0.4,1,0.2,1.5c-0.1,0.3-0.2,0.5-0.4,0.8c-0.1-0.1-0.2-0.1-0.3-0.2
		c-0.3-0.3-0.5-0.8-0.5-1.3s0.1-1,0.5-1.4C68.3,46.2,68.4,46.4,68.6,46.6z M66,46.1c0.3,0.4,0.5,0.9,0.5,1.4s-0.2,0.9-0.5,1.3
		c-0.1,0.1-0.2,0.1-0.3,0.2c-0.2-0.3-0.3-0.5-0.4-0.8c-0.1-0.5-0.1-1.1,0.2-1.5C65.6,46.4,65.8,46.2,66,46.1z M54.9,41.1
		c-0.3,0-0.6,0-0.9,0c0-0.2,0.1-0.4,0.2-0.6C54.5,40.7,54.7,40.9,54.9,41.1z M53.7,40c-0.2,0.1-0.4,0.1-0.6,0.2c0-0.3,0-0.6,0-0.9
		C53.3,39.5,53.5,39.7,53.7,40z M54.2,13.9c-0.1-0.2-0.1-0.4-0.2-0.6c0.1,0,0.3,0,0.4,0c0.2,0,0.3,0,0.5,0
		C54.7,13.5,54.5,13.7,54.2,13.9z M53.1,15.1c0-0.3,0-0.6,0-0.9c0.2,0,0.4,0.1,0.6,0.2C53.5,14.6,53.3,14.8,53.1,15.1z M65.5,7.8
		c-0.3-0.4-0.4-1-0.2-1.5c0.1-0.3,0.2-0.5,0.4-0.8c0.1,0.1,0.2,0.1,0.3,0.2C66.3,6,66.5,6.5,66.5,7S66.4,8,66,8.4
		C65.8,8.1,65.6,8,65.5,7.8z M68,8.2c-0.3-0.4-0.5-0.9-0.5-1.4s0.2-0.9,0.5-1.3c0.1-0.1,0.2-0.1,0.3-0.2c0.2,0.3,0.3,0.5,0.4,0.8
		c0.1,0.5,0.1,1.1-0.2,1.5C68.4,8,68.3,8.1,68,8.2z M79.1,13.2c0.2,0,0.3,0,0.5,0c0.1,0,0.3,0,0.4,0c0,0.2-0.1,0.4-0.2,0.6
		C79.6,13.7,79.4,13.5,79.1,13.2z M80.3,14.4c0.2-0.1,0.4-0.1,0.6-0.2c0,0.3,0,0.6,0,0.9C80.8,14.8,80.6,14.6,80.3,14.4z M83.8,19.4
		c0-0.2,0.2-0.5,0.5-0.6c0.4-0.2,0.9-0.2,1.2-0.1c0,0,0,0,0.1,0c0,0,0,0,0,0.1c-0.1,0.4-0.5,0.7-0.9,0.8c-0.3,0.1-0.6,0.1-0.8,0l0,0
		C83.8,19.6,83.8,19.5,83.8,19.4C83.8,19.5,83.8,19.4,83.8,19.4z M83.2,16.5c-0.3,0.2-0.7,0.3-0.9,0.1C82,16.4,81.9,16,82,15.7
		c0.1-0.1,0.2-0.2,0.3-0.3c0,0.1-0.1,0.2-0.1,0.2c0,0.2,0.2,0.5,0.5,0.5h0.1c0.1,0,0.1,0,0.2-0.1c0.1-0.1,0.1-0.2,0.1-0.3
		c0-0.2,0-0.3-0.1-0.5c-0.1-0.1-0.3-0.2-0.5-0.2c-0.3,0-0.6,0.2-0.8,0.5c-0.1,0.1-0.1,0.3-0.1,0.4c0-0.1-0.1-0.1-0.2-0.2l0,0
		c-0.2-0.5-0.2-1-0.1-1.5c0.4,0,0.7,0,1,0c0.4,0.1,0.7,0.2,1,0.4s0.4,0.5,0.3,0.9C83.6,15.9,83.5,16.3,83.2,16.5z M80.7,13.1
		c0.3-0.1,0.5-0.2,0.8-0.4c-0.2,0.3-0.3,0.5-0.4,0.8c0,0.1,0,0.2-0.1,0.3c-0.3,0-0.6,0.1-0.9,0.3c0.1-0.3,0.2-0.6,0.3-0.9
		C80.5,13.2,80.6,13.1,80.7,13.1z M79.2,11.7c0-0.2-0.1-0.4-0.2-0.5c-0.1-0.1-0.3-0.2-0.5-0.1c-0.1,0-0.2,0.1-0.3,0.1
		c0,0-0.1,0.1-0.1,0.2v0.1c0,0.2,0.2,0.5,0.5,0.5c0.1,0,0.2,0,0.2-0.1c0,0.1-0.1,0.2-0.3,0.3c-0.3,0.2-0.7,0-0.9-0.3
		s-0.1-0.7,0.1-0.9c0.2-0.3,0.5-0.4,0.9-0.4s0.7,0.1,0.9,0.3s0.4,0.5,0.4,1c0,0.3,0.1,0.7,0,1c-0.5,0.1-1,0-1.5-0.1l0,0
		c-0.1,0-0.1-0.1-0.2-0.2c0.1,0,0.3,0,0.4-0.1C79.1,12.3,79.3,12,79.2,11.7z M74.6,10.3c-0.1-0.2-0.2-0.5,0-0.8
		c0.1-0.4,0.5-0.8,0.8-0.9c0,0,0,0,0.1,0c0,0,0,0,0,0.1c0.1,0.4,0.1,0.8-0.1,1.2c-0.1,0.3-0.4,0.5-0.6,0.5l0,0
		C74.7,10.4,74.7,10.4,74.6,10.3L74.6,10.3z M69.4,5.2c0.3,0,0.7,0.2,1,0.4s0.5,0.5,0.7,0.9c0.5,0.9,0.6,1.9,0.4,2.8
		c-0.5-0.1-1-0.2-1.6-0.3c0.5-0.3,0.9-0.9,0.9-1.4l0,0l0,0l0,0l0,0c0-0.2-0.2-0.4-0.4-0.4s-0.5,0.2-0.5,0.5c0,0.2,0.2,0.5,0.5,0.5
		l0,0C70.3,8.5,70,8.8,69.7,9c-0.4,0.2-1,0.1-1.3-0.2c0.2-0.1,0.4-0.3,0.6-0.5c0.3-0.5,0.4-1.1,0.3-1.8c-0.1-0.3-0.2-0.6-0.4-0.9
		C68.9,5.2,69.1,5.2,69.4,5.2z M66.1,4.9c0-0.1,0.1-0.1,0.2-0.2c0.3-0.3,0.6-0.6,0.7-1c0.2,0.4,0.5,0.7,0.7,1
		c0.1,0.1,0.1,0.1,0.2,0.2C68,5,68.1,5.1,68.1,5.2c-0.1,0.1-0.2,0.1-0.3,0.2c-0.4,0.4-0.6,0.9-0.6,1.5s0.1,1.1,0.5,1.5
		c-0.2,0.1-0.5,0.2-0.7,0.2c-0.2-0.1-0.5-0.1-0.7-0.2c0.3-0.4,0.5-1,0.5-1.5c0-0.6-0.3-1.1-0.6-1.5c-0.1-0.1-0.2-0.2-0.3-0.2
		C66,5.1,66,5,66.1,4.9z M63,6.4c0.2-0.4,0.4-0.6,0.7-0.9c0.3-0.2,0.6-0.4,1-0.4c0.2,0,0.5,0,0.7,0.1c-0.2,0.3-0.3,0.6-0.4,0.9
		c-0.2,0.6-0.1,1.3,0.3,1.8c0.1,0.2,0.4,0.4,0.6,0.5c-0.4,0.3-0.9,0.4-1.3,0.2c-0.4-0.1-0.6-0.4-0.7-0.8l0,0c0.2,0,0.5-0.2,0.5-0.5
		c0-0.2-0.2-0.5-0.5-0.5c-0.2,0-0.4,0.2-0.4,0.4l0,0l0,0l0,0l0,0c0,0.6,0.4,1.2,0.9,1.4c-0.5,0.1-1,0.2-1.6,0.3
		C62.4,8.3,62.6,7.3,63,6.4z M59.3,10.4c-0.2,0-0.5-0.2-0.6-0.5c-0.2-0.4-0.2-0.9-0.1-1.2c0,0,0,0,0-0.1c0,0,0,0,0.1,0
		c0.4,0.1,0.7,0.5,0.8,0.9c0.1,0.3,0.1,0.6,0,0.8l0,0C59.4,10.4,59.3,10.4,59.3,10.4L59.3,10.4z M56.4,11.9
		c-0.2,0.3-0.6,0.4-0.9,0.3c-0.1-0.1-0.2-0.2-0.3-0.3c0.1,0,0.2,0.1,0.2,0.1c0.2,0,0.5-0.2,0.5-0.5v-0.1c0-0.1,0-0.1-0.1-0.2
		s-0.2-0.1-0.3-0.1c-0.2,0-0.3,0-0.5,0.1c-0.1,0.1-0.2,0.3-0.2,0.5c0,0.3,0.2,0.6,0.5,0.8c0.1,0.1,0.3,0.1,0.4,0.1
		c-0.1,0-0.1,0.1-0.2,0.2l0,0C55,13,54.5,13,54,12.9c0-0.4,0-0.7,0-1c0.1-0.4,0.2-0.7,0.4-1s0.5-0.4,0.9-0.3c0.4,0,0.7,0.2,0.9,0.4
		C56.5,11.3,56.6,11.6,56.4,11.9z M52.6,12.7c0.3,0.2,0.5,0.3,0.8,0.4c0.1,0,0.2,0,0.3,0.1c0,0.3,0.1,0.6,0.3,0.9
		c-0.3-0.1-0.6-0.2-0.9-0.3c0-0.1,0-0.2-0.1-0.3C52.9,13.3,52.7,13,52.6,12.7z M52.3,15.5c-0.2-0.3-0.5-0.5-0.8-0.5
		c-0.2,0-0.4,0.1-0.5,0.2s-0.2,0.3-0.1,0.5c0,0.1,0.1,0.2,0.1,0.3c0,0,0.1,0.1,0.2,0.1h0.1c0.2,0,0.5-0.2,0.5-0.5
		c0-0.1,0-0.2-0.1-0.2c0.1,0,0.2,0.1,0.3,0.3c0.2,0.3,0,0.7-0.3,0.9c-0.3,0.2-0.7,0.1-0.9-0.1c-0.3-0.2-0.4-0.5-0.4-0.9
		s0.1-0.7,0.3-0.9s0.5-0.4,1-0.4c0.3,0,0.7-0.1,1,0c0.1,0.5,0,1-0.1,1.5l0,0c0,0.1-0.1,0.1-0.2,0.2C52.4,15.7,52.4,15.6,52.3,15.5z
		 M50.2,19.6c-0.2,0.1-0.5,0.2-0.8,0c-0.4-0.1-0.8-0.5-0.9-0.8c0,0,0,0,0-0.1c0,0,0,0,0.1,0c0.4-0.1,0.8-0.1,1.2,0.1
		c0.3,0.1,0.5,0.4,0.5,0.6l0,0C50.2,19.5,50.2,19.5,50.2,19.6L50.2,19.6z M45,24.9c0-0.3,0.2-0.7,0.4-1s0.5-0.5,0.9-0.7
		c0.9-0.5,1.9-0.6,2.8-0.4c-0.1,0.5-0.2,1-0.3,1.6c-0.3-0.5-0.9-0.9-1.4-0.9l0,0l0,0l0,0l0,0c-0.2,0-0.4,0.2-0.4,0.4
		c0,0.2,0.2,0.5,0.5,0.5s0.5-0.2,0.5-0.5l0,0c0.3,0.1,0.6,0.4,0.8,0.7c0.2,0.4,0.1,1-0.2,1.3c-0.1-0.2-0.3-0.4-0.5-0.6
		C47.6,25,47,24.9,46.3,25c-0.3,0.1-0.6,0.2-0.9,0.4C45,25.3,45,25.1,45,24.9z M48.1,26.2c-0.4,0.3-0.9,0.5-1.4,0.5
		s-0.9-0.2-1.3-0.5c-0.1-0.1-0.1-0.2-0.2-0.3c0.3-0.2,0.5-0.3,0.8-0.4c0.5-0.1,1.1-0.1,1.5,0.2C47.8,25.8,48,26,48.1,26.2z
		 M44.7,28.1c-0.1,0-0.1-0.1-0.2-0.2c-0.3-0.3-0.6-0.6-1-0.7c0.4-0.2,0.7-0.5,1-0.7c0.1-0.1,0.1-0.1,0.2-0.2
		c0.1-0.1,0.2-0.2,0.3-0.2c0.1,0.1,0.1,0.2,0.2,0.3c0.4,0.4,0.9,0.6,1.5,0.6h0.1c0.5,0,1-0.2,1.4-0.5c0.1,0.2,0.2,0.5,0.2,0.7
		c-0.1,0.2-0.1,0.5-0.2,0.7c-0.4-0.3-1-0.5-1.5-0.5c-0.6,0-1.1,0.3-1.5,0.6c-0.1,0.1-0.2,0.2-0.2,0.3C44.9,28.3,44.8,28.2,44.7,28.1
		z M48.1,28.2c-0.1,0.2-0.3,0.4-0.5,0.5c-0.4,0.3-1,0.4-1.5,0.2c-0.3-0.1-0.5-0.2-0.8-0.4c0.1-0.1,0.1-0.2,0.2-0.3
		c0.3-0.3,0.8-0.5,1.3-0.5C47.3,27.7,47.8,27.9,48.1,28.2z M46.3,31.2c-0.4-0.2-0.6-0.4-0.9-0.7c-0.2-0.3-0.4-0.6-0.4-1
		c0-0.2,0-0.5,0.1-0.7c0.3,0.2,0.6,0.3,0.9,0.4c0.6,0.2,1.3,0.1,1.8-0.3c0.2-0.1,0.4-0.4,0.5-0.6c0.3,0.4,0.4,0.9,0.2,1.3
		c-0.1,0.4-0.4,0.6-0.8,0.7l0,0c0-0.2-0.2-0.5-0.5-0.5s-0.5,0.2-0.5,0.5c0,0.2,0.2,0.4,0.4,0.4l0,0l0,0l0,0l0,0
		c0.6,0,1.2-0.4,1.4-0.9c0.1,0.5,0.2,1,0.3,1.6C48.2,31.8,47.1,31.6,46.3,31.2z M50.3,34.9c0,0.2-0.2,0.5-0.5,0.6
		c-0.4,0.2-0.9,0.2-1.2,0.1c0,0,0,0-0.1,0c0,0,0,0,0-0.1c0.1-0.4,0.5-0.7,0.9-0.8c0.3-0.1,0.6-0.1,0.8,0l0,0
		C50.2,34.8,50.2,34.9,50.3,34.9L50.3,34.9z M50.8,37.9c0.3-0.2,0.7-0.3,0.9-0.1c0.3,0.2,0.4,0.6,0.3,0.9c-0.1,0.1-0.2,0.2-0.3,0.3
		c0-0.1,0.1-0.2,0.1-0.2c0-0.2-0.2-0.5-0.5-0.5h-0.1c-0.1,0-0.1,0-0.2,0.1c-0.1,0.1-0.1,0.2-0.1,0.3c0,0.2,0,0.3,0.1,0.5
		c0.1,0.1,0.3,0.2,0.5,0.2c0.3,0,0.6-0.2,0.8-0.5c0.1-0.1,0.1-0.3,0.1-0.4c0,0.1,0.1,0.1,0.2,0.2l0,0c0.2,0.5,0.2,1,0.1,1.5
		c-0.4,0-0.7,0-1,0c-0.4-0.1-0.7-0.2-1-0.4c-0.2-0.2-0.4-0.6-0.3-0.9C50.4,38.5,50.6,38.1,50.8,37.9z M52.7,40.6L52.7,40.6
		L52.7,40.6L52.7,40.6z M53.4,41.2c-0.3,0.1-0.5,0.2-0.8,0.4c0.2-0.3,0.3-0.5,0.4-0.8c0-0.1,0-0.2,0.1-0.3c0.3,0,0.6-0.1,0.9-0.3
		c-0.1,0.3-0.2,0.6-0.3,0.9C53.6,41.2,53.5,41.2,53.4,41.2z M54.8,42.6c0,0.2,0.1,0.4,0.2,0.5c0.1,0.1,0.3,0.2,0.5,0.1
		c0.1,0,0.2-0.1,0.3-0.1c0,0,0.1-0.1,0.1-0.2v-0.1c0-0.2-0.2-0.5-0.5-0.5c-0.1,0-0.2,0-0.2,0.1c0-0.1,0.1-0.2,0.3-0.3
		c0.3-0.2,0.7,0,0.9,0.3s0.1,0.7-0.1,0.9s-0.5,0.4-0.9,0.4s-0.7-0.1-0.9-0.3c-0.2-0.2-0.4-0.5-0.4-1c0-0.3-0.1-0.7,0-1
		c0.5-0.1,1,0,1.5,0.1l0,0c0.1,0,0.1,0.1,0.2,0.2c-0.1,0-0.3,0-0.4,0.1C55,42,54.8,42.3,54.8,42.6z M59.5,44c0.1,0.2,0.2,0.5,0,0.8
		c-0.1,0.4-0.5,0.8-0.8,0.9c0,0,0,0-0.1,0c0,0,0,0,0-0.1c-0.1-0.4-0.1-0.8,0.1-1.2c0.1-0.3,0.4-0.5,0.6-0.5l0,0
		C59.3,44,59.4,44,59.5,44C59.4,44,59.4,44,59.5,44z M64.7,49.2c-0.3,0-0.7-0.2-1-0.4c-0.3-0.2-0.5-0.5-0.7-0.9
		c-0.5-0.9-0.6-1.9-0.4-2.8c0.5,0.1,1,0.2,1.6,0.3c-0.5,0.3-0.9,0.9-0.9,1.4l0,0l0,0l0,0l0,0c0,0.2,0.2,0.4,0.4,0.4s0.5-0.2,0.5-0.5
		c0-0.2-0.2-0.5-0.5-0.5l0,0c0.1-0.3,0.4-0.6,0.7-0.8c0.4-0.2,1-0.1,1.3,0.2c-0.2,0.1-0.4,0.3-0.6,0.5c-0.3,0.5-0.4,1.1-0.3,1.8
		c0.1,0.3,0.2,0.6,0.4,0.9C65.1,49.2,64.9,49.2,64.7,49.2z M67.9,49.5c0,0.1-0.1,0.1-0.2,0.2c-0.3,0.3-0.6,0.6-0.7,1
		c-0.2-0.4-0.5-0.7-0.7-1c-0.1-0.1-0.1-0.1-0.2-0.2c-0.1-0.1-0.2-0.2-0.2-0.3c0.1-0.1,0.2-0.1,0.3-0.2c0.4-0.4,0.6-0.9,0.6-1.5
		s-0.1-1.1-0.5-1.5c0.2-0.1,0.5-0.2,0.7-0.2c0.2,0.1,0.5,0.1,0.7,0.2c-0.3,0.4-0.5,1-0.5,1.5c0,0.6,0.3,1.1,0.6,1.5
		c0.1,0.1,0.2,0.2,0.3,0.2C68.1,49.3,68,49.4,67.9,49.5z M71,47.9c-0.2,0.4-0.4,0.6-0.7,0.9c-0.3,0.2-0.6,0.4-1,0.4
		c-0.2,0-0.5,0-0.7-0.1c0.2-0.3,0.3-0.6,0.4-0.9c0.2-0.6,0.1-1.3-0.3-1.8c-0.1-0.2-0.4-0.4-0.6-0.5c0.4-0.3,0.9-0.4,1.3-0.2
		c0.4,0.1,0.6,0.4,0.7,0.8l0,0c-0.2,0-0.5,0.2-0.5,0.5c0,0.2,0.2,0.5,0.5,0.5c0.2,0,0.4-0.2,0.4-0.4l0,0l0,0l0,0l0,0
		c0-0.6-0.4-1.2-0.9-1.4c0.5-0.1,1-0.2,1.6-0.3C71.7,46,71.5,47.1,71,47.9z M74.8,44c0.2,0,0.5,0.2,0.6,0.5c0.2,0.4,0.2,0.9,0.1,1.2
		c0,0,0,0,0,0.1c0,0,0,0-0.1,0c-0.4-0.1-0.7-0.5-0.8-0.9c-0.1-0.3-0.1-0.6,0-0.8l0,0C74.7,44,74.7,44,74.8,44L74.8,44z M77.7,42.4
		c0.2-0.3,0.6-0.4,0.9-0.3c0.1,0.1,0.2,0.2,0.3,0.3c-0.1,0-0.2-0.1-0.2-0.1c-0.2,0-0.5,0.2-0.5,0.5v0.1c0,0.1,0,0.1,0.1,0.2
		s0.2,0.1,0.3,0.1c0.2,0,0.3,0,0.5-0.1c0.1-0.1,0.2-0.3,0.2-0.5c0-0.3-0.2-0.6-0.5-0.8c-0.1-0.1-0.3-0.1-0.4-0.1
		c0.1,0,0.1-0.1,0.2-0.2l0,0c0.5-0.2,1-0.2,1.5-0.1c0,0.4,0,0.7,0,1c-0.1,0.4-0.2,0.7-0.4,1c-0.2,0.2-0.6,0.4-0.9,0.3
		c-0.4,0-0.7-0.2-0.9-0.4C77.5,43.1,77.5,42.7,77.7,42.4z M81.5,41.6c-0.3-0.2-0.5-0.3-0.8-0.4c-0.1,0-0.2,0-0.3-0.1
		c0-0.3-0.1-0.6-0.3-0.9c0.3,0.1,0.6,0.2,0.9,0.3c0,0.1,0,0.2,0.1,0.3C81.2,41.1,81.3,41.4,81.5,41.6z M81.4,40.6L81.4,40.6
		L81.4,40.6L81.4,40.6z M81.7,38.9c0.2,0.3,0.5,0.5,0.8,0.5c0.2,0,0.4-0.1,0.5-0.2s0.2-0.3,0.1-0.5c0-0.1-0.1-0.2-0.1-0.3
		c0,0-0.1-0.1-0.2-0.1h-0.1c-0.2,0-0.5,0.2-0.5,0.5c0,0.1,0,0.2,0.1,0.2c-0.1,0-0.2-0.1-0.3-0.3c-0.2-0.3,0-0.7,0.3-0.9
		c0.3-0.2,0.7-0.1,0.9,0.1c0.3,0.2,0.4,0.5,0.4,0.9s-0.1,0.7-0.3,0.9c-0.2,0.2-0.5,0.4-1,0.4c-0.3,0-0.7,0.1-1,0
		c-0.1-0.5,0-1,0.1-1.5l0,0c0-0.1,0.1-0.1,0.2-0.2C81.6,38.6,81.7,38.8,81.7,38.9z M83.9,34.8c0.2-0.1,0.5-0.2,0.8,0
		c0.4,0.1,0.8,0.5,0.9,0.8c0,0,0,0,0,0.1c0,0,0,0-0.1,0c-0.4,0.1-0.8,0.1-1.2-0.1c-0.3-0.1-0.5-0.4-0.5-0.6l0,0
		C83.8,34.9,83.8,34.8,83.9,34.8L83.9,34.8z M89,29.5c0,0.3-0.2,0.7-0.4,1s-0.5,0.5-0.9,0.7c-0.9,0.5-1.9,0.6-2.8,0.4
		c0.1-0.5,0.2-1,0.3-1.6c0.3,0.5,0.9,0.9,1.4,0.9l0,0l0,0l0,0l0,0c0.2,0,0.4-0.2,0.4-0.4c0-0.2-0.2-0.5-0.5-0.5
		c-0.2,0-0.5,0.2-0.5,0.5l0,0c-0.3-0.1-0.6-0.4-0.8-0.7c-0.2-0.4-0.1-1,0.2-1.3c0.1,0.2,0.3,0.4,0.5,0.6c0.5,0.3,1.1,0.4,1.8,0.3
		c0.3-0.1,0.6-0.2,0.9-0.4C89,29.1,89.1,29.3,89,29.5z M86,28.2c0.4-0.3,0.9-0.5,1.4-0.5s0.9,0.2,1.3,0.5c0.1,0.1,0.1,0.2,0.2,0.3
		c-0.3,0.2-0.5,0.3-0.8,0.4C87.6,29,87,29,86.6,28.7C86.2,28.6,86.1,28.4,86,28.2z M89.5,27.9c-0.1,0.1-0.1,0.1-0.2,0.2
		c-0.1,0.1-0.2,0.2-0.3,0.2c-0.1-0.1-0.1-0.2-0.2-0.3c-0.4-0.4-0.9-0.6-1.5-0.6s-1.1,0.1-1.5,0.5c-0.1-0.2-0.2-0.5-0.2-0.7
		c0.1-0.2,0.1-0.5,0.2-0.7c0.4,0.3,0.9,0.5,1.4,0.5h0.1c0.6,0,1.1-0.3,1.5-0.6c0.1-0.1,0.2-0.2,0.2-0.3c0.1,0.1,0.2,0.1,0.3,0.2
		c0.1,0,0.1,0.1,0.2,0.2c0.3,0.3,0.6,0.6,1,0.7C90.1,27.3,89.8,27.6,89.5,27.9z"/>
	<path class="st1" d="M67,1.9c0.2-0.3,0.5-0.5,0.8-0.8C67.6,0.7,67.3,0.3,67,0c-0.3,0.3-0.5,0.7-0.8,1.1C66.6,1.4,66.8,1.6,67,1.9z"
		/>
	<path class="st1" d="M93.1,26.4c-0.2,0.3-0.5,0.5-0.8,0.8c0.3,0.2,0.5,0.5,0.8,0.8c0.4-0.2,0.8-0.5,1.1-0.8
		C93.8,26.9,93.5,26.6,93.1,26.4z"/>
	<path class="st1" d="M67,52.5c-0.2,0.3-0.5,0.5-0.8,0.8c0.2,0.4,0.5,0.8,0.8,1.1c0.3-0.3,0.5-0.7,0.8-1.1
		C67.5,53,67.2,52.8,67,52.5z"/>
	<path class="st1" d="M41,26.4c-0.4,0.2-0.8,0.5-1.1,0.8c0.3,0.3,0.7,0.5,1.1,0.8c0.2-0.3,0.5-0.5,0.8-0.8
		C41.5,27,41.2,26.7,41,26.4z"/>
	<path class="st1" d="M64.6,10.1L64.6,10.1L64.6,10.1c0.1,0,0.2-0.1,0.2-0.2s-0.1-0.2-0.2-0.2c-0.1,0-0.2,0.1-0.2,0.2
		C64.5,10.1,64.5,10.1,64.6,10.1z"/>
	<path class="st1" d="M65.7,10L65.7,10c0.1,0,0.2-0.1,0.2-0.2s-0.1-0.2-0.2-0.2s-0.2,0.1-0.2,0.2S65.6,10,65.7,10z"/>
	<path class="st1" d="M63.6,10.3L63.6,10.3c0.1,0,0.2-0.1,0.2-0.2s-0.1-0.2-0.2-0.1C63.5,10,63.4,10.1,63.6,10.3
		C63.4,10.2,63.5,10.3,63.6,10.3z"/>
	<path class="st1" d="M66.8,10L66.8,10c0.1,0,0.2-0.1,0.2-0.2s-0.1-0.2-0.2-0.2c-0.1,0-0.2,0.1-0.2,0.2S66.7,10,66.8,10z"/>
	<path class="st1" d="M62.5,10.6C62.6,10.6,62.6,10.6,62.5,10.6c0.1,0,0.2-0.1,0.2-0.2s-0.1-0.2-0.2-0.1S62.3,10.4,62.5,10.6
		L62.5,10.6z"/>
	<path class="st1" d="M53,17.1C53,17.1,53.1,17.1,53,17.1c0.1-0.2,0.1-0.3,0.1-0.4c-0.1,0-0.2,0-0.3,0c0,0.1,0,0.2,0,0.3
		C52.9,17.1,52.9,17.1,53,17.1z"/>
	<path class="st1" d="M71,10.4L71,10.4c0.1,0,0.2,0,0.2-0.1s0-0.2-0.1-0.2s-0.2,0-0.2,0.1C70.8,10.3,70.9,10.4,71,10.4z"/>
	<path class="st1" d="M69.9,10.2L69.9,10.2c0.1,0,0.2-0.1,0.2-0.1c0-0.1,0-0.2-0.1-0.2s-0.2,0-0.2,0.1S69.8,10.2,69.9,10.2z"/>
	<path class="st1" d="M61.5,10.9C61.5,10.9,61.6,10.9,61.5,10.9c0.1,0,0.2-0.1,0.2-0.2s-0.1-0.1-0.2-0.1
		C61.4,10.6,61.4,10.7,61.5,10.9C61.3,10.8,61.4,10.9,61.5,10.9z"/>
	<path class="st1" d="M68.9,10.1L68.9,10.1c0.1,0,0.2-0.1,0.2-0.2S69,9.7,68.9,9.7c-0.1,0-0.2,0.1-0.2,0.2S68.8,10.1,68.9,10.1z"/>
	<path class="st1" d="M67.8,10C67.8,10,67.9,10,67.8,10c0.1,0,0.2-0.1,0.2-0.2s-0.1-0.2-0.2-0.2s-0.2,0.1-0.2,0.2
		C67.7,9.9,67.7,10,67.8,10z"/>
	<path class="st1" d="M55.9,14L55.9,14c0.2-0.1,0.2-0.2,0.1-0.3c-0.1-0.1-0.2-0.1-0.3,0s-0.1,0.2,0,0.3C55.8,13.9,55.9,14,55.9,14z"
		/>
	<path class="st1" d="M55.1,14.7L55.1,14.7c0.2-0.1,0.2-0.2,0.1-0.3c-0.1-0.1-0.2-0.1-0.3,0l0,0c-0.1,0.1-0.1,0.2,0,0.3
		C55,14.6,55,14.7,55.1,14.7z"/>
	<path class="st1" d="M56.8,13.3L56.8,13.3c0.2,0,0.2-0.2,0.1-0.3c0-0.1-0.2-0.1-0.3,0c-0.1,0-0.1,0.2,0,0.3
		C56.6,13.3,56.7,13.3,56.8,13.3z"/>
	<path class="st1" d="M53.6,16.2C53.6,16.2,53.7,16.2,53.6,16.2c0.2-0.2,0.1-0.3,0.1-0.4c-0.1-0.1-0.2,0-0.3,0c-0.1,0.1,0,0.2,0,0.3
		C53.6,16.2,53.6,16.2,53.6,16.2z"/>
	<path class="st1" d="M54.3,15.4L54.3,15.4c0.2-0.1,0.2-0.2,0.1-0.3c-0.1-0.1-0.2-0.1-0.3,0s-0.1,0.2,0,0.3
		C54.2,15.4,54.3,15.4,54.3,15.4z"/>
	<path class="st1" d="M60.5,11.2L60.5,11.2c0.2-0.1,0.2-0.2,0.2-0.3c0-0.1-0.1-0.1-0.2-0.1s-0.1,0.1-0.1,0.2
		C60.3,11.2,60.4,11.2,60.5,11.2z"/>
	<path class="st1" d="M72,10.7L72,10.7c0.1,0,0.2,0,0.2-0.1s0-0.2-0.1-0.2s-0.2,0-0.2,0.1C71.8,10.6,71.9,10.7,72,10.7z"/>
	<path class="st1" d="M59.5,11.6C59.5,11.6,59.6,11.6,59.5,11.6c0.2-0.1,0.2-0.2,0.2-0.3c0-0.1-0.1-0.1-0.2-0.1
		c-0.1,0-0.1,0.1-0.1,0.2C59.4,11.6,59.4,11.6,59.5,11.6z"/>
	<path class="st1" d="M58.6,12.1L58.6,12.1c0.2-0.1,0.2-0.2,0.2-0.3c0-0.1-0.2-0.1-0.2-0.1c-0.1,0-0.1,0.2-0.1,0.2
		C58.4,12.1,58.5,12.1,58.6,12.1z"/>
	<path class="st1" d="M57.6,12.7C57.7,12.7,57.7,12.7,57.6,12.7c0.2-0.1,0.2-0.2,0.1-0.3c0-0.1-0.2-0.1-0.3,0c-0.1,0-0.1,0.2,0,0.3
		C57.5,12.7,57.6,12.7,57.6,12.7z"/>
	<path class="st1" d="M82,18.4C82,18.4,82.1,18.4,82,18.4c0.2-0.1,0.2-0.2,0.2-0.3c0-0.1-0.2-0.1-0.3-0.1s-0.1,0.2-0.1,0.2
		C81.9,18.4,81.9,18.4,82,18.4z"/>
	<path class="st1" d="M83.5,22.2c0,0.1,0.1,0.1,0.2,0.1l0,0c0.1,0,0.1-0.1,0.1-0.2S83.7,22,83.6,22C83.6,22.1,83.5,22.1,83.5,22.2z"
		/>
	<path class="st1" d="M83.4,21.4L83.4,21.4c0.2,0,0.2-0.2,0.2-0.3c0-0.1-0.1-0.1-0.2-0.1c-0.1,0-0.1,0.1-0.1,0.2
		C83.2,21.3,83.3,21.4,83.4,21.4z"/>
	<path class="st1" d="M83.8,23.3c0,0.1,0.1,0.1,0.2,0.1l0,0c0.1,0,0.2-0.1,0.1-0.2S84,23,83.9,23.1C83.8,23.1,83.8,23.2,83.8,23.3z"
		/>
	<path class="st1" d="M81.4,17.5C81.4,17.5,81.5,17.5,81.4,17.5c0.2-0.1,0.2-0.2,0.1-0.3l0,0c0-0.1-0.2-0.1-0.3,0
		c-0.1,0-0.1,0.2,0,0.3C81.3,17.5,81.4,17.5,81.4,17.5z"/>
	<path class="st1" d="M83,20.4L83,20.4c0.2-0.1,0.2-0.2,0.2-0.3c0-0.1-0.1-0.1-0.2-0.1c-0.1,0-0.1,0.1-0.1,0.2
		C82.8,20.3,82.9,20.4,83,20.4z"/>
	<path class="st1" d="M82.5,19.4C82.5,19.4,82.6,19.4,82.5,19.4c0.2-0.1,0.2-0.2,0.1-0.3c0-0.1-0.2-0.1-0.2-0.1
		c-0.1,0-0.1,0.2-0.1,0.2C82.4,19.3,82.4,19.4,82.5,19.4z"/>
	<path class="st1" d="M73,11C73,11,73.1,11,73,11c0.1,0,0.2,0,0.2-0.1s0-0.2-0.1-0.2l0,0c-0.1,0-0.2,0-0.2,0.1S72.9,11,73,11z"/>
	<path class="st1" d="M84.2,26.4c0,0.1,0.1,0.2,0.2,0.2l0,0c0.1,0,0.2-0.1,0.2-0.2s-0.1-0.2-0.2-0.2C84.3,26.2,84.2,26.3,84.2,26.4z
		"/>
	<path class="st1" d="M84.4,27.3c-0.1,0-0.2,0.1-0.2,0.2s0.1,0.2,0.2,0.2l0,0c0.1,0,0.2-0.1,0.2-0.2S84.5,27.3,84.4,27.3z"/>
	<path class="st1" d="M84.1,25.4c0,0.1,0.1,0.2,0.2,0.2l0,0c0.1,0,0.2-0.1,0.2-0.2s-0.1-0.2-0.2-0.2S84.1,25.3,84.1,25.4z"/>
	<path class="st1" d="M84,24.3L84,24.3c0,0.1,0.1,0.1,0.2,0.1l0,0c0.1,0,0.2-0.1,0.1-0.2c0-0.1-0.1-0.2-0.2-0.1S84,24.2,84,24.3z"/>
	<path class="st1" d="M80.8,16.7L80.8,16.7c0.2-0.1,0.2-0.2,0.1-0.3c-0.1-0.1-0.2-0.1-0.3,0s-0.1,0.2,0,0.3
		C80.7,16.7,80.7,16.7,80.8,16.7z"/>
	<path class="st1" d="M75.9,12.4C75.9,12.4,76,12.4,75.9,12.4c0.2,0,0.2,0,0.3-0.1c0-0.1,0-0.2-0.1-0.3c-0.1,0-0.2,0-0.3,0.1
		C75.8,12.2,75.8,12.3,75.9,12.4z"/>
	<path class="st1" d="M74,11.4C74,11.4,74.1,11.5,74,11.4c0.1,0,0.2,0,0.2-0.1s0-0.2-0.1-0.2s-0.2,0-0.2,0.1S73.9,11.4,74,11.4z"/>
	<path class="st1" d="M76.9,13C76.9,13,77,13,76.9,13c0.1-0.2,0.1-0.3,0.1-0.4c-0.1,0-0.2,0-0.3,0c0,0.1,0,0.2,0,0.3
		C76.8,13,76.8,13,76.9,13z"/>
	<path class="st1" d="M75,11.9L75,11.9c0.1,0,0.2,0,0.2-0.1s0-0.2-0.1-0.2s-0.2,0-0.2,0.1C74.8,11.7,74.9,11.8,75,11.9z"/>
	<path class="st1" d="M79.2,15C79.2,15,79.3,15,79.2,15L79.2,15l0.2,0.1c0.1-0.1,0.1-0.2,0-0.3l0,0l0,0c-0.1-0.1-0.2-0.1-0.3,0
		C79.2,14.8,79.2,14.9,79.2,15L79.2,15z"/>
	<path class="st1" d="M77.7,13.6C77.7,13.6,77.8,13.6,77.7,13.6c0.2-0.2,0.1-0.3,0.1-0.4s-0.2,0-0.3,0c-0.1,0.1,0,0.2,0,0.3
		C77.7,13.6,77.7,13.6,77.7,13.6z"/>
	<path class="st1" d="M80.1,15.9L80.1,15.9c0.2-0.1,0.2-0.2,0.1-0.3c-0.1-0.1-0.2-0.1-0.3,0s-0.1,0.2,0,0.3
		C80,15.8,80.1,15.9,80.1,15.9z"/>
	<path class="st1" d="M78.6,14.3C78.6,14.3,78.7,14.3,78.6,14.3c0.2-0.2,0.1-0.3,0.1-0.4c-0.1-0.1-0.2,0-0.3,0s0,0.2,0,0.3
		C78.5,14.3,78.5,14.3,78.6,14.3z"/>
	<path class="st1" d="M52.3,17.9C52.3,18,52.3,18,52.3,17.9c0.1,0,0.2,0,0.2,0c0-0.1,0-0.2,0-0.3c-0.1,0-0.2,0-0.3,0
		C52.2,17.8,52.2,17.9,52.3,17.9z"/>
	<path class="st1" d="M72.5,43.5c-0.1,0-0.1,0.1-0.1,0.2s0.1,0.1,0.2,0.1l0,0c0.1,0,0.1-0.1,0.1-0.2S72.6,43.5,72.5,43.5z"/>
	<path class="st1" d="M71.5,43.8c-0.1,0-0.2,0.1-0.1,0.2c0,0.1,0.1,0.1,0.2,0.1l0,0c0.1,0,0.2-0.1,0.1-0.2
		C71.7,43.9,71.6,43.8,71.5,43.8z"/>
	<path class="st1" d="M70.4,44c-0.1,0-0.2,0.1-0.1,0.2c0,0.1,0.1,0.1,0.2,0.1l0,0c0.1,0,0.2-0.1,0.1-0.2C70.6,44.1,70.5,44,70.4,44z
		"/>
	<path class="st1" d="M73.5,43.1c-0.1,0-0.1,0.1-0.1,0.2s0.1,0.1,0.2,0.1c0,0,0,0,0.1,0s0.1-0.1,0.1-0.2
		C73.7,43.2,73.6,43.1,73.5,43.1z"/>
	<path class="st1" d="M51.7,18.8C51.8,18.9,51.8,18.9,51.7,18.8c0.2,0,0.2,0,0.3-0.1c0-0.1,0-0.2-0.1-0.2s-0.2,0-0.2,0.1l0,0
		C51.6,18.7,51.6,18.8,51.7,18.8z"/>
	<path class="st1" d="M75.4,42.2c-0.1,0-0.1,0.2-0.1,0.2c0,0.1,0.1,0.1,0.2,0.1c0,0,0,0,0.1,0s0.1-0.2,0.1-0.2
		C75.6,42.2,75.5,42.2,75.4,42.2z"/>
	<path class="st1" d="M74.5,42.7c-0.1,0-0.1,0.1-0.1,0.2s0.1,0.1,0.2,0.1c0,0,0,0,0.1,0s0.1-0.1,0.1-0.2
		C74.6,42.7,74.6,42.7,74.5,42.7z"/>
	<path class="st1" d="M77.2,41.1c-0.1,0-0.1,0.2,0,0.3l0.1,0.1h0.1c0.1-0.1,0.1-0.2,0-0.3C77.4,41.1,77.3,41.1,77.2,41.1z"/>
	<path class="st1" d="M66.2,44.4c-0.1,0-0.2,0.1-0.2,0.2s0.1,0.2,0.2,0.2l0,0c0.1,0,0.2-0.1,0.2-0.2S66.3,44.4,66.2,44.4z"/>
	<path class="st1" d="M65.1,44.3c-0.1,0-0.2,0.1-0.2,0.2s0.1,0.2,0.2,0.2l0,0c0.1,0,0.2-0.1,0.2-0.2S65.3,44.3,65.1,44.3z"/>
	<path class="st1" d="M63.1,43.9c-0.1,0-0.2,0-0.2,0.1s0,0.2,0.1,0.2l0,0c0.1,0,0.2,0,0.2-0.1S63.2,44,63.1,43.9z"/>
	<path class="st1" d="M68.3,44.4c-0.1,0-0.2,0.1-0.2,0.2s0.1,0.2,0.2,0.2l0,0c0.1,0,0.2-0.1,0.2-0.2C68.5,44.4,68.4,44.3,68.3,44.4z
		"/>
	<path class="st1" d="M67.3,44.4c-0.1,0-0.2,0.1-0.2,0.2s0.1,0.2,0.2,0.2l0,0c0.1,0,0.2-0.1,0.2-0.2C67.4,44.5,67.4,44.4,67.3,44.4z
		"/>
	<path class="st1" d="M69.4,44.2c-0.1,0-0.2,0.1-0.2,0.2s0.1,0.2,0.2,0.2l0,0c0.1,0,0.2-0.1,0.2-0.2S69.5,44.2,69.4,44.2z"/>
	<path class="st1" d="M64.1,44.1c-0.1,0-0.2,0-0.2,0.1s0,0.2,0.1,0.2l0,0c0.1,0,0.2-0.1,0.2-0.1C64.3,44.3,64.2,44.2,64.1,44.1z"/>
	<path class="st1" d="M82.8,34.6c-0.1,0-0.2,0-0.2,0.1s0,0.2,0.1,0.2c0,0,0,0,0.1,0s0.1,0,0.2-0.1C82.9,34.7,82.9,34.6,82.8,34.6z"
		/>
	<path class="st1" d="M83.2,33.6c-0.1,0-0.2,0-0.2,0.1s0,0.2,0.1,0.2c0,0,0,0,0.1,0s0.1,0,0.2-0.1C83.4,33.7,83.3,33.6,83.2,33.6z"
		/>
	<path class="st1" d="M83.9,31.6c-0.1,0-0.2,0-0.2,0.1s0,0.2,0.1,0.2l0,0c0.1,0,0.1,0,0.2-0.1C84,31.7,84,31.6,83.9,31.6z"/>
	<path class="st1" d="M78,40.5c-0.1,0.1-0.1,0.2,0,0.3l0.1,0.1h0.1c0.1-0.1,0.1-0.2,0-0.3C78.2,40.4,78.1,40.4,78,40.5z"/>
	<path class="st1" d="M84.1,30.5c-0.1,0-0.2,0-0.2,0.1s0,0.2,0.1,0.2l0,0c0.1,0,0.2,0,0.2-0.1C84.3,30.6,84.2,30.5,84.1,30.5z"/>
	<path class="st1" d="M84.4,28.4c-0.1,0-0.2,0.1-0.2,0.2s0.1,0.2,0.2,0.2l0,0c0.1,0,0.2-0.1,0.2-0.2S84.5,28.4,84.4,28.4z"/>
	<path class="st1" d="M84.3,29.4c-0.1,0-0.2,0-0.2,0.2c0,0.1,0,0.2,0.2,0.2l0,0c0.1,0,0.2-0.1,0.2-0.2
		C84.5,29.5,84.4,29.5,84.3,29.4z"/>
	<path class="st1" d="M83.6,32.6c-0.1,0-0.2,0-0.2,0.1s0,0.2,0.1,0.2l0,0c0.1,0,0.1,0,0.2-0.1C83.7,32.7,83.7,32.6,83.6,32.6z"/>
	<path class="st1" d="M82.3,35.5c-0.1,0-0.2,0-0.2,0.1s0,0.2,0.1,0.2c0,0,0,0,0.1,0s0.1,0,0.2-0.1C82.4,35.7,82.4,35.6,82.3,35.5z"
		/>
	<path class="st1" d="M79.6,39c-0.1,0.1-0.1,0.2,0,0.3h0.1h0.1c0.1-0.1,0.1-0.2,0-0.3C79.8,38.9,79.6,38.9,79.6,39z"/>
	<path class="st1" d="M78.8,39.7c-0.1,0.1-0.1,0.2,0,0.3h0.1H79c0.1-0.1,0.1-0.2,0-0.3C79,39.7,78.9,39.7,78.8,39.7z"/>
	<path class="st1" d="M80.3,38.2c-0.1,0.1,0,0.2,0,0.3h0.1c0,0,0.1,0,0.1-0.1c0.1-0.1,0-0.2,0-0.3C80.5,38.1,80.3,38.1,80.3,38.2z"
		/>
	<path class="st1" d="M80.9,37.4c0,0.1,0,0.2,0,0.3H81c0,0,0.1,0,0.1-0.1s0-0.2,0-0.3C81.1,37.3,81,37.3,80.9,37.4z"/>
	<path class="st1" d="M81.8,36.4c-0.1,0-0.2,0-0.3,0c0,0.1,0,0.2,0,0.3h0.1c0.1,0,0.1,0,0.2-0.1C81.9,36.6,81.9,36.5,81.8,36.4z"/>
	<path class="st1" d="M76.3,41.7c-0.1,0-0.1,0.2,0,0.3l0.1,0.1h0.1c0.1,0,0.1-0.2,0-0.3C76.5,41.7,76.4,41.6,76.3,41.7z"/>
	<path class="st1" d="M49.7,29.2c0.1,0,0.2-0.1,0.2-0.2s-0.1-0.2-0.2-0.2s-0.2,0.1-0.2,0.2S49.6,29.2,49.7,29.2L49.7,29.2z"/>
	<path class="st1" d="M49.7,28.2c0.1,0,0.2-0.1,0.2-0.2s-0.1-0.2-0.2-0.2c-0.1,0-0.2,0.1-0.2,0.2C49.5,28.1,49.6,28.2,49.7,28.2
		L49.7,28.2z"/>
	<path class="st1" d="M49.6,27.1c0.1,0,0.2-0.1,0.2-0.2s-0.1-0.2-0.2-0.2c-0.1,0-0.2,0.1-0.2,0.2C49.5,27,49.5,27.1,49.6,27.1z"/>
	<path class="st1" d="M50.6,33c-0.1,0-0.1,0.1-0.1,0.2s0.1,0.1,0.2,0.1c0,0,0,0,0.1,0s0.1-0.1,0.1-0.2C50.8,33,50.7,33,50.6,33z"/>
	<path class="st1" d="M50.5,32.1c0-0.1-0.1-0.1-0.2-0.1s-0.1,0.1-0.1,0.2s0.1,0.1,0.2,0.1l0,0C50.5,32.3,50.6,32.2,50.5,32.1z"/>
	<path class="st1" d="M50.3,31.1c0-0.1-0.1-0.2-0.2-0.1c-0.1,0-0.2,0.1-0.1,0.2c0,0.1,0.1,0.1,0.2,0.1l0,0
		C50.2,31.3,50.3,31.2,50.3,31.1z"/>
	<path class="st1" d="M50.1,30.1c0-0.1-0.1-0.2-0.2-0.1c-0.1,0-0.2,0.1-0.1,0.2c0,0.1,0.1,0.1,0.2,0.1l0,0
		C50,30.3,50.1,30.2,50.1,30.1z"/>
	<path class="st1" d="M49.7,26L49.7,26c0.1,0,0.2-0.1,0.2-0.2s-0.1-0.2-0.2-0.2s-0.2,0.1-0.2,0.2S49.6,26,49.7,26z"/>
	<path class="st1" d="M50.8,20.8C50.9,20.8,50.9,20.8,50.8,20.8c0.1,0,0.2,0,0.2-0.1s0-0.2-0.1-0.2s-0.2,0-0.2,0.1
		C50.7,20.6,50.7,20.8,50.8,20.8z"/>
	<path class="st1" d="M50.5,21.8L50.5,21.8c0.1,0,0.2,0,0.2-0.1s0-0.2-0.1-0.2s-0.2,0-0.2,0.1C50.3,21.7,50.4,21.8,50.5,21.8z"/>
	<path class="st1" d="M51.2,19.8C51.3,19.8,51.3,19.8,51.2,19.8c0.1,0,0.2,0,0.2-0.1s0-0.2-0.1-0.2s-0.2,0-0.2,0.1
		S51.2,19.8,51.2,19.8z"/>
	<path class="st1" d="M49.9,23.9C50,23.9,50,23.9,49.9,23.9c0.1,0,0.2,0,0.2-0.1s0-0.2-0.1-0.2s-0.2,0-0.2,0.1S49.8,23.9,49.9,23.9z
		"/>
	<path class="st1" d="M50.2,22.8L50.2,22.8c0.1,0,0.2,0,0.2-0.1s0-0.2-0.1-0.2s-0.2,0-0.2,0.1C50,22.7,50.1,22.8,50.2,22.8z"/>
	<path class="st1" d="M49.8,24.9L49.8,24.9c0.1,0,0.2-0.1,0.2-0.2s0-0.2-0.2-0.2c-0.1,0-0.2,0-0.2,0.2
		C49.6,24.8,49.7,24.9,49.8,24.9z"/>
	<path class="st1" d="M60.1,42.9c-0.1,0-0.2,0-0.2,0.1s0,0.2,0.1,0.2c0,0,0,0,0.1,0s0.1,0,0.2-0.1C60.2,43.1,60.1,43,60.1,42.9z"/>
	<path class="st1" d="M57,41.4c0,0.1,0,0.2,0,0.3h0.1c0,0,0.1,0,0.1-0.1s0-0.2,0-0.3C57.2,41.3,57.1,41.4,57,41.4z"/>
	<path class="st1" d="M51,34c-0.1,0-0.1,0.1-0.1,0.2s0.1,0.1,0.2,0.1c0,0,0,0,0.1,0s0.1-0.1,0.1-0.2C51.2,34,51.1,34,51,34z"/>
	<path class="st1" d="M56.2,40.8c-0.1,0.1,0,0.2,0,0.3h0.1c0,0,0.1,0,0.1-0.1c0.1-0.1,0-0.2,0-0.3C56.3,40.7,56.2,40.7,56.2,40.8z"
		/>
	<path class="st1" d="M55.3,40.1c-0.1,0.1,0,0.2,0,0.3h0.1c0,0,0.1,0,0.1-0.1c0.1-0.1,0-0.2,0-0.3C55.5,40,55.4,40,55.3,40.1z"/>
	<path class="st1" d="M59.1,42.5c-0.1,0-0.2,0-0.2,0.1s0,0.2,0.1,0.2c0,0,0,0,0.1,0s0.1,0,0.2-0.1C59.2,42.6,59.2,42.5,59.1,42.5z"
		/>
	<path class="st1" d="M61,43.3c-0.1,0-0.2,0-0.2,0.1s0,0.2,0.1,0.2c0,0,0,0,0.1,0s0.1,0,0.2-0.1C61.2,43.5,61.1,43.4,61,43.3z"/>
	<path class="st1" d="M62,43.7c-0.1,0-0.2,0-0.2,0.1s0,0.2,0.1,0.2l0,0c0.1,0,0.1,0,0.2-0.1S62.1,43.7,62,43.7z"/>
	<path class="st1" d="M58.2,42c-0.1,0-0.2,0-0.3,0.1c0,0.1,0,0.2,0.1,0.3h0.1c0.1,0,0.1,0,0.2-0.1C58.3,42.1,58.3,42,58.2,42z"/>
	<path class="st1" d="M52.2,36c0-0.1-0.2-0.1-0.2-0.1c-0.1,0-0.1,0.2-0.1,0.2s0.1,0.1,0.2,0.1h0.1C52.3,36.2,52.3,36.1,52.2,36
		L52.2,36z"/>
	<path class="st1" d="M54.8,39.4c-0.1-0.1-0.2-0.1-0.3,0s-0.1,0.2,0,0.3h0.1h0.1C54.9,39.6,54.9,39.4,54.8,39.4L54.8,39.4z"/>
	<path class="st1" d="M52.6,36.9c-0.1,0-0.1,0.2,0,0.3l0.1,0.1h0.1c0.1,0,0.1-0.2,0-0.3C52.7,36.8,52.6,36.8,52.6,36.9z"/>
	<path class="st1" d="M51.5,35c-0.1,0-0.1,0.2-0.1,0.2c0,0.1,0.1,0.1,0.2,0.1c0,0,0,0,0.1,0s0.1-0.2,0.1-0.2
		C51.7,35,51.6,35,51.5,35z"/>
	<path class="st1" d="M53.2,37.7c-0.1,0.1-0.1,0.2,0,0.3l0.1,0.1h0.1c0.1-0.1,0.1-0.2,0-0.3C53.4,37.7,53.2,37.7,53.2,37.7z"/>
	<path class="st1" d="M53.8,38.6c-0.1,0.1-0.1,0.2,0,0.3l0.1,0.1H54c0.1-0.1,0.1-0.2,0-0.3C54,38.5,53.9,38.5,53.8,38.6z"/>
</g>
<g>
	<path class="st0" d="M60.6,22.6c0,0.5,0.1,1,0.5,1.4s0.7,0.7,1.2,1s1,0.6,1.5,1s1,0.7,1.5,1c0.5,0.4,0.9,0.9,1.2,1.4
		s0.5,1.2,0.5,1.9c0,0.5-0.1,1-0.3,1.4s-0.4,0.8-0.8,1.1s-0.7,0.6-1.2,0.8s-1,0.3-1.5,0.3s-0.9,0-1.3-0.1s-0.6-0.2-0.9-0.3
		c-0.3-0.1-0.5-0.3-0.7-0.5c-0.1,0.2-0.2,0.4-0.4,0.5c-0.2,0.2-0.4,0.3-0.5,0.3h-0.3c0-0.2,0-0.4,0-0.6s0-0.4,0-0.6s0-0.4,0-0.6
		s0-0.4,0-0.6s0-0.4,0-0.6s0-0.4,0-0.6h0.3c0.3,1.1,0.7,1.9,1.3,2.4c0.6,0.6,1.3,0.8,2.3,0.8c0.8,0,1.4-0.2,1.9-0.7s0.7-1.2,0.7-2
		c0-0.5-0.1-1-0.5-1.4c-0.3-0.4-0.7-0.7-1.2-1s-1-0.6-1.5-1s-1-0.7-1.5-1c-0.5-0.4-0.9-0.9-1.2-1.4s-0.5-1.2-0.5-1.9
		c0-0.4,0.1-0.9,0.3-1.2c0.2-0.4,0.4-0.7,0.7-1s0.6-0.5,1-0.7s0.8-0.3,1.3-0.3c0.4,0,0.7,0,1,0.1s0.5,0.2,0.8,0.3
		c0.2,0.1,0.5,0.3,0.6,0.5c0.1-0.2,0.2-0.4,0.4-0.5c0.2-0.2,0.4-0.3,0.5-0.3h0.3c0,0.2,0,0.4,0,0.6s0,0.4,0,0.6s0,0.4,0,0.6
		s0,0.4,0,0.6s0,0.4,0,0.6s0,0.4,0,0.6h-0.3c-0.3-1.1-0.7-1.9-1.2-2.4c-0.5-0.6-1.2-0.8-1.9-0.8c-0.6,0-1.2,0.2-1.6,0.7
		C60.8,21.3,60.6,21.9,60.6,22.6z"/>
	<path class="st0" d="M65.8,20.3v-0.2h4.1v0.2l-1.2,0.3l3.1,10.1l2.7-9.9l-1.3-0.5v-0.2h2.9v0.2l-1.3,0.5l-3.6,13.1h-0.3l-4-13.3
		L65.8,20.3z"/>
</g>
<g>
	<path class="st0" d="M33.6,81.5v0.4c-0.3,0.2-0.7,0.4-1.1,0.4c-0.2,0-0.4,0-0.6-0.1c-0.2-0.1-0.4-0.2-0.5-0.3s-0.3-0.3-0.4-0.5
		s-0.1-0.4-0.1-0.7c0-0.2,0-0.4,0.1-0.6s0.2-0.4,0.3-0.5s0.3-0.3,0.5-0.4c0.2-0.1,0.4-0.1,0.6-0.1c0.2,0,0.4,0,0.6,0.1
		c0.2,0,0.4,0.1,0.5,0.3v0.4c-0.3-0.3-0.7-0.5-1.1-0.5c-0.2,0-0.4,0-0.5,0.1c-0.2,0.1-0.3,0.2-0.4,0.3c-0.1,0.1-0.2,0.3-0.3,0.5
		s-0.1,0.3-0.1,0.5c0,0.3,0,0.5,0.2,0.7s0.3,0.4,0.5,0.5s0.4,0.2,0.6,0.2c0.2,0,0.4,0,0.6-0.1C33.3,81.8,33.5,81.7,33.6,81.5z"/>
	<path class="st0" d="M34.6,82.1v-2.9h-0.8V79h2v0.2H35v2.9H34.6z"/>
	<path class="st0" d="M36.5,82.1l0.4-1l-1.1-2.2h0.3l1,1.9l0.8-1.9h0.3L36.8,82L36.5,82.1L36.5,82.1z"/>
	<path class="st0" d="M38.9,79h1.7v2.9H41v0.9h-0.3v-0.6h-2.2v0.6h-0.3v-0.9c0.2,0,0.4-0.1,0.5-0.3s0.1-0.5,0.1-0.9
		C38.9,80.7,38.9,79,38.9,79z M39.2,79.3v1.4c0,0.2,0,0.4,0,0.5s0,0.3-0.1,0.4c0,0.1-0.1,0.2-0.2,0.3h1.5v-2.6L39.2,79.3L39.2,79.3z
		"/>
	<path class="st0" d="M41.4,79h0.3v2.5l2.1-2.6v3.2h-0.3v-2.5l-2.1,2.6V79z"/>
	<path class="st0" d="M44.5,82.1l0.9-1.4c-0.1,0-0.3,0-0.4-0.1c-0.1-0.1-0.3-0.2-0.3-0.3c-0.1-0.1-0.1-0.3-0.1-0.5
		c0-0.1,0-0.2,0-0.3s0.1-0.2,0.2-0.3c0.1-0.1,0.2-0.2,0.3-0.2s0.3-0.1,0.5-0.1h0.7V82H46v-1.4h-0.3L44.9,82L44.5,82.1L44.5,82.1z
		 M46,80.5v-1.2h-0.4c-0.2,0-0.4,0-0.5,0.1c-0.2,0.1-0.2,0.2-0.2,0.5c0,0.4,0.2,0.6,0.7,0.6L46,80.5L46,80.5z"/>
	<path class="st0" d="M48.9,79h1.7v2.9H51v0.9h-0.3v-0.6h-2.2v0.6h-0.3v-0.9c0.2,0,0.4-0.1,0.5-0.3s0.1-0.5,0.1-0.9
		C48.9,80.7,48.9,79,48.9,79z M49.2,79.3v1.4c0,0.2,0,0.4,0,0.5s0,0.3-0.1,0.4c0,0.1-0.1,0.2-0.2,0.3h1.5v-2.6L49.2,79.3L49.2,79.3z
		"/>
	<path class="st0" d="M51.3,80.6c0-0.2,0-0.4,0.1-0.6c0.1-0.2,0.2-0.4,0.3-0.5s0.3-0.3,0.5-0.4c0.2-0.1,0.4-0.1,0.7-0.1
		s0.5,0,0.7,0.1s0.4,0.2,0.5,0.4c0.1,0.1,0.3,0.3,0.3,0.5c0.1,0.2,0.1,0.4,0.1,0.6c0,0.2,0,0.4-0.1,0.6c-0.1,0.2-0.2,0.4-0.3,0.5
		s-0.3,0.3-0.5,0.4s-0.4,0.1-0.7,0.1s-0.5,0-0.7-0.1s-0.4-0.2-0.5-0.4c-0.1-0.1-0.3-0.3-0.3-0.5C51.3,81,51.3,80.8,51.3,80.6z
		 M51.6,80.6c0,0.2,0,0.4,0.1,0.5c0.1,0.2,0.2,0.3,0.3,0.5s0.3,0.2,0.4,0.3c0.2,0.1,0.4,0.1,0.5,0.1c0.2,0,0.4,0,0.6-0.1
		c0.2-0.1,0.3-0.2,0.4-0.3c0.1-0.1,0.2-0.3,0.3-0.5s0.1-0.4,0.1-0.5c0-0.2,0-0.4-0.1-0.5c-0.1-0.2-0.2-0.3-0.3-0.5
		c-0.1-0.1-0.3-0.2-0.4-0.3c-0.2-0.1-0.4-0.1-0.6-0.1c-0.2,0-0.4,0-0.6,0.1c-0.2,0.1-0.3,0.2-0.4,0.3c-0.1,0.1-0.2,0.3-0.3,0.5
		C51.6,80.2,51.6,80.4,51.6,80.6z"/>
	<path class="st0" d="M57.9,81.5v0.4c-0.3,0.2-0.7,0.4-1.1,0.4c-0.2,0-0.4,0-0.6-0.1c-0.2-0.1-0.4-0.2-0.5-0.3s-0.3-0.3-0.4-0.5
		s-0.1-0.4-0.1-0.7c0-0.2,0-0.4,0.1-0.6s0.2-0.4,0.3-0.5s0.3-0.3,0.5-0.4c0.2-0.1,0.4-0.1,0.6-0.1s0.4,0,0.6,0.1
		c0.2,0,0.4,0.1,0.5,0.3v0.4c-0.3-0.3-0.7-0.5-1.1-0.5c-0.2,0-0.4,0-0.5,0.1c-0.2,0.1-0.3,0.2-0.4,0.3c-0.1,0.1-0.2,0.3-0.3,0.5
		s-0.1,0.3-0.1,0.5c0,0.3,0,0.5,0.2,0.7c0.1,0.2,0.3,0.4,0.5,0.5s0.4,0.2,0.6,0.2c0.2,0,0.4,0,0.6-0.1
		C57.5,81.8,57.7,81.7,57.9,81.5z"/>
	<path class="st0" d="M58.8,82.1v-2.9H58V79h2v0.2h-0.8v2.9H58.8z"/>
	<path class="st0" d="M60.7,82.1l0.4-1L60,78.9h0.3l1,1.9l0.8-1.9h0.3L61,82L60.7,82.1L60.7,82.1z"/>
	<path class="st0" d="M62.8,82.1V79h2.4v3.1h-0.3v-2.9h-1.8v2.9H62.8z"/>
	<path class="st0" d="M66,82.1V79h0.3v1.3h1.8V79h0.3v3.1h-0.3v-1.6h-1.8v1.6H66z"/>
	<path class="st0" d="M69,80.6c0-0.2,0-0.4,0.1-0.6c0.1-0.2,0.2-0.4,0.3-0.5s0.3-0.3,0.5-0.4c0.2-0.1,0.4-0.1,0.7-0.1s0.5,0,0.7,0.1
		s0.4,0.2,0.5,0.4c0.1,0.1,0.3,0.3,0.3,0.5c0.1,0.2,0.1,0.4,0.1,0.6c0,0.2,0,0.4-0.1,0.6c-0.1,0.2-0.2,0.4-0.3,0.5s-0.3,0.3-0.5,0.4
		s-0.4,0.1-0.7,0.1s-0.5,0-0.7-0.1s-0.4-0.2-0.5-0.4c-0.1-0.1-0.3-0.3-0.3-0.5C69.1,81,69,80.8,69,80.6z M69.3,80.6
		c0,0.2,0,0.4,0.1,0.5c0.1,0.2,0.2,0.3,0.3,0.5c0.1,0.1,0.3,0.2,0.4,0.3c0.2,0.1,0.4,0.1,0.5,0.1c0.2,0,0.4,0,0.6-0.1
		c0.2-0.1,0.3-0.2,0.4-0.3c0.1-0.1,0.2-0.3,0.3-0.5s0.1-0.4,0.1-0.5c0-0.2,0-0.4-0.1-0.5c-0.1-0.2-0.2-0.3-0.3-0.5
		c-0.1-0.1-0.3-0.2-0.4-0.3c-0.2-0.1-0.4-0.1-0.6-0.1s-0.4,0-0.6,0.1c-0.2,0.1-0.3,0.2-0.4,0.3c-0.1,0.1-0.2,0.3-0.3,0.5
		C69.3,80.2,69.3,80.4,69.3,80.6z"/>
	<path class="st0" d="M73,79h0.3v2.5l2.1-2.6v3.2h-0.3v-2.5L73,82.2V79z M73.6,78.4l0.2-0.1c0,0.1,0.1,0.1,0.1,0.2
		c0.1,0,0.2,0.1,0.2,0.1c0.2,0,0.3-0.1,0.4-0.3l0.2,0.1c-0.1,0.1-0.2,0.3-0.3,0.3s-0.2,0.1-0.4,0.1s-0.2,0-0.4-0.1
		C73.7,78.7,73.6,78.6,73.6,78.4z"/>
	<path class="st0" d="M78,79h1.7v2.9h0.4v0.9h-0.3v-0.6h-2.2v0.6h-0.2v-0.9c0.2,0,0.4-0.1,0.5-0.3s0.1-0.5,0.1-0.9V79z M78.3,79.3
		v1.4c0,0.2,0,0.4,0,0.5s0,0.3-0.1,0.4c0,0.1-0.1,0.2-0.2,0.3h1.5v-2.6L78.3,79.3L78.3,79.3z"/>
	<path class="st0" d="M80.6,82.1V79h1.7v0.2h-1.4v1h1.3v0.2h-1.3v1.4h1.4V82L80.6,82.1L80.6,82.1z"/>
	<path class="st0" d="M82.8,82.1V79h2.4v3.1h-0.3v-2.9h-1.8v2.9H82.8z"/>
	<path class="st0" d="M86,79h0.3v2.5l2.1-2.6v3.2h-0.3v-2.5L86,82.2V79z"/>
	<path class="st0" d="M89.5,79h1.7v3.1h-0.3v-2.9h-1.1v1.7c0,0.2,0,0.4,0,0.5s0,0.3-0.1,0.4c0,0.1-0.1,0.2-0.2,0.2
		c-0.1,0-0.2,0.1-0.4,0.1c0,0-0.1,0-0.2,0v-0.2c0.1,0,0.1,0,0.2,0c0.1,0,0.3,0,0.4-0.1c0.1-0.1,0.1-0.2,0.1-0.3s0-0.3,0-0.5v-2H89.5
		z"/>
	<path class="st0" d="M91.9,82.1l0.9-1.4c-0.1,0-0.3,0-0.4-0.1c-0.1-0.1-0.3-0.2-0.3-0.3C92,80.2,92,80,92,79.8c0-0.1,0-0.2,0-0.3
		s0.1-0.2,0.2-0.3s0.2-0.2,0.3-0.2s0.3-0.1,0.5-0.1h0.7V82h-0.3v-1.4h-0.3L92.3,82L91.9,82.1L91.9,82.1z M93.4,80.5v-1.2H93
		c-0.2,0-0.4,0-0.5,0.1c-0.2,0.1-0.2,0.2-0.2,0.5c0,0.4,0.2,0.6,0.7,0.6L93.4,80.5L93.4,80.5z"/>
	<path class="st0" d="M94.4,82.1V79h0.3v2.9h1.8V79h0.3v2.9h0.4v0.9h-0.3v-0.6L94.4,82.1L94.4,82.1z"/>
	<path class="st0" d="M97.6,79h0.3v2.5l2.1-2.6v3.2h-0.3v-2.5l-2.1,2.6V79z"/>
	<path class="st0" d="M100.8,79h0.3v2.5l2.1-2.6v3.2h-0.3v-2.5l-2.1,2.6V79z"/>
</g>
<rect y="-26.1" class="st2" width="134.9" height="134.9"/>
</svg>
