<?xml version="1.0" encoding="UTF-8"?>
<!DOCTYPE svg PUBLIC "-//W3C//DTD SVG 1.1//EN" "http://www.w3.org/Graphics/SVG/1.1/DTD/svg11.dtd">
<!-- Creator: CorelDRAW X7 -->
<svg xmlns="http://www.w3.org/2000/svg" xml:space="preserve" width="1035px" height="723px" version="1.1" style="shape-rendering:geometricPrecision; text-rendering:geometricPrecision; image-rendering:optimizeQuality; fill-rule:evenodd; clip-rule:evenodd"
viewBox="0 0 63675 44507"
 xmlns:xlink="http://www.w3.org/1999/xlink">
 <defs>
  <style type="text/css">
   <![CDATA[
    .fil0 {fill:#2B2A29}
    .fil1 {fill:black}
    .fil2 {fill:#9A8111}
    .fil3 {fill:white}
   ]]>
  </style>
 </defs>
 <g id="Слой_x0020_1">
  <metadata id="CorelCorpID_0Corel-Layer"/>
  <g id="_1768735554336">
   <circle class="fil0" cx="31646" cy="14606" r="7836"/>
   <path class="fil1" d="M971 32700c0,345 102,652 307,907 204,256 460,486 767,703 306,217 639,422 1009,626 358,205 703,435 1010,703 306,256 562,562 766,920 205,358 307,780 307,1278 0,332 -64,652 -179,933 -115,294 -294,549 -511,754 -217,217 -473,383 -779,498 -294,115 -627,179 -972,179 -319,0 -600,-38 -830,-102 -230,-64 -422,-141 -575,-230 -179,-90 -333,-205 -448,-320 -63,128 -166,243 -281,358 -115,115 -242,179 -370,217l-192 0c13,-115 13,-242 26,-383 12,-115 12,-230 25,-371 13,-140 13,-268 13,-396 0,-140 0,-294 -13,-434 -13,-141 -13,-269 -25,-396 -13,-141 -13,-269 -26,-397l192 1c191,715 485,1252 856,1622 370,371 882,563 1520,563 512,0 933,-166 1253,-499 319,-332 485,-779 485,-1367 0,-345 -102,-652 -306,-907 -205,-256 -460,-486 -767,-703 -307,-217 -639,-422 -1010,-626 -357,-205 -702,-435 -1009,-703 -307,-256 -562,-562 -767,-920 -204,-345 -307,-780 -307,-1278 0,-294 52,-562 167,-818 115,-255 268,-485 460,-677 191,-192 421,-345 690,-460 268,-115 549,-166 856,-166 255,0 485,38 677,102 192,64 358,141 498,217 154,90 294,205 422,320 64,-128 166,-243 281,-358 115,-115 243,-179 371,-217l192 0c-13,128 -26,255 -39,383 -12,115 -12,243 -25,383 0,128 0,269 0,397 0,140 0,294 0,434 0,141 13,268 25,396 13,141 26,269 39,396l-192 0c-192,-715 -473,-1252 -818,-1623 -345,-370 -779,-562 -1291,-562 -421,0 -766,141 -1047,435 -294,319 -435,703 -435,1188z"/>
   <path class="fil1" d="M8702 37390l-2632 0 -639 2185 830 319 0 128 -1929 0 0 -128 831 -319 2504 -8728 192 0 2696 8856 767 191 0 128 -2697 0 0 -128 767 -191 -690 -2313zm-2568 -243l2491 0 -1277 -4242 -1214 4242z"/>
   <polygon class="fil1" points="12638,35396 12638,39690 13405,39882 13405,40009 10772,40009 10772,39882 11539,39690 11539,31346 10772,31154 10772,31026 13405,31026 13405,31154 12638,31346 12638,35128 15270,35128 15270,31346 14504,31154 14504,31026 17136,31026 17136,31154 16369,31346 16369,39690 17136,39882 17136,40009 14504,40009 14504,39882 15270,39690 15270,35396 "/>
   <path class="fil1" d="M21136 37390l-2633 0 -639 2185 831 319 0 128 -1930 0 0 -128 831 -319 2505 -8728 191 0 2696 8856 767 191 0 128 -2696 0 0 -128 767 -191 -690 -2313zm-2569 -243l2492 0 -1278 -4242 -1214 4242z"/>
   <path class="fil1" d="M25583 31039c549,0 1022,64 1418,179 396,115 741,281 997,485 268,205 460,448 588,716 127,268 191,562 191,869 0,243 -38,473 -115,664 -76,192 -166,358 -281,512 -115,153 -255,281 -409,383 -153,102 -306,192 -460,255 -370,167 -779,269 -1239,307 370,38 715,128 1022,269 268,115 511,293 741,523 230,231 371,550 409,933l256 2249c12,166 51,281 115,345 63,64 127,103 204,103 38,0 89,-13 141,-52 51,-25 89,-63 140,-115 38,-38 77,-102 115,-166l128 128c-51,115 -128,205 -217,294 -77,64 -179,128 -307,192 -128,64 -268,89 -447,89 -294,0 -524,-89 -716,-255 -179,-166 -294,-358 -319,-588l-256 -2249c-38,-294 -89,-537 -166,-741 -77,-205 -179,-371 -319,-499 -128,-128 -307,-217 -512,-281 -204,-64 -447,-89 -741,-89l-511 0 0 4165 767 192 0 128 -2633 0 0 -128 767 -192 0 -8344 -767 -192 0 -127 2416 0 0 38zm1993 2249c0,-639 -166,-1137 -511,-1470 -345,-345 -831,-511 -1470,-511l-511 0 0 3974 511 0c639,0 1138,-166 1470,-511 332,-358 511,-843 511,-1482z"/>
   <path class="fil1" d="M38936 34476l0 90c-243,13 -447,64 -600,153 -154,90 -294,230 -409,422 -115,192 -243,447 -371,779 -141,371 -268,665 -371,882 -102,217 -191,383 -268,511 -77,128 -153,230 -217,332 25,26 153,128 370,345 230,205 422,384 576,524 357,307 638,499 843,588 204,90 409,128 600,141l0 76 -1559 0c-575,-460 -996,-818 -1277,-1086 -192,256 -473,524 -869,805 -384,294 -844,435 -1368,435 -281,0 -549,-51 -779,-141 -243,-102 -447,-230 -626,-422 -179,-178 -320,-383 -422,-613 -102,-230 -140,-460 -140,-703 0,-473 140,-894 434,-1265 294,-370 639,-690 1061,-971l-64 -64c-307,-345 -537,-652 -716,-933 -166,-281 -255,-587 -255,-894 0,-294 76,-588 242,-844 166,-268 384,-472 678,-638 281,-167 613,-243 958,-243 460,0 843,128 1124,383 282,256 435,575 435,958 0,422 -166,793 -486,1125 -332,332 -728,639 -1188,920 166,192 434,486 805,843l728 754c281,294 537,550 754,742 179,-269 371,-665 575,-1163 205,-499 307,-908 307,-1227 0,-205 -51,-345 -166,-409 -102,-64 -243,-102 -409,-102l0 -90 2070 0zm-5239 1048c-690,460 -1035,1010 -1035,1636 0,319 89,613 268,881 179,269 409,473 690,627 281,153 575,230 856,230 256,0 486,-51 691,-141 204,-89 383,-192 523,-307 141,-115 294,-242 435,-396 -281,-268 -511,-485 -652,-639 -153,-153 -306,-319 -485,-485 -166,-179 -345,-358 -524,-563 -179,-204 -448,-472 -767,-843zm447 -575c358,-230 639,-460 856,-715 218,-256 333,-550 333,-908 0,-217 -52,-421 -154,-613 -102,-192 -243,-358 -434,-486 -192,-127 -409,-179 -639,-179 -332,0 -588,103 -767,294 -179,192 -268,435 -268,703 0,179 51,396 166,626 102,243 243,473 409,690 166,205 332,409 498,588z"/>
   <polygon class="fil1" points="39856,31167 39856,31039 42552,31039 42552,31167 41786,31358 43843,38093 45645,31486 44814,31167 44814,31039 46744,31039 46744,31167 45913,31486 43536,40214 43345,40214 40648,31358 "/>
   <path class="fil1" d="M51753 35524c0,792 -90,1470 -268,2058 -179,587 -409,1073 -691,1456 -281,384 -613,677 -971,869 -357,192 -728,294 -1086,294 -370,0 -728,-102 -1086,-294 -358,-192 -677,-485 -971,-869 -281,-383 -524,-882 -690,-1456 -179,-588 -269,-1278 -269,-2058 0,-792 90,-1469 269,-2057 179,-588 409,-1074 690,-1457 281,-383 613,-677 971,-869 358,-192 728,-294 1086,-294 371,0 729,102 1086,294 358,192 678,486 971,869 282,383 512,882 691,1457 178,588 268,1278 268,2057zm-1214 0c0,-882 -51,-1610 -166,-2185 -102,-575 -243,-1035 -422,-1380 -179,-345 -370,-588 -588,-716 -217,-140 -421,-204 -626,-204 -204,0 -409,64 -626,204 -217,141 -409,371 -588,716 -179,345 -319,805 -421,1380 -103,575 -166,1303 -166,2185 0,882 51,1610 166,2185 102,575 242,1035 421,1380 179,345 371,588 588,716 217,141 422,204 626,204 205,0 409,-63 626,-204 218,-141 409,-371 588,-716 179,-345 320,-805 422,-1380 115,-575 166,-1303 166,-2185z"/>
   <path class="fil1" d="M52814 32700c0,345 102,652 306,907 205,256 460,486 767,703 307,217 639,422 1009,626 358,205 703,435 1010,703 307,256 562,562 767,920 204,345 306,780 306,1278 0,332 -63,652 -178,933 -115,294 -294,549 -512,754 -217,217 -472,383 -779,498 -294,115 -626,179 -971,179 -320,0 -601,-38 -831,-102 -230,-64 -422,-141 -575,-230 -179,-90 -332,-205 -447,-320 -64,128 -166,243 -281,358 -115,115 -243,179 -371,217l-192 0c13,-115 13,-242 26,-383 13,-115 13,-230 26,-371 12,-140 12,-268 12,-396 0,-140 0,-294 -12,-434 -13,-141 -13,-269 -26,-396 -13,-141 -13,-269 -26,-397l192 1c192,715 486,1252 856,1622 371,371 882,563 1521,563 511,0 933,-166 1252,-499 320,-332 486,-779 486,-1367 0,-345 -102,-652 -307,-907 -204,-256 -460,-486 -767,-703 -306,-217 -639,-422 -1009,-626 -358,-205 -703,-435 -1010,-703 -306,-256 -562,-562 -766,-920 -205,-345 -307,-780 -307,-1278 0,-294 51,-562 166,-818 115,-255 268,-485 460,-677 192,-192 422,-345 690,-460 268,-115 550,-166 856,-166 256,0 486,38 677,102 192,64 358,141 499,217 153,90 294,205 421,320 64,-128 167,-243 282,-358 115,-115 242,-179 370,-217l192 0c-13,128 -26,255 -38,383 -13,115 -13,243 -26,383 0,128 0,269 0,397 0,140 0,294 0,434 0,141 13,268 26,396 12,141 25,269 38,396l-192 0c-191,-715 -472,-1252 -818,-1623 -345,-370 -779,-562 -1290,-562 -422,0 -767,141 -1048,435 -294,319 -434,703 -434,1188z"/>
   <polygon class="fil1" points="58934,36687 58934,39703 59701,39894 59701,40022 57069,40022 57069,39894 57836,39703 57836,31358 57069,31167 57069,31039 59701,31039 59701,31167 58934,31358 58934,36240 61695,31486 60864,31167 60864,31039 62794,31039 62794,31167 61963,31486 60327,34272 62909,39703 63675,39894 63675,40022 60915,40022 60915,39894 61682,39703 59663,35422 "/>
   <path class="fil2" d="M38016 8229c-1712,-1687 -3974,-2619 -6376,-2619 -2403,0 -4665,932 -6377,2619 -1687,1713 -2620,3974 -2620,6377 0,2402 933,4664 2620,6376 1712,1687 3974,2620 6377,2620 2402,0 4664,-933 6376,-2620 1687,-1712 2620,-3974 2620,-6376 12,-2403 -920,-4664 -2620,-6377zm-128 12625c-1674,1662 -3884,2569 -6248,2569 -2352,0 -4575,-907 -6249,-2569 -1661,-1674 -2569,-3884 -2569,-6248 0,-2352 908,-4575 2569,-6249 1674,-1661 3885,-2568 6249,-2568 2351,0 4574,907 6248,2568 1661,1674 2569,3885 2569,6249 0,2351 -908,4574 -2569,6248z"/>
   <path class="fil2" d="M40418 5840c192,-26 384,-26 575,0 64,-230 115,-460 128,-703 -243,25 -473,64 -703,128 26,191 26,383 0,575z"/>
   <path class="fil2" d="M40418 23372c26,191 26,383 0,575 230,64 460,115 703,128 -25,-243 -64,-473 -128,-703 -191,25 -383,25 -575,0z"/>
   <path class="fil2" d="M22873 23372c-191,25 -383,25 -575,0 -63,230 -115,460 -127,703 242,-26 472,-64 702,-128 -25,-192 -25,-384 0,-575z"/>
   <path class="fil2" d="M22873 5840c-25,-192 -25,-384 0,-575 -229,-64 -460,-115 -702,-128 25,243 64,473 127,703 192,-26 384,-39 575,0z"/>
   <path class="fil2" d="M36700 4140c-26,-166 -51,-332 -102,-498 -154,76 -294,166 -435,281 77,115 128,243 154,383 115,-76 242,-128 383,-166z"/>
   <path class="fil2" d="M21340 9929c-77,-115 -128,-243 -153,-384 -166,26 -333,52 -499,103 77,153 166,294 281,434 116,-64 243,-115 371,-153z"/>
   <path class="fil2" d="M26592 25071c26,166 51,333 102,499 154,-77 294,-166 435,-281 -77,-115 -128,-243 -154,-384 -115,77 -242,128 -383,166z"/>
   <path class="fil2" d="M41952 19283c76,115 128,242 153,383 166,-26 332,-51 499,-102 -77,-154 -167,-294 -282,-435 -115,64 -242,115 -370,154z"/>
   <path class="fil2" d="M42604 9660c-167,-51 -333,-89 -499,-102 -38,128 -89,269 -153,384 128,38 255,89 383,153 102,-141 192,-281 269,-435z"/>
   <path class="fil2" d="M27129 3923c-128,-102 -281,-205 -435,-281 -51,166 -89,332 -102,498 128,38 268,90 383,154 26,-128 90,-256 154,-371z"/>
   <path class="fil2" d="M20688 19551c167,51 333,90 499,102 38,-128 89,-268 153,-383 -128,-38 -255,-90 -383,-154 -102,141 -192,282 -269,435z"/>
   <path class="fil2" d="M36163 25289c128,102 281,204 435,281 51,-166 89,-333 102,-499 -128,-38 -269,-89 -384,-153 -38,128 -89,256 -153,371z"/>
   <path class="fil2" d="M44980 14644c-25,-13 -51,-26 -89,-38 25,-13 64,-26 89,-39 179,-102 320,-268 371,-472 51,-192 38,-397 -64,-550 -102,-153 -268,-255 -447,-255 0,0 -13,0 -13,0 -128,0 -243,102 -243,242 0,128 102,243 243,243 115,0 217,-89 230,-204 26,25 51,51 64,76 64,103 77,256 38,397 -38,153 -153,281 -281,357 -141,77 -307,103 -460,64 -217,-51 -383,-217 -549,-383 -39,-38 -64,-64 -103,-102 -64,-51 -127,-115 -191,-154 64,-153 102,-319 89,-485 -13,-218 -102,-435 -268,-626 -90,-103 -192,-205 -320,-294 90,0 179,-13 269,-51 191,-13 383,-90 536,-205 218,-179 358,-460 358,-754 0,-140 -25,-281 -38,-434 0,-141 25,-294 140,-397 -179,39 -332,167 -409,320 -51,-64 -153,-90 -242,-64 -51,13 -90,26 -128,51 -26,-13 -38,-25 -64,-25 -268,-90 -588,12 -741,230 -13,12 -13,25 -13,38 -13,25 -13,51 -13,89 0,128 102,243 243,243 141,0 243,-102 243,-243 0,-64 -26,-127 -77,-179 102,-38 205,-38 307,0 179,64 319,243 345,448 25,204 -64,409 -230,549 -154,141 -371,205 -588,192 -128,-13 -256,-51 -383,-77 -13,0 -26,0 -39,0 -421,-153 -894,-191 -1341,-102 -115,-434 -256,-856 -422,-1265 51,13 89,13 141,13 89,0 178,-13 268,-51 268,-90 498,-294 601,-537 102,102 166,230 178,358 13,128 -25,243 -102,345 -38,-77 -115,-128 -217,-128 -128,0 -243,102 -243,243 0,128 102,243 243,243 26,0 38,0 64,-13 0,0 13,0 13,0 0,0 12,0 12,0 13,0 13,0 13,-13 256,-115 422,-396 396,-690 -25,-205 -140,-409 -306,-537 38,-217 -26,-447 -154,-613 -179,-217 -498,-307 -754,-205 -12,0 -12,0 -25,13 0,0 -13,0 -13,0 0,0 -13,0 -13,13 -13,13 -38,26 -51,38 -89,90 -89,243 0,345 90,90 243,90 345,0 64,-64 90,-166 51,-243 115,26 230,77 320,179 89,103 128,243 128,397 0,0 -13,0 -13,0 -243,-103 -550,-90 -805,38 -141,77 -256,166 -320,281 -191,-383 -396,-754 -639,-1112 51,13 90,13 141,13 140,0 294,-51 409,-141 115,-89 191,-204 242,-345 0,0 0,13 0,13 13,26 52,39 90,26 115,-13 217,-141 192,-269 127,64 281,52 421,0 128,-51 243,-153 333,-268 -230,115 -537,64 -716,-128 -102,-102 -166,-255 -268,-358 -154,-178 -396,-255 -626,-281 -154,-12 -307,0 -448,26 -89,-13 -191,-13 -281,0 -13,0 -25,0 -38,0 13,-26 13,-51 25,-77 115,-345 345,-664 639,-881 154,-115 409,-256 703,-269 256,-13 511,102 652,281 64,90 102,179 115,269 0,89 -38,179 -102,230 25,-39 38,-77 38,-128 0,-128 -102,-243 -243,-243 -38,0 -76,13 -115,26 -13,0 -25,12 -38,25 -64,51 -90,128 -90,217 0,90 39,179 103,243 115,102 306,115 447,13 115,-89 192,-230 179,-396 0,-166 -90,-294 -154,-384 -178,-230 -485,-357 -805,-345 -230,13 -460,77 -677,218 141,-218 217,-460 217,-678 13,-319 -115,-626 -345,-805 -76,-64 -217,-140 -383,-153 -166,0 -307,64 -396,179 -90,140 -90,332 13,447 51,64 140,102 242,102 0,0 0,0 0,0 90,0 166,-38 218,-89 12,-13 12,-26 25,-38 13,-39 26,-64 26,-115 0,-128 -102,-243 -243,-243 -51,0 -90,13 -128,38 51,-64 141,-102 230,-102 90,0 179,38 269,115 178,140 281,396 281,652 -13,293 -154,549 -269,702 -217,294 -536,524 -881,639 -26,13 -52,13 -77,26 0,-13 0,-26 0,-38 0,-103 0,-192 0,-281 25,-154 38,-294 25,-448 -12,-230 -102,-472 -281,-626 -115,-102 -255,-166 -357,-268 -192,-179 -243,-486 -128,-716 -115,90 -217,205 -269,332 -51,128 -64,294 0,422 -115,-25 -255,64 -268,192 0,38 0,77 26,89 0,0 12,0 12,0 -140,51 -255,141 -345,243 -127,166 -166,371 -127,550 -358,-243 -729,-448 -1112,-639 115,-64 217,-179 281,-320 128,-255 141,-562 38,-805 0,0 0,-13 0,-13 141,0 281,39 396,128 90,77 154,192 179,320 -89,-26 -179,-13 -242,51 -90,89 -90,242 0,345 89,89 242,89 345,0 12,-13 25,-39 38,-51 0,0 0,-13 13,-13 0,0 0,-13 0,-13 0,0 0,-13 12,-26 103,-255 13,-575 -204,-766 -166,-141 -396,-192 -613,-154 -128,-179 -333,-294 -537,-306 -294,-26 -575,140 -690,396 0,0 0,13 -13,13 0,0 0,12 0,12 0,0 0,13 0,13 0,26 -13,38 -13,64 0,128 102,243 243,243 128,0 243,-102 243,-243 0,-89 -51,-179 -128,-217 102,-77 217,-115 345,-102 128,12 256,76 358,178 -243,103 -447,333 -537,601 -51,141 -64,294 -38,409 -409,-166 -831,-307 -1265,-422 89,-447 51,-907 -102,-1341 0,-13 0,-26 0,-39 -39,-128 -77,-255 -77,-383 -13,-217 51,-435 192,-588 140,-166 345,-243 549,-230 205,26 383,166 447,345 39,102 26,205 0,307 -38,-51 -102,-77 -179,-77 -127,0 -242,102 -242,243 0,140 102,243 242,243 26,0 64,0 90,-13 13,0 26,-13 38,-13 230,-153 320,-473 230,-741 -13,-26 -13,-51 -25,-64 25,-38 38,-89 51,-128 13,-89 0,-179 -64,-243 166,-76 281,-230 319,-408 -102,102 -255,140 -396,140 -140,0 -281,-38 -434,-38 -281,0 -575,140 -754,358 -115,153 -192,332 -205,524 -25,89 -38,178 -51,281 -89,-128 -192,-230 -294,-320 -191,-153 -409,-243 -626,-268 -166,-13 -332,13 -485,89 -52,-64 -103,-127 -154,-191 -38,-39 -64,-77 -102,-103 -166,-178 -332,-345 -383,-549 -39,-153 -13,-320 63,-460 77,-141 205,-243 358,-281 141,-39 281,-26 396,38 26,13 52,38 77,64 -115,13 -204,115 -204,230 0,128 102,243 242,243 128,0 243,-102 243,-243 0,0 0,-13 0,-13 0,-179 -89,-345 -255,-447 -154,-90 -358,-115 -550,-64 -192,64 -370,192 -473,371 -12,25 -25,51 -38,89 -13,-25 -26,-64 -38,-89 -102,-179 -269,-320 -473,-371 -192,-51 -396,-38 -549,64 -154,102 -256,268 -256,447 0,0 0,13 0,13 0,128 102,243 243,243 128,0 243,-102 243,-243 0,-115 -90,-217 -205,-230 26,-26 51,-51 77,-64 102,-64 255,-77 396,-38 153,38 281,153 358,281 76,140 102,307 64,460 -52,217 -218,383 -384,549 -38,39 -64,64 -102,103 -51,64 -115,127 -153,191 -154,-64 -320,-102 -486,-89 -217,13 -434,102 -626,268 -102,90 -205,192 -294,320 0,-90 -26,-192 -51,-281 -13,-192 -90,-371 -205,-524 -178,-218 -460,-358 -754,-358 -140,0 -281,25 -434,38 -141,0 -294,-25 -396,-140 38,178 166,332 319,408 -64,52 -89,154 -64,243 13,51 26,90 52,128 -13,26 -26,38 -26,64 -90,268 13,588 230,741 13,13 25,13 38,13 26,13 51,13 90,13 127,0 242,-103 242,-243 0,-141 -102,-243 -242,-243 -64,0 -128,26 -179,77 -39,-102 -39,-205 0,-307 64,-179 243,-319 447,-345 205,-25 409,64 550,230 140,153 204,371 191,588 -13,128 -51,255 -76,383 0,13 0,26 0,39 -154,421 -192,894 -103,1341 -434,115 -856,256 -1265,422 26,-128 13,-268 -38,-409 -89,-268 -294,-498 -537,-601 103,-102 230,-166 358,-178 128,-13 243,25 345,102 -77,38 -128,115 -128,217 0,128 103,243 243,243 128,0 243,-102 243,-243 0,-26 0,-38 -13,-64 0,0 0,-13 0,-13 0,0 0,-12 0,-12 0,-13 0,-13 -13,-13 -115,-256 -396,-422 -690,-396 -204,25 -409,140 -536,306 -218,-38 -448,26 -614,154 -217,179 -306,498 -204,766 0,0 0,13 13,13 0,0 0,13 0,13 0,0 0,13 12,13 13,13 26,38 39,51 89,89 242,89 345,0 89,-90 89,-243 0,-345 -64,-64 -166,-90 -243,-51 25,-115 77,-230 179,-320 102,-89 242,-128 396,-128 0,0 0,13 0,13 -102,243 -90,550 38,805 77,141 166,256 281,320 -383,191 -754,396 -1111,639 38,-179 0,-396 -128,-550 -90,-115 -205,-191 -345,-242 0,0 13,0 13,0 25,-13 38,-52 25,-90 -13,-115 -140,-217 -268,-192 64,-127 51,-281 0,-421 -51,-128 -154,-243 -269,-333 115,230 64,537 -127,716 -103,102 -256,166 -358,268 -179,154 -256,396 -281,626 -13,154 0,307 25,448 -12,89 -12,191 0,281 0,13 0,25 0,38 -25,-13 -51,-13 -76,-25 -345,-115 -665,-345 -882,-639 -115,-154 -256,-409 -268,-703 -13,-256 102,-511 281,-652 89,-64 178,-102 268,-115 89,0 179,38 230,102 -38,-25 -77,-38 -128,-38 -128,0 -243,102 -243,243 0,38 13,76 26,115 0,13 13,25 26,38 51,64 140,90 217,90 89,0 179,-39 230,-103 102,-115 115,-306 13,-447 -90,-115 -230,-192 -397,-179 -166,0 -293,90 -383,154 -230,178 -358,485 -345,805 13,230 77,460 217,677 -217,-141 -460,-217 -677,-217 -320,-13 -626,115 -805,345 -64,76 -141,217 -153,383 0,153 63,307 178,396 141,90 333,90 448,-13 64,-51 102,-140 102,-242 0,-90 -38,-166 -90,-218 -12,-12 -25,-12 -38,-25 -38,-13 -64,-26 -115,-26 -128,0 -243,102 -243,243 0,51 13,90 39,128 -64,-51 -103,-141 -103,-230 0,-90 39,-179 115,-269 141,-178 397,-281 652,-281 294,13 550,154 703,269 294,217 524,536 639,881 13,26 13,52 25,77 -12,0 -25,0 -38,0 -89,0 -192,0 -281,0 -153,-25 -294,-38 -447,-25 -230,12 -473,102 -626,281 -103,115 -166,255 -269,357 -179,192 -485,243 -715,128 89,115 204,217 332,269 128,51 294,64 422,0 -26,115 64,255 191,268 39,0 77,0 90,-26 0,0 0,-12 0,-12 51,140 140,255 243,345 115,89 268,140 409,140 51,0 102,-13 140,-13 -243,358 -447,729 -639,1112 -64,-115 -179,-217 -319,-281 -256,-128 -563,-141 -805,-38 0,0 -13,0 -13,0 0,-141 38,-281 128,-396 76,-90 191,-154 319,-179 -25,89 -13,179 51,242 90,90 243,90 345,0 90,-89 90,-242 0,-345 -13,-12 -38,-25 -51,-38 0,0 -13,0 -13,-13 0,0 -13,0 -13,0 0,0 -12,0 -25,-12 -256,-103 -575,-13 -767,204 -140,166 -192,396 -153,613 -179,128 -294,333 -307,537 -25,281 141,575 396,690 0,0 13,13 13,13 0,0 13,0 13,0 0,0 13,0 13,0 25,0 38,13 64,13 127,0 242,-102 242,-243 0,-128 -102,-243 -242,-243 -90,0 -179,51 -218,128 -76,-102 -115,-217 -102,-345 13,-128 77,-256 179,-358 102,243 332,447 601,537 89,25 178,51 268,51 51,0 102,-13 141,-13 -167,409 -320,831 -422,1265 -447,-89 -907,-51 -1342,102 -13,0 -25,0 -38,0 -128,39 -256,77 -384,77 -217,13 -434,-51 -587,-192 -166,-140 -243,-345 -230,-549 25,-205 166,-383 345,-447 102,-39 204,-26 306,0 -51,38 -76,102 -76,179 0,127 102,242 242,242 141,0 243,-102 243,-242 0,-26 0,-64 -13,-90 0,-13 -12,-25 -12,-38 -154,-230 -473,-320 -741,-230 -26,13 -52,13 -64,25 -39,-25 -90,-38 -128,-51 -90,-13 -179,0 -243,64 -77,-166 -230,-281 -409,-319 102,102 141,255 141,396 0,140 -39,281 -39,434 0,281 141,575 358,754 154,128 345,192 537,205 89,25 179,38 268,51 -128,89 -230,192 -319,294 -154,191 -243,409 -269,626 -12,166 13,332 90,485 -64,52 -128,103 -192,154 -38,38 -76,64 -102,102 -179,166 -345,332 -549,383 -154,39 -320,13 -461,-63 -140,-77 -242,-205 -281,-358 -38,-141 -25,-281 39,-396 13,-26 38,-52 64,-77 12,115 115,204 230,204 127,0 242,-102 242,-242 0,-128 -102,-243 -242,-243 0,0 -13,0 -13,0 -179,0 -345,89 -447,255 -90,154 -115,358 -64,550 64,192 191,370 370,473 26,12 51,25 90,38 -26,13 -64,26 -90,38 -179,102 -319,269 -370,473 -51,192 -39,396 64,549 102,154 268,256 434,256 0,0 13,0 13,0 0,0 13,0 13,0 127,0 242,-102 242,-243 0,-128 -102,-242 -242,-242 -115,0 -218,89 -230,204 -26,-26 -51,-51 -64,-77 -64,-102 -77,-255 -39,-396 39,-153 154,-281 281,-358 141,-76 307,-102 461,-64 217,52 383,218 549,384 38,38 64,64 102,102 64,51 128,115 192,153 -64,154 -102,320 -90,486 13,217 103,434 269,626 89,102 191,205 319,294 -89,0 -191,26 -281,51 -191,13 -370,90 -524,205 -217,178 -358,460 -358,754 0,140 26,281 39,434 0,141 -26,294 -141,396 179,-38 332,-166 409,-319 51,64 153,89 243,64 51,-13 89,-26 128,-51 25,12 38,25 64,25 63,26 140,38 204,38 204,0 422,-102 537,-268 12,-13 12,-26 12,-38 13,-26 13,-51 13,-90 0,-128 -102,-243 -243,-243 -140,0 -242,103 -242,243 0,64 25,128 76,179 -102,38 -204,38 -306,0 -179,-64 -320,-243 -345,-447 -26,-205 64,-409 230,-550 153,-140 370,-204 587,-191 128,12 256,51 384,76 13,0 25,0 25,0 269,103 563,154 857,154 166,0 332,-26 485,-51 115,434 256,856 422,1265 -128,-26 -269,-13 -409,38 -268,89 -498,294 -601,537 -102,-103 -166,-230 -179,-358 -12,-128 26,-243 103,-345 38,77 115,128 217,128 128,0 243,-102 243,-243 0,-128 -103,-243 -243,-243 -26,0 -38,0 -64,13 0,0 -13,0 -13,0 0,0 -13,0 -13,0 -12,0 -12,0 -12,13 -256,115 -422,396 -397,690 26,204 141,409 307,536 -38,218 26,448 154,614 127,166 332,255 536,255 64,0 141,-12 205,-38 12,0 25,-13 38,-13 0,0 13,0 13,0 0,0 13,0 13,-13 12,-12 38,-25 51,-38 89,-89 89,-243 0,-345 -90,-89 -243,-89 -345,0 -64,64 -90,166 -51,243 -115,-26 -230,-77 -320,-179 -89,-102 -128,-243 -128,-396 0,0 13,0 13,0 102,38 230,64 345,64 153,0 320,-38 460,-115 141,-77 256,-166 320,-281 191,383 396,754 639,1111 -179,-38 -397,0 -550,128 -115,90 -192,205 -243,345 0,0 0,-13 0,-13 -12,-25 -51,-38 -89,-25 -115,13 -217,140 -192,268 -128,-64 -281,-51 -422,0 -127,51 -242,154 -332,269 230,-115 537,-64 716,127 102,103 166,256 268,358 154,179 396,256 626,281 154,13 294,0 448,-25 51,0 102,12 166,12 38,0 76,0 115,0 25,0 38,0 64,13 -13,26 -13,51 -26,77 -115,345 -345,664 -639,882 -153,115 -409,255 -703,268 -255,13 -511,-102 -651,-281 -64,-89 -103,-179 -115,-268 0,-90 38,-179 102,-230 -26,38 -39,76 -39,127 0,128 103,243 243,243 39,0 77,-13 115,-25 13,0 26,-13 38,-26 64,-51 90,-128 90,-217 0,-90 -38,-179 -102,-243 -115,-102 -307,-115 -447,-13 -115,90 -192,230 -179,396 0,167 89,294 153,384 179,217 460,345 767,345 13,0 25,0 38,0 230,-13 460,-77 677,-217 -140,217 -217,460 -217,677 -13,319 115,626 345,805 77,64 217,140 383,153 0,0 13,0 13,0 154,0 294,-64 371,-179 89,-140 89,-332 -13,-447 -51,-64 -141,-102 -243,-102 -25,0 -51,0 -76,13 -39,0 -64,12 -90,38 -26,13 -38,26 -64,51 -13,13 -13,26 -25,38 -13,39 -26,64 -26,115 0,128 102,243 243,243 51,0 89,-13 128,-38 -52,64 -141,102 -230,102 -90,0 -179,-38 -269,-115 -179,-141 -281,-396 -281,-652 13,-293 154,-549 269,-702 217,-294 536,-524 881,-639 26,-13 51,-13 77,-26 0,13 0,26 0,38 0,90 0,192 0,281 -26,154 -38,294 -26,448 13,230 103,472 281,626 115,102 256,166 358,268 192,179 243,486 128,716 115,-90 217,-205 268,-332 51,-128 64,-294 0,-422 115,25 256,-64 269,-192 0,-38 0,-77 -26,-89 0,0 -13,0 -13,0 141,-51 256,-141 345,-243 128,-166 166,-371 128,-550 358,243 729,448 1112,639 -115,64 -217,179 -281,320 -128,255 -141,562 -39,805 0,0 0,13 0,13 -140,0 -281,-39 -396,-128 -89,-77 -153,-192 -179,-320 90,26 179,13 243,-51 90,-89 90,-242 0,-345 -89,-89 -243,-89 -345,0 -13,13 -25,39 -38,51 0,0 0,13 -13,13 0,0 0,13 0,13 0,0 0,13 -13,13 -102,255 -12,575 205,767 140,115 306,166 485,166 39,0 90,0 128,-13 128,179 332,294 537,307 25,0 38,0 64,0 268,0 524,-167 626,-397 0,0 0,-12 13,-12 0,0 0,-13 0,-13 0,0 0,-13 0,-13 0,-26 12,-38 12,-64 0,-128 -102,-243 -242,-243 -128,0 -243,103 -243,243 0,90 51,179 128,217 -102,77 -217,115 -345,103 -128,-13 -256,-77 -358,-179 243,-103 447,-333 537,-601 51,-141 64,-294 38,-409 409,166 831,307 1265,422 -90,447 -51,907 102,1342 0,12 0,25 0,38 38,128 77,255 77,383 13,217 -51,435 -192,588 -140,166 -345,243 -549,230 -205,-26 -384,-166 -448,-345 -38,-102 -25,-204 0,-307 39,51 103,77 179,77 128,0 243,-102 243,-243 0,-140 -102,-243 -243,-243 -25,0 -64,0 -89,13 -13,0 -26,13 -38,13 -230,153 -320,473 -230,741 12,26 12,51 25,64 -25,38 -38,90 -51,128 -13,89 0,179 64,243 -166,76 -281,230 -320,409 103,-103 256,-141 397,-141 140,0 281,38 434,38 281,0 575,-140 754,-358 115,-153 192,-332 205,-523 25,-90 38,-179 51,-282 89,128 191,230 293,320 192,153 409,243 627,268 25,0 51,0 76,0 141,0 281,-25 409,-89 51,64 102,128 154,179 38,38 63,76 102,102 166,179 332,345 383,549 38,154 13,320 -64,460 -76,141 -204,243 -358,282 -140,38 -281,25 -396,-39 -25,-13 -51,-38 -76,-64 115,-12 204,-115 204,-230 0,-127 -102,-242 -243,-242 -127,0 -242,102 -242,242 0,0 0,13 0,13 0,179 89,345 255,447 102,64 217,90 332,90 64,0 141,-13 205,-26 192,-64 370,-191 473,-370 12,-26 25,-51 38,-90 13,26 26,64 38,90 102,179 269,319 473,370 192,51 396,39 550,-64 153,-102 255,-268 255,-447 0,0 0,-13 0,-13 0,-127 -102,-242 -243,-242 -127,0 -242,102 -242,242 0,115 89,218 204,230 -26,26 -51,51 -77,64 -102,64 -255,77 -396,39 -153,-39 -281,-154 -358,-282 -76,-140 -102,-306 -64,-460 52,-217 218,-383 384,-549 38,-38 64,-64 102,-102 51,-64 115,-128 153,-179 128,64 269,89 409,89 26,0 51,0 77,0 217,-13 434,-102 626,-268 102,-90 205,-192 294,-320 0,90 26,192 51,282 13,191 90,370 205,523 179,218 460,358 754,358 140,0 281,-25 434,-38 141,0 294,26 396,141 -38,-179 -166,-333 -319,-409 64,-51 89,-154 64,-243 -13,-51 -26,-90 -51,-128 12,-25 25,-38 25,-64 90,-268 -13,-588 -230,-741 -13,-13 -25,-13 -38,-13 -26,-13 -51,-13 -90,-13 -127,0 -242,103 -242,243 0,141 102,243 242,243 64,0 128,-26 179,-77 39,103 39,205 0,307 -64,179 -243,319 -447,345 -205,26 -409,-64 -550,-230 -140,-153 -204,-371 -191,-588 13,-128 51,-255 76,-383 0,-13 0,-26 0,-38 154,-422 192,-895 103,-1342 434,-115 856,-256 1265,-422 -26,128 -13,269 38,409 90,268 294,498 537,601 -102,102 -230,166 -358,179 -128,12 -243,-26 -345,-103 77,-38 128,-115 128,-217 0,-128 -102,-243 -243,-243 -128,0 -243,103 -243,243 0,26 0,38 13,64 0,0 0,13 0,13 0,0 0,13 0,13 0,0 0,12 13,12 102,230 358,397 626,397 25,0 38,0 64,0 204,-26 409,-141 536,-307 39,13 90,13 128,13 179,0 358,-64 486,-166 217,-179 307,-499 204,-767 0,-13 0,-13 -12,-26 0,0 0,-13 0,-13 0,0 0,-12 -13,-12 -13,-13 -26,-39 -39,-51 -89,-90 -242,-90 -345,0 -89,89 -89,242 0,345 64,63 167,89 243,51 -25,115 -76,230 -179,319 -102,90 -242,128 -396,128 0,0 0,-13 0,-13 102,-243 90,-549 -38,-805 -77,-141 -166,-256 -281,-319 383,-192 754,-397 1111,-639 -38,179 0,396 128,549 90,115 205,192 345,243 0,0 -13,0 -13,0 -25,13 -38,51 -25,89 13,115 140,218 268,192 -64,128 -51,281 0,422 51,128 154,243 269,332 -115,-230 -64,-537 127,-716 103,-102 256,-166 358,-268 179,-153 256,-396 281,-626 13,-153 0,-307 -25,-447 13,-90 13,-192 0,-281 0,-13 0,-26 0,-39 25,13 51,13 76,26 345,115 665,345 882,639 115,153 256,409 269,703 12,255 -103,511 -282,651 -89,64 -178,102 -268,115 -89,0 -179,-38 -230,-102 38,26 77,38 128,38 128,0 243,-102 243,-242 0,-39 -13,-77 -26,-115 0,-13 -13,-26 -26,-39 -25,-25 -51,-51 -89,-64 0,0 -13,0 -13,-12 0,0 -13,0 -13,0 -12,0 -25,-13 -38,-13 -26,0 -51,-13 -77,-13 -89,0 -179,38 -242,102 -103,115 -115,307 -13,447 76,115 217,179 370,179 0,0 13,0 13,0 166,0 294,-89 384,-153 230,-179 357,-486 345,-805 -13,-230 -77,-460 -218,-677 218,140 460,217 678,217 12,0 25,0 38,0 307,0 588,-128 767,-345 64,-77 140,-217 153,-383 0,-154 -64,-307 -179,-397 -140,-89 -332,-89 -447,13 -64,51 -102,141 -102,243 0,89 38,166 89,217 13,13 26,13 38,26 39,13 64,25 115,25 128,0 243,-102 243,-242 0,-52 -13,-90 -38,-128 64,51 102,140 102,230 0,89 -38,179 -115,268 -140,179 -396,281 -652,281 -293,-13 -549,-153 -702,-268 -294,-217 -524,-537 -639,-882 -13,-25 -13,-51 -26,-77 26,0 38,0 64,-12 38,0 77,0 115,0 51,0 102,0 166,-13 153,25 294,38 447,25 230,-12 473,-102 626,-281 103,-115 167,-255 269,-357 179,-192 485,-243 715,-128 -89,-115 -204,-217 -332,-269 -128,-51 -294,-64 -422,0 26,-115 -63,-255 -191,-268 -39,0 -77,0 -90,26 0,0 0,12 0,12 -51,-140 -140,-255 -242,-345 -167,-127 -371,-166 -550,-127 243,-358 447,-729 639,-1112 64,115 179,217 319,281 141,77 307,115 461,115 115,0 242,-26 345,-64 0,0 12,0 12,0 0,141 -38,281 -127,396 -77,90 -192,154 -320,179 26,-89 13,-179 -51,-243 -90,-89 -243,-89 -345,0 -90,90 -90,243 0,345 13,13 38,26 51,39 0,0 13,0 13,12 0,0 13,0 13,0 12,0 25,13 38,13 64,26 128,39 204,39 205,0 409,-90 537,-256 141,-166 192,-396 154,-613 178,-128 293,-333 306,-537 26,-281 -140,-575 -396,-690 0,0 -13,-13 -13,-13 0,0 -13,0 -13,0 0,0 -12,0 -12,0 -26,0 -39,-13 -64,-13 -128,0 -243,102 -243,243 0,128 102,243 243,243 89,0 179,-51 217,-128 77,102 115,217 102,345 -13,128 -77,256 -179,358 -102,-243 -332,-447 -600,-537 -141,-51 -294,-64 -409,-38 166,-409 306,-831 421,-1265 167,38 320,51 486,51 294,0 588,-51 856,-153 13,0 26,0 26,0 128,-39 255,-77 383,-77 217,-13 435,51 588,192 166,140 243,345 230,549 -26,204 -166,383 -345,447 -102,39 -205,26 -307,0 51,-38 77,-102 77,-179 0,-127 -102,-242 -243,-242 -140,0 -243,102 -243,242 0,26 0,64 13,90 0,13 13,25 13,38 115,166 319,269 537,269 64,0 140,-13 204,-39 26,-13 51,-13 64,-25 38,25 89,38 128,51 89,13 179,0 243,-64 76,166 230,281 408,319 -102,-102 -140,-255 -140,-396 0,-140 38,-281 38,-434 0,-281 -140,-575 -358,-754 -153,-115 -332,-192 -524,-205 -89,-25 -178,-38 -281,-51 128,-89 230,-192 320,-294 153,-191 243,-409 268,-626 13,-166 -13,-332 -89,-485 64,-52 128,-103 191,-154 39,-38 77,-64 103,-102 179,-166 345,-332 549,-383 153,-39 320,-13 460,63 141,77 243,205 281,358 39,141 26,281 -38,396 -13,26 -38,52 -64,77 -13,-115 -115,-204 -230,-204 -128,0 -243,102 -243,242 0,128 102,243 243,243 0,0 13,0 13,0 0,0 13,0 13,0 166,0 345,-89 434,-255 90,-154 115,-358 64,-550 0,-166 -128,-345 -307,-447zm-2185 -2185c192,102 345,230 460,371 128,153 205,345 217,523 13,128 -12,243 -51,358 -166,-102 -319,-179 -485,-230 -345,-102 -703,-51 -971,141 -115,77 -205,192 -281,307 -154,-218 -192,-486 -103,-716 64,-192 230,-332 409,-396 0,0 0,13 0,13 0,127 102,242 243,242 128,0 243,-102 243,-242 0,-115 -90,-218 -192,-230 0,0 -13,0 -13,0 -13,0 -13,0 -25,0 0,0 0,0 -13,0 0,0 -13,0 -13,0 -319,-13 -626,191 -779,485 -39,-281 -103,-562 -166,-843 511,-128 1073,-39 1520,217zm550 1418c-39,51 -77,103 -115,141 -166,179 -422,281 -678,294 -281,13 -536,-77 -728,-243 64,-115 153,-217 268,-294 218,-153 512,-192 806,-102 153,38 293,102 447,204zm-4754 7565c-13,13 -25,26 -38,39 0,0 -13,12 -13,12 0,0 -13,13 -13,13 -13,13 -25,26 -38,38 -1840,1802 -4268,2786 -6837,2786 -2581,0 -4996,-984 -6836,-2786 -13,-12 -26,-25 -38,-38 0,0 -13,-13 -13,-13 0,0 -13,-12 -13,-12 -13,-13 -26,-26 -38,-39 -1802,-1840 -2786,-4268 -2786,-6836 0,-2582 984,-4997 2786,-6837 13,-13 25,-25 38,-38 0,0 13,-13 13,-13 0,0 13,-13 13,-13 12,-12 25,-25 38,-38 1840,-1802 4268,-2786 6836,-2786 2582,0 4997,984 6837,2786 13,13 25,26 38,38 0,0 13,13 13,13 0,0 13,13 13,13 13,13 25,26 38,38 1802,1840 2786,4268 2786,6837 0,2568 -984,4996 -2786,6836zm-64 320c39,102 77,217 90,332 -154,-13 -307,-13 -460,13 127,-115 255,-230 370,-345zm614 -639c-26,153 -26,319 -13,460 -115,-26 -230,-51 -332,-90 127,-127 242,-242 345,-370zm-6658 3923c153,217 192,511 102,805 -38,153 -115,294 -217,447 -51,-38 -102,-77 -141,-115 -178,-166 -281,-422 -293,-677 -13,-281 76,-537 242,-729 128,77 230,167 307,269zm-1380 -256c166,192 255,460 243,729 -13,255 -128,498 -294,677 -39,38 -90,77 -141,115 -102,-154 -166,-294 -217,-447 -77,-294 -38,-601 102,-805 90,-115 192,-205 307,-269zm-5968 -2683c-153,-26 -319,-26 -460,-13 26,-115 51,-230 90,-332 115,115 243,230 370,345zm-651 -614c-103,39 -218,77 -333,90 13,-154 13,-307 -12,-460 115,128 230,243 345,370zm281 -14043c-39,-102 -77,-217 -90,-332 64,12 141,12 205,12 89,0 179,-12 268,-25 -140,115 -268,230 -383,345zm-614 639c26,-154 26,-320 13,-460 115,25 230,51 332,89 -127,128 -242,243 -345,371zm6658 -3923c-153,-218 -192,-511 -102,-805 38,-154 115,-294 217,-448 51,39 102,77 141,115 178,166 281,422 293,678 13,281 -76,536 -242,728 -128,-77 -230,-166 -307,-268zm1367 255c-166,-191 -255,-460 -242,-728 12,-256 127,-498 293,-677 39,-39 90,-77 141,-115 102,153 166,294 217,447 77,294 38,600 -102,805 -77,115 -179,204 -307,268zm5981 2684c89,13 179,25 268,25 64,0 141,0 204,-12 -25,115 -51,230 -89,332 -128,-115 -256,-230 -383,-345zm651 613c103,-38 218,-77 333,-89 -13,153 -13,306 12,460 -115,-128 -230,-243 -345,-371zm1853 2722c26,-128 128,-256 294,-332 217,-103 460,-115 652,-39 13,13 25,13 51,26 0,13 -13,26 -13,38 -77,192 -268,358 -486,435 -166,64 -332,51 -447,-26 0,0 -13,0 -13,-13 -12,-25 -25,-51 -38,-89 0,13 0,0 0,0zm-306 -1597c-154,115 -358,140 -499,51 -166,-103 -230,-333 -140,-499 38,-64 89,-115 153,-140 -26,38 -38,89 -38,128 0,127 102,242 242,242 26,0 39,0 64,-12 39,0 77,-26 103,-39 38,-38 63,-89 76,-153 13,-90 -13,-166 -76,-243 -64,-77 -167,-128 -269,-128 -166,-13 -332,102 -422,269 -38,64 -51,140 -51,217 -25,-38 -64,-77 -89,-115 0,0 0,0 0,0 -90,-269 -115,-537 -77,-805 192,-13 371,-13 562,13 230,38 397,115 512,230 115,115 191,293 178,485 0,192 -89,384 -229,499zm-1368 -1802c154,-51 294,-115 435,-205 -90,141 -154,282 -205,435 -13,51 -25,102 -38,166 -166,26 -332,77 -486,141 64,-154 103,-320 141,-486 38,-26 89,-38 153,-51zm-779 -754c0,-102 -51,-192 -128,-268 -77,-64 -153,-90 -243,-77 -64,13 -115,38 -153,77 -26,25 -39,63 -51,102 0,25 -13,38 -13,64 0,127 102,242 243,242 51,0 89,-12 127,-38 -25,64 -76,115 -140,154 -166,89 -396,25 -498,-141 -90,-141 -64,-358 51,-498 115,-141 293,-230 498,-230 192,0 371,63 486,178 115,115 191,282 230,512 25,179 38,370 12,562 -255,38 -536,13 -805,-77 0,0 0,0 0,0 -38,-25 -76,-64 -115,-89 77,0 154,-26 217,-51 192,-90 295,-256 282,-422zm-2492 -754c-77,-102 -90,-268 -26,-447 77,-230 243,-409 435,-486 13,0 25,-13 38,-13 13,13 13,26 26,51 76,205 64,448 -39,652 -76,166 -204,269 -332,294 0,0 0,0 -13,0 -25,-13 -51,-26 -76,-38 0,0 -13,0 -13,-13zm-2811 -2760c179,13 357,89 524,217 140,115 268,268 370,460 256,460 332,1010 230,1521 -281,-64 -562,-128 -843,-166 294,-141 498,-460 485,-780 0,0 0,-13 0,-13 0,0 0,0 0,-12 0,-13 0,-13 0,-26 0,0 0,-13 0,-13 -25,-115 -115,-191 -230,-191 -127,0 -242,102 -242,242 0,128 102,243 242,243 0,0 13,0 13,0 -64,179 -204,332 -396,409 -230,89 -511,38 -716,-102 115,-77 218,-166 307,-281 179,-256 230,-614 141,-971 -51,-167 -115,-320 -230,-486 102,-51 217,-64 345,-51zm-1751 -166c26,-39 64,-64 102,-103 154,-153 307,-319 396,-523 90,204 243,370 397,523 38,39 63,64 102,103 51,51 89,102 128,153 -52,38 -115,77 -167,128 -204,204 -332,498 -345,792 -12,307 77,601 256,831 -115,51 -243,89 -371,128 -127,-39 -255,-77 -370,-128 179,-230 281,-524 255,-831 -12,-307 -140,-588 -345,-792 -51,-51 -102,-90 -166,-128 39,-51 77,-102 128,-153zm-1661 843c102,-192 230,-345 370,-460 154,-128 345,-204 524,-217 128,-13 243,13 358,51 -102,166 -179,319 -230,486 -102,345 -51,702 141,971 76,115 191,204 306,281 -217,153 -485,191 -715,102 -192,-64 -332,-230 -396,-409 0,0 12,0 12,0 128,0 243,-102 243,-243 0,-127 -102,-242 -243,-242 -115,0 -217,89 -230,204 0,0 0,13 0,13 0,13 0,13 0,25 0,0 0,13 0,13 0,0 0,13 0,13 -12,319 192,626 486,767 -281,38 -562,102 -843,166 -115,-511 -39,-1061 217,-1521zm-2006 2134c-128,-25 -256,-128 -333,-294 -102,-217 -115,-460 -38,-651 13,-13 13,-26 26,-52 12,0 25,13 38,13 192,77 358,269 434,486 64,166 51,332 -25,447 0,0 0,13 -13,13 -38,25 -64,38 -89,38 0,0 0,0 0,0zm-1559 818c-103,166 -333,230 -499,141 -64,-39 -115,-90 -140,-154 38,26 89,38 127,38 128,0 243,-102 243,-242 0,-26 0,-39 -13,-64 0,-39 -25,-77 -38,-102 -38,-39 -89,-64 -153,-77 -90,-13 -166,13 -243,77 -77,63 -128,166 -128,268 -13,166 102,332 269,422 63,38 140,51 217,51 -39,25 -77,64 -115,89 0,0 0,0 0,0 -269,90 -537,115 -805,77 -13,-192 -13,-371 12,-562 39,-230 115,-397 230,-512 115,-115 294,-191 486,-178 205,0 396,89 498,230 115,140 141,345 52,498zm-2045 434c141,90 281,154 434,205 52,13 103,25 167,38 25,166 76,332 140,486 -153,-64 -319,-102 -485,-141 -13,-51 -26,-115 -39,-166 -64,-140 -140,-281 -217,-422zm-141 1470c-89,-166 -242,-268 -421,-268 -102,0 -192,51 -269,127 -64,77 -89,154 -76,243 12,64 38,115 76,154 26,25 64,38 103,51 25,0 38,12 63,12 128,0 243,-102 243,-242 0,-51 -13,-90 -38,-128 64,25 115,77 153,140 90,167 26,397 -140,499 -141,89 -358,64 -499,-51 -140,-115 -230,-294 -230,-499 0,-191 64,-370 179,-485 115,-115 281,-192 511,-230 179,-26 371,-39 563,-13 38,256 13,537 -77,805 0,0 0,0 0,0 -26,38 -64,77 -89,115 0,-89 -13,-166 -52,-230zm-1162 2223c-103,77 -269,90 -448,26 -230,-77 -409,-243 -485,-434 0,-13 -13,-26 -13,-39 13,-13 26,-13 51,-25 205,-77 447,-64 652,38 166,77 268,204 294,332 0,0 0,0 0,13 -13,26 -26,51 -39,77 0,12 -12,12 -12,12zm-2773 2824c12,-178 89,-357 217,-524 115,-140 268,-268 460,-370 460,-256 1009,-332 1521,-230 -64,281 -128,562 -167,843 -140,-294 -460,-498 -779,-485 0,0 -13,0 -13,0 0,0 0,0 -13,0 -12,0 -12,0 -25,0 0,0 -13,0 -13,0 -115,25 -192,115 -192,230 0,127 103,242 243,242 141,0 243,-102 243,-242 0,0 0,-13 0,-13 179,64 332,204 409,396 89,230 38,511 -102,716 -77,-115 -167,-218 -282,-307 -255,-179 -613,-230 -971,-141 -166,51 -319,115 -485,230 -39,-102 -64,-230 -51,-345zm1661 716c-192,166 -460,256 -728,243 -256,-13 -499,-128 -678,-294 -38,-38 -76,-90 -115,-141 154,-102 294,-166 448,-217 293,-77 600,-38 805,102 115,90 191,192 268,307zm-1815 1022c-38,-25 -64,-64 -102,-102 -153,-153 -319,-307 -524,-396 205,-90 371,-243 524,-396 38,-39 64,-64 102,-102 51,-52 103,-90 154,-128 38,51 76,115 128,166 204,204 498,332 792,345 25,0 51,0 76,0 282,0 550,-90 754,-269 52,115 90,243 128,371 -38,128 -76,256 -128,371 -230,-179 -524,-281 -830,-256 -307,13 -588,141 -792,345 -52,51 -90,102 -128,166 -64,-25 -115,-64 -154,-115zm1815 51c-64,115 -154,218 -268,294 -218,154 -512,192 -806,102 -153,-38 -293,-114 -447,-217 38,-51 77,-102 115,-140 166,-179 422,-281 677,-294 269,0 537,89 729,255zm-984 1611c-192,-103 -345,-230 -460,-371 -128,-153 -205,-345 -217,-524 -13,-128 12,-243 51,-358 166,102 319,179 485,230 345,102 703,51 971,-140 115,-77 205,-192 282,-307 153,217 191,485 102,715 -64,192 -230,333 -409,397 0,0 0,-13 0,-13 0,-128 -102,-243 -243,-243 -140,0 -243,102 -243,243 0,115 90,217 192,230 0,0 13,0 13,0 13,0 13,0 25,0 0,0 0,0 13,0 0,0 13,0 13,0 319,13 626,-192 779,-486 39,281 103,563 167,844 -512,128 -1061,38 -1521,-217zm2147 2018c-26,128 -128,256 -294,333 -217,102 -460,115 -652,38 -13,-13 -25,-13 -51,-26 0,-12 13,-25 13,-38 77,-192 268,-358 485,-434 167,-64 333,-51 448,25 0,0 12,0 12,13 13,26 26,51 39,89 0,-12 0,0 0,0zm306 1598c154,-115 358,-141 499,-51 166,102 230,332 140,498 -38,64 -89,115 -153,141 26,-39 38,-90 38,-128 0,-128 -102,-243 -243,-243 -25,0 -38,0 -63,13 -39,0 -77,26 -103,51 -38,38 -64,90 -76,153 -13,90 12,167 76,243 64,77 166,128 269,128 166,0 332,-102 421,-268 39,-64 52,-141 52,-218 25,39 63,77 89,115 0,0 0,0 0,0 90,269 115,537 77,805 -192,13 -371,13 -563,-12 -230,-39 -396,-115 -511,-230 -115,-128 -191,-307 -179,-486 0,-204 90,-396 230,-511zm984 1431c0,0 0,0 0,0 0,0 0,0 0,0l0 0zm384 371c-154,51 -294,115 -435,204 90,-141 154,-281 205,-434 13,-52 25,-103 38,-167 166,-25 332,-76 486,-140 -64,153 -115,319 -141,485 -38,26 -102,39 -153,52zm779 754c0,102 51,191 128,268 77,64 153,89 243,77 64,-13 115,-39 153,-77 26,-26 38,-64 51,-102 0,-26 13,-39 13,-64 0,-128 -102,-243 -243,-243 -51,0 -89,13 -127,38 25,-64 76,-115 140,-153 166,-90 396,-26 498,141 90,140 64,357 -51,498 -115,140 -294,230 -498,230 -192,0 -371,-64 -486,-179 -115,-115 -191,-281 -230,-511 -25,-179 -38,-371 -12,-562 255,-39 536,-13 805,76 0,0 0,0 0,0 38,26 76,64 115,90 -77,0 -154,25 -218,51 -191,89 -294,255 -281,422zm2492 741c77,102 89,268 26,447 -77,230 -243,409 -435,486 -13,0 -25,12 -38,12 -13,-12 -13,-25 -26,-51 -76,-204 -64,-447 39,-651 76,-167 204,-269 332,-294 0,0 0,0 13,0 25,12 51,25 76,38 0,13 0,13 13,13zm2811 2773c-179,-13 -357,-90 -524,-218 -140,-115 -268,-268 -370,-460 -256,-460 -332,-1009 -230,-1520 281,64 562,128 843,166 -294,140 -498,460 -485,767 0,0 0,12 0,12 0,0 0,13 0,13 0,13 0,13 0,26 0,0 0,13 0,13 25,115 115,204 230,204 127,0 242,-102 242,-243 0,-128 -102,-243 -242,-243 0,0 -13,0 -13,0 64,-178 204,-332 396,-408 230,-90 511,-39 715,102 -114,76 -217,166 -306,281 -179,255 -230,613 -141,971 51,166 115,319 230,486 -102,51 -230,63 -345,51zm1751 166c-26,38 -64,64 -102,102 -154,153 -307,319 -396,524 -90,-205 -243,-371 -397,-524 -38,-38 -64,-64 -102,-102 -51,-51 -89,-102 -128,-154 51,-38 115,-76 166,-127 205,-205 333,-499 345,-793 13,-306 -76,-600 -255,-830 115,-51 243,-90 370,-128 128,38 256,77 371,128 -179,230 -281,524 -256,830 13,307 141,588 345,793 52,51 103,89 167,127 -39,52 -90,103 -128,154zm1661 -844c-102,192 -230,345 -370,460 -154,128 -345,205 -524,218 -128,12 -243,-13 -358,-51 102,-167 179,-320 230,-486 102,-345 51,-703 -141,-971 -76,-115 -191,-205 -306,-281 217,-154 485,-192 715,-103 192,64 332,230 396,409 0,0 -13,0 -13,0 -127,0 -242,103 -242,243 0,128 102,243 242,243 115,0 218,-90 230,-192 0,0 0,-13 0,-13 0,-12 0,-12 0,-25 0,0 0,0 0,-13 0,0 0,-13 0,-13 13,-319 -191,-626 -485,-779 281,-38 562,-102 843,-166 115,511 39,1060 -217,1520zm2006 -2134c128,26 256,128 333,294 102,217 115,460 38,652 -13,13 -13,26 -26,51 -12,0 -25,-13 -38,-13 -192,-76 -358,-268 -434,-485 -64,-166 -52,-333 25,-448 0,0 0,-12 13,-12 38,-26 64,-39 89,-39 0,0 0,0 0,0zm1559 -817c103,-167 333,-230 499,-141 64,38 115,89 140,153 -38,-25 -89,-38 -127,-38 -128,0 -243,102 -243,243 0,25 0,38 13,64 0,38 25,76 38,102 38,38 89,64 153,77 90,12 166,-13 243,-77 77,-64 128,-166 128,-268 13,-167 -102,-333 -269,-422 -63,-38 -140,-51 -217,-51 39,-26 77,-64 115,-90 0,0 0,0 0,0 269,-89 537,-115 805,-76 13,191 13,370 -13,562 -38,230 -115,396 -230,511 -127,115 -306,192 -485,179 -205,0 -396,-90 -498,-230 -116,-141 -141,-345 -52,-498zm2045 -435c-141,-89 -281,-153 -435,-204 -51,-13 -102,-26 -166,-39 -25,-166 -76,-332 -140,-485 153,64 319,102 485,140 13,51 26,115 39,166 64,141 140,281 217,422zm-38 -575c0,0 0,0 0,0 0,0 0,0 0,0l0 0zm178 -894c90,166 256,268 422,268 102,0 192,-51 269,-128 63,-77 89,-153 76,-243 -13,-64 -38,-115 -76,-153 -26,-26 -64,-38 -103,-51 -25,0 -38,-13 -64,-13 -127,0 -242,102 -242,243 0,51 12,89 38,128 -64,-26 -115,-77 -153,-141 -90,-166 -26,-396 140,-498 141,-90 358,-64 499,51 140,115 229,294 229,498 0,192 -63,371 -178,486 -115,115 -281,191 -512,230 -178,25 -370,38 -562,13 -38,-256 -13,-537 77,-806 0,0 0,0 0,0 25,-38 64,-76 89,-115 0,90 13,167 51,231zm1163 -2224c102,-77 269,-89 448,-26 230,77 408,243 485,435 0,13 13,26 13,38 -13,13 -26,13 -51,26 -205,77 -447,64 -652,-38 -166,-77 -268,-205 -294,-333 0,0 0,0 0,-13 13,-25 26,-51 39,-76 -1,-13 -1,-13 12,-13zm2773 -2824c-13,179 -89,358 -217,524 -115,141 -268,268 -460,371 -460,255 -1010,332 -1521,230 64,-282 128,-563 166,-844 141,294 461,499 780,486 0,0 13,0 13,0 0,0 0,0 12,0 13,0 13,0 26,0 0,0 13,0 13,0 115,-26 192,-115 192,-230 0,-128 -103,-243 -243,-243 -128,0 -243,102 -243,243 0,0 0,13 0,13 -179,-64 -332,-205 -409,-397 -89,-230 -38,-511 102,-715 77,115 166,217 281,307 256,178 614,230 972,140 166,-51 319,-115 485,-230 38,102 64,230 51,345zm-1661 -716c192,-166 460,-255 728,-242 256,12 499,127 678,294 38,38 76,89 115,140 -154,102 -294,166 -448,217 -294,77 -600,39 -805,-102 -115,-89 -204,-192 -268,-307zm1917 -140c-39,38 -64,64 -102,102 -52,51 -103,90 -154,128 -38,-51 -76,-115 -128,-166 -204,-205 -498,-332 -792,-345 -307,-13 -600,76 -830,255 -52,-115 -90,-242 -128,-370 38,-128 76,-256 128,-371 204,166 472,269 753,269 26,0 52,0 77,0 307,-13 588,-141 792,-345 52,-51 90,-103 128,-166 51,38 102,76 154,127 38,26 63,64 102,103 153,153 319,306 524,396 -192,76 -358,230 -524,383z"/>
   <path class="fil2" d="M31640 997c115,-154 255,-294 408,-409 -115,-205 -255,-409 -408,-588 -154,179 -294,383 -409,588 166,127 306,255 409,409z"/>
   <path class="fil2" d="M45658 14197c-115,153 -256,294 -409,409 153,115 294,255 409,409 204,-115 408,-256 587,-409 -191,-154 -383,-294 -587,-409z"/>
   <path class="fil2" d="M31640 28215c-115,153 -256,294 -409,409 115,204 255,409 409,587 153,-178 293,-383 408,-587 -153,-128 -293,-256 -408,-409z"/>
   <path class="fil2" d="M17634 14197c-204,115 -409,255 -587,409 178,153 383,294 587,409 115,-154 256,-294 409,-409 -153,-115 -294,-256 -409,-409z"/>
   <path class="fil2" d="M30349 5431c0,0 13,0 13,0 0,0 0,0 0,0 51,-13 89,-51 89,-115 -13,-51 -64,-90 -115,-90 -51,13 -89,64 -89,115 13,51 64,90 102,90z"/>
   <path class="fil2" d="M30924 5380c13,0 13,0 0,0 64,0 102,-51 102,-103 0,-51 -51,-89 -102,-89 -51,0 -89,51 -89,102 0,39 38,90 89,90z"/>
   <path class="fil2" d="M29787 5533c0,0 12,0 12,0 52,-13 90,-64 77,-115 -13,-51 -64,-89 -115,-77 -51,13 -89,64 -77,115 13,39 52,77 103,77z"/>
   <path class="fil2" d="M31499 5341l0 0c51,0 102,-51 102,-102 0,-51 -38,-102 -102,-102 -51,0 -102,38 -102,102 13,64 51,102 102,102z"/>
   <path class="fil2" d="M29224 5661c13,0 13,0 26,0 51,-13 89,-64 77,-115 -13,-51 -64,-90 -115,-77 -51,13 -90,64 -64,115 -13,51 38,77 76,77z"/>
   <path class="fil2" d="M24088 9162c25,0 63,-13 76,-38 26,-39 26,-102 -25,-141 -39,-25 -103,-25 -141,26 -26,38 -26,102 26,140 25,13 38,13 64,13z"/>
   <path class="fil2" d="M33774 5584c12,0 12,0 25,0 38,0 90,-25 102,-77 13,-51 -25,-102 -76,-115 -51,-12 -102,26 -115,77 -26,51 13,102 64,115z"/>
   <path class="fil2" d="M33211 5482c0,0 13,0 13,0 51,0 90,-38 102,-77 13,-51 -25,-102 -76,-115 -51,-13 -103,26 -115,77 -13,51 25,102 76,115z"/>
   <path class="fil2" d="M28675 5827c13,0 26,0 26,0 51,-13 76,-77 63,-128 -12,-51 -76,-77 -127,-64 -51,13 -77,77 -64,128 13,38 64,64 102,64z"/>
   <path class="fil2" d="M32649 5405c0,0 0,0 0,0 64,0 102,-38 102,-89 0,-51 -38,-102 -89,-115 -51,0 -102,38 -102,89 -13,51 38,102 89,115z"/>
   <path class="fil2" d="M32074 5354c0,0 13,0 0,0 51,0 102,-38 102,-89 0,-51 -38,-103 -89,-103 -51,0 -102,39 -102,90 0,51 38,102 89,102z"/>
   <path class="fil2" d="M25659 7488c26,0 39,-13 64,-26 38,-38 51,-102 13,-140 -38,-38 -102,-51 -141,-13 -38,38 -51,102 -12,141 25,25 51,38 76,38z"/>
   <path class="fil2" d="M25225 7871c25,0 51,-12 64,-25 38,-38 38,-102 0,-141 -39,-38 -103,-38 -141,0l0 0c-38,39 -38,102 0,141 26,13 51,25 77,25z"/>
   <path class="fil2" d="M26119 7143c26,0 39,0 64,-13 38,-25 51,-89 26,-140 -26,-39 -90,-51 -141,-26 -38,26 -51,90 -25,141 12,13 38,38 76,38z"/>
   <path class="fil2" d="M24432 8715c26,0 52,-13 77,-38 38,-39 26,-103 -13,-141 -38,-38 -102,-26 -140,13 -39,38 -26,102 13,140 25,13 51,26 63,26z"/>
   <path class="fil2" d="M24816 8280c25,0 51,-12 77,-25 38,-38 38,-102 0,-141 -39,-38 -103,-38 -141,0 -38,39 -38,102 0,141 13,13 38,25 64,25z"/>
   <path class="fil2" d="M28125 6019c13,0 26,0 39,-13 51,-26 76,-77 51,-128 -26,-51 -77,-77 -128,-51 -51,25 -77,77 -51,128 13,51 51,64 89,64z"/>
   <path class="fil2" d="M34323 5737c13,0 13,0 26,0 38,0 76,-25 89,-63 13,-52 -13,-103 -64,-128 -51,-13 -102,13 -128,64 -12,51 26,115 77,127z"/>
   <path class="fil2" d="M27602 6249c12,0 25,0 38,-13 51,-26 77,-77 51,-128 -26,-51 -77,-77 -128,-51 -51,25 -64,77 -51,128 13,51 51,64 90,64z"/>
   <path class="fil2" d="M27090 6517c13,0 39,0 52,-13 51,-25 63,-89 38,-128 -26,-51 -90,-64 -128,-38 -51,26 -64,90 -38,128 13,38 38,51 76,51z"/>
   <path class="fil2" d="M26592 6811c13,0 38,0 51,-13 51,-26 64,-89 26,-141 -26,-51 -90,-63 -141,-25 -51,25 -64,89 -25,140 25,26 64,39 89,39z"/>
   <path class="fil2" d="M39690 9903c13,0 38,0 51,-13 51,-25 64,-89 38,-127 -25,-51 -89,-64 -140,-39 -51,26 -64,90 -38,128 25,38 63,51 89,51z"/>
   <path class="fil2" d="M40521 11948c12,38 51,64 89,64 13,0 13,0 26,0 51,-13 76,-77 64,-128 -13,-51 -77,-77 -128,-64 -39,26 -64,77 -51,128z"/>
   <path class="fil2" d="M40431 11475c13,0 26,0 39,-13 51,-13 76,-76 63,-128 -12,-51 -76,-76 -127,-63 -51,12 -77,76 -64,127 13,51 51,77 89,77z"/>
   <path class="fil2" d="M40661 12497c13,51 51,77 102,77 13,0 13,0 26,0 51,-13 89,-64 77,-115 -13,-51 -64,-90 -115,-77 -64,13 -103,64 -90,115z"/>
   <path class="fil2" d="M39383 9418c13,0 39,0 51,-13 52,-26 64,-90 26,-141l0 0c-26,-51 -89,-64 -141,-25 -51,25 -63,89 -25,140 25,26 64,39 89,39z"/>
   <path class="fil2" d="M40214 10938c13,0 26,0 38,-13 51,-25 77,-76 51,-127 -25,-51 -76,-77 -127,-51 -52,25 -77,76 -52,127 26,39 52,64 90,64z"/>
   <path class="fil2" d="M39971 10414c13,0 26,0 38,-12 52,-26 64,-90 39,-128 -26,-51 -90,-64 -128,-39 -51,26 -64,90 -38,128 25,26 51,51 89,51z"/>
   <path class="fil2" d="M34860 5916c13,0 25,0 38,0 38,0 77,-25 90,-64 12,-51 -13,-102 -64,-127l0 0c-51,-26 -103,12 -128,64 -13,51 13,115 64,127z"/>
   <path class="fil2" d="M40891 14197c0,51 51,89 102,89 0,0 0,0 0,0 51,0 103,-51 90,-102 0,-51 -51,-102 -102,-89 -51,0 -90,51 -90,102z"/>
   <path class="fil2" d="M41006 14670c-51,0 -102,38 -102,102 0,51 38,102 102,102 0,0 0,0 0,0 51,0 102,-38 102,-102 -12,-51 -51,-102 -102,-102z"/>
   <path class="fil2" d="M40853 13622c0,51 51,89 102,89 0,0 0,0 13,0 51,0 89,-51 89,-102 0,-51 -51,-89 -102,-89 -64,0 -102,51 -102,102z"/>
   <path class="fil2" d="M40776 13060c0,0 0,0 0,0 13,51 51,76 102,76 0,0 13,0 13,0 51,-13 90,-64 77,-115 -13,-51 -64,-89 -115,-76 -51,12 -90,63 -77,115z"/>
   <path class="fil2" d="M39051 8958c26,0 38,0 64,-26 38,-38 51,-89 13,-141 -39,-38 -90,-51 -141,-12 -38,38 -51,89 -13,140 13,26 39,39 77,39z"/>
   <path class="fil2" d="M36406 6658c13,12 38,12 51,12 38,0 64,-12 90,-51 25,-51 12,-102 -39,-140 -51,-26 -102,-13 -140,38 -26,51 -13,102 38,141z"/>
   <path class="fil2" d="M35396 6134c13,0 26,12 39,12 38,0 76,-25 89,-64 26,-51 0,-102 -51,-127 -51,-26 -102,0 -128,51 -25,38 0,102 51,128z"/>
   <path class="fil2" d="M36943 6977c25,0 64,-13 76,-38 26,-39 13,-103 -25,-141 -39,-25 -102,-13 -141,26 -25,38 -13,102 26,140 25,0 38,13 64,13z"/>
   <path class="fil2" d="M35908 6376c12,13 25,13 38,13 38,0 77,-13 89,-51 26,-51 0,-102 -38,-128 -51,-25 -102,0 -128,39 -25,38 -13,102 39,127z"/>
   <path class="fil2" d="M38208 8050c0,0 13,0 0,0 25,26 51,39 76,39 26,0 52,-13 64,-26 39,-38 39,-102 0,-141 0,0 0,0 -12,0 0,0 0,0 0,-12 -39,-39 -103,-39 -141,0 -26,38 -26,102 13,140 0,0 0,0 0,0z"/>
   <path class="fil2" d="M37403 7309c25,0 64,-13 76,-38 39,-38 26,-102 -12,-141 -39,-38 -103,-25 -141,13 -38,38 -26,102 13,141 25,25 51,25 64,25z"/>
   <path class="fil2" d="M38681 8510c25,0 51,-12 63,-25 39,-38 52,-102 13,-141 -38,-38 -102,-38 -140,-13 -39,39 -51,103 -13,141 25,26 51,38 77,38z"/>
   <path class="fil2" d="M37850 7680c26,0 51,-13 77,-39 38,-38 25,-102 -13,-140 -38,-38 -102,-26 -141,13 -38,38 -25,102 13,140 26,13 38,26 64,26z"/>
   <path class="fil2" d="M23704 9635c13,13 38,13 51,13 26,0 64,-13 77,-39 26,-51 13,-102 -26,-140 -38,-26 -102,-13 -140,25 -13,39 0,103 38,141z"/>
   <path class="fil2" d="M34579 23397c-51,13 -77,77 -64,128 13,38 51,64 89,64 13,0 26,0 26,0 51,-13 77,-77 64,-128 -13,-51 -64,-89 -115,-64z"/>
   <path class="fil2" d="M34029 23551c-51,12 -89,64 -77,115 13,38 52,76 90,76 13,0 13,0 26,0 51,-12 89,-64 63,-115 13,-51 -51,-89 -102,-76z"/>
   <path class="fil2" d="M33480 23678c-51,13 -90,64 -77,115 13,52 51,77 102,77 13,0 13,0 26,0 51,-13 89,-64 76,-115 -25,-51 -76,-77 -127,-77z"/>
   <path class="fil2" d="M35115 23193c-51,25 -76,77 -51,128 13,38 51,64 90,64 13,0 25,0 38,-13 51,-26 77,-77 51,-128 -25,-38 -77,-64 -128,-51z"/>
   <path class="fil2" d="M23423 10121c13,12 26,12 51,12 38,0 64,-12 90,-51 25,-51 12,-102 -39,-128 -51,-25 -102,-12 -127,39l0 0c-52,51 -26,102 25,128z"/>
   <path class="fil2" d="M36150 22707c-51,26 -64,90 -38,128 13,38 51,51 90,51 12,0 25,0 51,-13 51,-25 64,-89 38,-127 -38,-51 -102,-64 -141,-39z"/>
   <path class="fil2" d="M35639 22963c-51,25 -64,77 -51,128 13,38 51,51 90,51 12,0 25,0 38,-13 51,-26 77,-77 51,-128 -26,-38 -77,-51 -128,-38z"/>
   <path class="fil2" d="M37109 22094c-39,26 -51,89 -26,141 13,25 51,38 77,38 25,0 38,-13 64,-13 38,-38 51,-89 25,-141 -38,-38 -102,-51 -140,-25z"/>
   <path class="fil2" d="M31205 23857c-51,0 -102,39 -102,90 0,51 38,102 89,102 0,0 0,0 0,0 51,0 103,-38 103,-89 0,-52 -39,-103 -90,-103z"/>
   <path class="fil2" d="M30630 23806c-51,0 -102,39 -102,90 -13,51 38,102 89,102 0,0 13,0 13,0 51,0 90,-38 102,-90 0,-38 -38,-89 -102,-102z"/>
   <path class="fil2" d="M29506 23615c-52,-13 -103,25 -115,76 -13,51 25,102 76,115 13,0 13,0 26,0 38,0 89,-25 89,-76 13,-52 -13,-103 -76,-115z"/>
   <path class="fil2" d="M32342 23845c-51,0 -89,51 -89,102 0,51 51,89 102,89 0,0 0,0 13,0 51,0 89,-51 89,-102 -12,-64 -64,-102 -115,-89z"/>
   <path class="fil2" d="M31780 23870c-51,0 -102,38 -102,102 0,51 38,103 102,103l0 0c51,0 102,-39 102,-103 -12,-64 -51,-115 -102,-102z"/>
   <path class="fil2" d="M32917 23781c-51,12 -89,51 -89,115 13,51 51,89 102,89 0,0 13,0 13,0 51,-13 89,-51 89,-115 -12,-64 -63,-102 -115,-89z"/>
   <path class="fil2" d="M30068 23730c-51,-13 -102,25 -115,76 -13,51 25,102 77,115 0,0 12,0 12,0 51,0 90,-38 103,-76 12,-52 -26,-103 -77,-115z"/>
   <path class="fil2" d="M40125 18580c-52,-26 -103,0 -128,51 -26,51 0,102 51,128 13,0 25,13 38,13 38,0 77,-26 90,-52 25,-64 0,-115 -51,-140z"/>
   <path class="fil2" d="M40355 18043c-52,-25 -103,0 -128,51 -26,51 0,102 51,128 13,0 25,13 38,13 38,0 77,-26 90,-64 25,-51 0,-102 -51,-128z"/>
   <path class="fil2" d="M40712 16957c-51,-13 -102,13 -115,64 -13,51 13,102 64,115 13,0 13,0 26,0 38,0 76,-26 89,-77 13,-38 -13,-89 -64,-102z"/>
   <path class="fil2" d="M37556 21749c-38,38 -51,89 -13,140 13,26 51,39 77,39 25,0 38,-13 64,-26 38,-38 51,-102 13,-140 -39,-39 -90,-51 -141,-13z"/>
   <path class="fil2" d="M40840 16395c-51,-13 -102,25 -115,76 -13,52 26,103 77,115 0,0 13,0 13,0 51,0 89,-25 102,-76 0,-64 -26,-115 -77,-115z"/>
   <path class="fil2" d="M40981 15245c-51,0 -103,38 -103,89 0,51 39,102 90,102 0,0 0,0 13,0 51,0 89,-38 102,-89 0,-51 -51,-102 -102,-102z"/>
   <path class="fil2" d="M40930 15820c-52,-13 -103,25 -115,89 -13,51 25,102 89,115 0,0 13,0 13,0 51,0 89,-38 102,-89 0,-64 -38,-103 -89,-115z"/>
   <path class="fil2" d="M40546 17506c-51,-12 -102,13 -128,64 -12,51 13,103 64,128 13,0 26,0 26,0 38,0 77,-25 89,-64 26,-64 0,-115 -51,-128z"/>
   <path class="fil2" d="M39869 19091c-51,-26 -102,-13 -128,38 -25,51 -13,102 38,128 13,13 26,13 52,13 38,0 63,-13 89,-51 13,-39 0,-102 -51,-128z"/>
   <path class="fil2" d="M38399 20969c-38,39 -38,103 0,141 13,13 39,26 64,26 26,0 51,-13 77,-26 38,-38 38,-102 0,-141 -51,-38 -115,-38 -141,0z"/>
   <path class="fil2" d="M37990 21366c-38,38 -38,102 0,140 26,26 52,26 77,26 26,0 51,-13 64,-26 38,-38 38,-102 0,-140 -38,-26 -102,-26 -141,0z"/>
   <path class="fil2" d="M38770 20548c-38,38 -26,102 13,140 13,13 38,26 64,26 25,0 51,-13 76,-38 39,-39 26,-103 -12,-141 -39,-38 -103,-38 -141,13z"/>
   <path class="fil2" d="M39115 20088c-26,38 -26,102 26,140 12,13 38,13 63,13 26,0 64,-13 77,-38 26,-39 26,-102 -25,-141 -39,-25 -103,-13 -141,26z"/>
   <path class="fil2" d="M39575 19589c-51,-25 -102,-12 -141,26 -25,38 -12,102 26,141 13,12 38,12 51,12 38,0 64,-12 90,-51 38,-38 25,-102 -26,-128z"/>
   <path class="fil2" d="M36636 22413c-51,26 -64,90 -26,141 13,26 51,51 77,51 13,0 38,0 51,-13 51,-25 64,-89 26,-140 -26,-51 -77,-64 -128,-39z"/>
   <path class="fil2" d="M22350 15705c51,0 89,-51 89,-103 0,-51 -51,-89 -102,-89 -51,0 -90,51 -90,102 0,51 39,90 103,90 0,0 0,0 0,0z"/>
   <path class="fil2" d="M22299 15130c51,0 102,-51 89,-103 0,-51 -51,-102 -102,-89 -51,0 -102,51 -90,102 0,51 51,90 103,90 0,0 0,0 0,0z"/>
   <path class="fil2" d="M22286 14555c51,0 102,-39 102,-103 0,-51 -38,-102 -102,-102 -51,0 -102,39 -102,102 12,52 51,103 102,103z"/>
   <path class="fil2" d="M22822 17749c-51,13 -76,77 -64,128 13,38 52,64 90,64 13,0 26,0 38,0 51,-13 77,-77 64,-128 -13,-51 -77,-77 -128,-64z"/>
   <path class="fil2" d="M22771 17276c-13,-51 -76,-76 -127,-63 -52,12 -77,76 -64,127 12,39 51,77 89,77 13,0 26,0 26,0 63,-38 89,-89 76,-141z"/>
   <path class="fil2" d="M22631 16714c-13,-51 -64,-89 -115,-76 -51,12 -90,63 -77,115 13,51 51,76 102,76 13,0 13,0 26,0 38,0 77,-51 64,-115z"/>
   <path class="fil2" d="M22516 16165c-13,-51 -64,-90 -115,-77 -51,13 -90,64 -77,115 13,51 51,77 102,77 0,0 13,0 13,0 51,-13 90,-64 77,-115z"/>
   <path class="fil2" d="M22311 13980c0,0 0,0 0,0 64,0 103,-39 103,-90 0,-51 -39,-102 -90,-102 -51,0 -102,38 -102,89 -13,51 25,90 89,103z"/>
   <path class="fil2" d="M22937 11168c13,0 26,13 39,13 38,0 76,-25 89,-64 26,-51 0,-102 -51,-128 -51,-25 -102,0 -128,52 -25,51 0,115 51,127z"/>
   <path class="fil2" d="M22733 11718c13,0 26,0 26,0 38,0 76,-26 89,-64 13,-51 -13,-102 -64,-128 -51,-13 -102,13 -128,64 0,51 26,102 77,128z"/>
   <path class="fil2" d="M23155 10644c12,0 25,13 38,13 38,0 77,-25 89,-51 26,-51 0,-102 -51,-128 -51,-25 -102,0 -127,51 -13,26 0,90 51,115z"/>
   <path class="fil2" d="M22452 12830c13,0 13,0 25,0 52,0 90,-26 103,-77 12,-51 -26,-102 -77,-115 -51,-13 -102,25 -115,77 -26,51 13,102 64,115z"/>
   <path class="fil2" d="M22580 12267c12,0 12,0 25,0 39,0 90,-25 90,-76 12,-52 -13,-103 -64,-115 -51,-13 -102,12 -115,63 -26,64 13,115 64,128z"/>
   <path class="fil2" d="M22362 13405c0,0 13,0 13,0 51,0 90,-39 102,-90 13,-51 -25,-102 -89,-115 -51,-13 -102,26 -115,90 0,51 38,102 89,115z"/>
   <path class="fil2" d="M27895 23078c-51,-26 -102,0 -127,51 -26,51 0,102 51,128 13,0 25,13 38,13 38,0 77,-26 90,-64 12,-51 -13,-103 -52,-128z"/>
   <path class="fil2" d="M26260 22273c-26,38 -26,102 25,140 13,13 39,13 52,13 25,0 63,-13 76,-38 26,-38 26,-102 -25,-141 -39,-25 -103,-13 -128,26z"/>
   <path class="fil2" d="M23040 18299c-51,25 -77,76 -51,127 12,39 51,64 89,64 13,0 26,0 38,-12 51,-26 77,-77 51,-128 -25,-51 -76,-77 -127,-51z"/>
   <path class="fil2" d="M25800 21928c-39,38 -26,102 13,140 12,13 38,26 63,26 26,0 64,-13 77,-38 38,-39 26,-103 -13,-141 -51,-38 -115,-26 -140,13z"/>
   <path class="fil2" d="M25353 21557c-39,39 -26,102 12,141 13,13 39,25 64,25 26,0 51,-12 77,-38 38,-38 26,-102 -13,-141 -38,-25 -102,-25 -140,13z"/>
   <path class="fil2" d="M27372 22835c-52,-25 -103,0 -128,38 -26,52 0,103 38,128 13,13 26,13 38,13 39,0 77,-13 90,-51 38,-51 13,-102 -38,-128z"/>
   <path class="fil2" d="M28419 23295c-51,-13 -102,13 -127,64 -26,51 12,102 64,128 12,0 25,0 38,0 38,0 77,-26 89,-64 13,-51 -12,-115 -64,-128z"/>
   <path class="fil2" d="M28956 23474c-51,-13 -102,13 -128,64 -12,51 13,102 64,128 13,0 13,0 26,0 38,0 76,-26 89,-64 39,-64 0,-115 -51,-128z"/>
   <path class="fil2" d="M26873 22554c-51,-26 -102,-13 -140,38 -26,51 -13,102 38,141 13,13 38,13 51,13 38,0 64,-13 90,-51 25,-52 12,-115 -39,-141z"/>
   <path class="fil2" d="M23691 19359c-25,-51 -89,-64 -127,-38 -52,26 -64,90 -39,128 13,25 51,51 90,51 13,0 38,0 51,-13 38,-25 51,-77 25,-128 0,0 0,0 0,0z"/>
   <path class="fil2" d="M25084 21161c-38,-38 -102,-38 -140,0 -39,38 -39,102 0,141 25,12 38,25 76,25 26,0 51,-13 64,-25 39,-39 39,-103 0,-141 0,0 0,0 0,0z"/>
   <path class="fil2" d="M23857 19807c-38,25 -51,89 -25,140 13,26 51,38 77,38 12,0 38,0 51,-12 38,-26 51,-90 25,-141 -25,-38 -89,-51 -128,-25z"/>
   <path class="fil2" d="M23282 18810c-51,25 -63,89 -38,128 13,38 51,51 90,51 12,0 25,0 38,-13 51,-26 64,-90 38,-128 -25,-38 -89,-64 -128,-38z"/>
   <path class="fil2" d="M24190 20279c-39,39 -51,90 -13,141 13,26 51,38 77,38 25,0 38,-13 63,-25 39,-39 52,-90 13,-141 -38,-38 -102,-38 -140,-13z"/>
   <path class="fil2" d="M24547 20739c-38,39 -38,103 -12,141 25,26 51,38 76,38 26,0 51,-12 64,-25 39,-39 39,-102 13,-141 -38,-51 -102,-51 -141,-13z"/>
   <path class="fil3" d="M28189 12165c0,281 77,524 243,728 166,205 371,397 626,563 243,179 524,345 818,511 294,166 562,358 818,562 243,217 460,460 626,741 166,281 243,626 243,1035 0,269 -51,524 -141,754 -102,230 -230,435 -409,614 -178,179 -383,306 -626,409 -242,102 -511,140 -792,140 -268,0 -486,-25 -677,-77 -192,-51 -345,-115 -473,-178 -141,-77 -268,-167 -358,-256 -51,102 -128,204 -217,294 -89,89 -192,153 -294,179l-153 0c12,-102 12,-205 25,-307 13,-89 13,-192 26,-307 13,-115 13,-217 13,-319 0,-115 0,-230 -13,-345 -13,-115 -13,-217 -26,-320 -13,-115 -13,-217 -25,-319l153 0c153,575 383,1009 690,1316 307,307 716,447 1227,447 409,0 754,-127 1009,-396 256,-268 384,-639 384,-1099 0,-281 -77,-524 -243,-728 -166,-205 -371,-396 -626,-562 -243,-179 -524,-345 -818,-511 -294,-167 -562,-358 -818,-563 -243,-217 -460,-460 -626,-741 -166,-281 -243,-626 -243,-1035 0,-230 51,-460 141,-664 89,-205 217,-384 370,-550 154,-153 345,-281 563,-370 217,-90 447,-141 690,-141 204,0 396,26 549,77 153,51 294,115 409,179 128,76 243,166 345,255 51,-102 128,-204 217,-294 90,-89 192,-153 294,-179l153 0c-12,102 -25,205 -25,307 -13,102 -13,204 -13,307 0,102 0,217 0,319 0,115 0,230 0,345 0,115 13,217 13,320 13,115 13,217 25,319l-153 0c-153,-575 -383,-1009 -664,-1316 -281,-307 -639,-447 -1048,-447 -345,0 -626,115 -856,357 -218,243 -333,563 -333,946z"/>
   <polygon class="fil3" points="30962,10926 30962,10823 33147,10823 33147,10925 32521,11079 34182,16523 35639,11181 34962,10926 34962,10823 36521,10823 36521,10926 35844,11181 33927,18235 33761,18235 31588,11079 "/>
   <path class="fil1" d="M13673 43830l0 192c-179,128 -383,192 -613,192 -115,0 -230,-26 -333,-64 -102,-39 -191,-103 -281,-179 -76,-77 -140,-166 -191,-281 -51,-115 -64,-230 -64,-358 0,-115 25,-230 64,-332 38,-103 102,-205 179,-282 76,-76 166,-153 281,-191 102,-51 230,-64 345,-64 115,0 217,13 306,38 102,26 205,77 294,154l0 191c-179,-166 -370,-255 -600,-255 -103,0 -192,25 -281,64 -90,38 -167,102 -218,166 -64,76 -115,153 -140,242 -39,90 -51,179 -51,282 0,140 25,268 89,383 64,115 153,204 256,268 102,64 217,103 345,103 102,0 217,-26 319,-64 102,-64 205,-128 294,-205z"/>
   <polygon class="fil1" points="14197,44162 14197,42616 13750,42616 13750,42488 14810,42488 14810,42616 14363,42616 14363,44162 "/>
   <polygon class="fil1" points="15232,44162 15462,43651 14849,42488 15028,42488 15539,43485 15986,42488 16152,42488 15385,44162 "/>
   <path class="fil1" d="M16510 42488l933 0 0 1547 204 0 0 472 -153 0 0 -332 -1163 0 0 332 -153 0 0 -472c115,0 191,-64 255,-179 51,-115 77,-281 77,-486l0 -882zm166 128l0 741c0,115 0,205 -13,281 -13,77 -25,154 -51,218 -26,64 -64,115 -128,166l805 0 0 -1406 -613 0z"/>
   <polygon class="fil1" points="17877,42488 18043,42488 18043,43817 19193,42425 19193,44162 19027,44162 19027,42833 17877,44226 "/>
   <path class="fil1" d="M19551 44162l460 -741c-77,0 -166,-13 -230,-51 -77,-38 -140,-89 -179,-153 -51,-64 -64,-154 -64,-243 0,-51 13,-115 26,-166 13,-51 51,-102 89,-153 39,-52 103,-90 179,-115 77,-26 166,-39 281,-39l397 0 0 1674 -167 0 0 -741 -153 0 -447 741 -192 0 0 -13zm767 -869l0 -664 -230 0c-102,0 -192,26 -281,64 -90,38 -128,128 -128,268 0,217 128,333 396,333l243 -1z"/>
   <path class="fil1" d="M21877 42488l933 0 0 1547 204 0 0 472 -153 0 0 -332 -1163 0 0 332 -153 0 0 -472c115,0 191,-64 255,-179 51,-115 77,-281 77,-486l0 -882zm153 128l0 741c0,115 0,205 -13,281 -12,77 -25,154 -51,218 -25,64 -64,115 -128,166l806 0 0 -1406 -614 0z"/>
   <path class="fil1" d="M23167 43319c0,-115 26,-230 64,-345 39,-102 103,-204 179,-281 77,-77 179,-141 281,-192 115,-51 230,-64 371,-64 140,0 255,26 370,64 115,51 205,115 294,192 77,77 141,179 179,281 39,102 64,217 64,345 0,115 -25,230 -64,345 -38,102 -102,204 -179,281 -76,77 -179,141 -294,192 -115,51 -230,64 -370,64 -141,0 -256,-26 -371,-64 -115,-39 -204,-115 -294,-192 -76,-77 -140,-179 -178,-281 -39,-102 -52,-217 -52,-345zm167 0c0,102 12,192 51,281 38,90 89,166 153,243 64,77 141,128 230,166 90,38 192,64 294,64 115,0 204,-26 307,-64 89,-38 166,-90 230,-166 63,-77 115,-154 153,-243 38,-89 51,-192 51,-281 0,-102 -13,-192 -51,-281 -38,-90 -90,-166 -153,-243 -64,-64 -141,-128 -230,-166 -90,-38 -192,-64 -307,-64 -115,0 -205,26 -307,64 -89,38 -166,89 -230,166 -64,64 -115,153 -153,243 -26,89 -38,192 -38,281z"/>
   <path class="fil1" d="M26707 43830l0 192c-179,128 -383,192 -613,192 -115,0 -230,-26 -333,-64 -102,-39 -191,-103 -281,-179 -76,-77 -140,-166 -191,-281 -51,-115 -64,-230 -64,-358 0,-115 25,-230 64,-332 38,-103 102,-205 179,-282 76,-76 166,-140 281,-191 102,-51 230,-64 345,-64 115,0 217,13 306,38 103,26 205,77 294,154l0 191c-179,-166 -370,-255 -600,-255 -103,0 -192,25 -281,64 -90,38 -167,102 -218,166 -64,76 -115,153 -140,242 -39,90 -51,179 -51,282 0,140 25,268 89,383 64,115 153,204 256,268 102,64 217,103 345,103 102,0 217,-26 319,-64 102,-64 205,-128 294,-205z"/>
   <polygon class="fil1" points="27231,44162 27231,42616 26784,42616 26784,42488 27844,42488 27844,42616 27397,42616 27397,44162 "/>
   <polygon class="fil1" points="28266,44162 28496,43651 27883,42488 28062,42488 28573,43485 29020,42488 29186,42488 28419,44162 "/>
   <polygon class="fil1" points="29391,44162 29391,42488 30681,42488 30681,44162 30515,44162 30515,42616 29557,42616 29557,44162 "/>
   <polygon class="fil1" points="31090,44162 31090,42488 31256,42488 31256,43178 32215,43178 32215,42488 32381,42488 32381,44162 32227,44162 32227,43306 31269,43306 31269,44162 "/>
   <path class="fil1" d="M32713 43319c0,-115 26,-230 64,-345 38,-102 102,-204 179,-281 76,-77 179,-141 281,-192 115,-51 230,-64 370,-64 141,0 256,26 371,64 115,51 204,115 294,192 77,77 140,179 179,281 38,102 64,217 64,345 0,115 -26,230 -64,345 -39,102 -102,204 -179,281 -77,77 -179,141 -294,192 -115,51 -230,64 -371,64 -140,0 -255,-26 -370,-64 -115,-51 -205,-115 -294,-192 -77,-77 -141,-179 -179,-281 -26,-102 -51,-217 -51,-345zm179 0c0,102 13,192 51,281 38,90 89,166 153,243 64,77 141,128 230,166 90,38 192,64 294,64 115,0 205,-26 307,-64 89,-38 166,-90 230,-166 64,-77 115,-154 153,-243 39,-89 51,-192 51,-281 0,-102 -12,-192 -51,-281 -38,-90 -89,-166 -153,-243 -64,-64 -141,-128 -230,-166 -90,-38 -192,-64 -307,-64 -115,0 -204,26 -306,64 -90,38 -167,89 -230,166 -64,64 -115,153 -154,243 -38,89 -38,192 -38,281z"/>
   <path class="fil1" d="M34860 42488l166 0 0 1329 1150 -1392 0 1737 -166 0 0 -1329 -1150 1393 0 -1738zm306 -306l128 -51c13,51 39,76 77,102 38,25 89,38 128,38 115,0 179,-51 217,-140l128 51c-39,76 -90,140 -154,166 -64,25 -127,38 -191,38 -64,0 -128,-13 -192,-38 -51,-26 -102,-90 -141,-166z"/>
   <path class="fil1" d="M37543 42488l933 0 0 1547 205 0 0 472 -154 0 0 -332 -1163 0 0 332 -153 0 0 -472c115,0 192,-64 256,-179 51,-115 76,-281 76,-486l0 -882zm166 128l0 741c0,115 0,205 -12,281 -13,77 -26,154 -52,218 -25,64 -63,115 -127,166l805 0 0 -1406 -614 0z"/>
   <polygon class="fil1" points="38923,44162 38923,42488 39818,42488 39818,42616 39089,42616 39089,43153 39792,43153 39792,43281 39089,43281 39089,44022 39818,44022 39818,44150 38923,44150 "/>
   <polygon class="fil1" points="40150,44162 40150,42488 41441,42488 41441,44162 41275,44162 41275,42616 40316,42616 40316,44162 "/>
   <polygon class="fil1" points="41850,42488 42016,42488 42016,43817 43166,42425 43166,44162 43000,44162 43000,42833 41850,44226 "/>
   <path class="fil1" d="M43741 42488l933 0 0 1674 -166 0 0 -1546 -601 0 0 907c0,103 0,192 -13,269 -13,77 -25,140 -64,204 -25,51 -64,103 -128,128 -51,26 -127,51 -204,51 -26,0 -77,0 -128,-13l0 -127c51,12 77,12 90,12 76,0 140,-25 191,-76 39,-51 64,-102 77,-179 13,-77 13,-154 13,-256l0 -1048z"/>
   <path class="fil1" d="M45044 44162l460 -741c-76,0 -166,-13 -230,-51 -76,-38 -140,-89 -179,-153 -51,-64 -64,-154 -64,-243 0,-51 13,-115 26,-166 13,-51 51,-102 90,-153 38,-52 102,-90 178,-115 77,-26 167,-39 282,-39l396 0 0 1674 -167 0 0 -741 -153 0 -447 741 -192 0 0 -13zm767 -869l0 -664 -230 0c-102,0 -192,26 -281,64 -90,38 -128,128 -128,268 0,217 128,333 396,333l243 -1z"/>
   <polygon class="fil1" points="46386,44162 46386,42488 46552,42488 46552,44035 47498,44035 47498,42488 47664,42488 47664,44035 47868,44035 47868,44507 47715,44507 47715,44175 46386,44175 "/>
   <polygon class="fil1" points="48086,42488 48252,42488 48252,43817 49402,42425 49402,44162 49236,44162 49236,42833 48086,44226 "/>
   <polygon class="fil1" points="49811,42488 49977,42488 49977,43817 51127,42425 51127,44162 50961,44162 50961,42833 49811,44226 "/>
  </g>
 </g>
</svg>
