<?xml version="1.0" encoding="UTF-8"?>
<!DOCTYPE svg PUBLIC "-//W3C//DTD SVG 1.1//EN" "http://www.w3.org/Graphics/SVG/1.1/DTD/svg11.dtd">
<!-- Creator: CorelDRAW X7 -->
<svg xmlns="http://www.w3.org/2000/svg" xml:space="preserve" width="1179px" height="1179px" version="1.1" style="shape-rendering:geometricPrecision; text-rendering:geometricPrecision; image-rendering:optimizeQuality; fill-rule:evenodd; clip-rule:evenodd"
viewBox="0 0 76128 76128"
 xmlns:xlink="http://www.w3.org/1999/xlink">
 <defs>
  <style type="text/css">
   <![CDATA[
    .fil3 {fill:none}
    .fil0 {fill:#FEFEFE}
    .fil1 {fill:#9A8111}
    .fil2 {fill:white}
   ]]>
  </style>
 </defs>
 <g id="Слой_x0020_1">
  <metadata id="CorelCorpID_0Corel-Layer"/>
  <path class="fil0" d="M5671 49032c0,361 108,683 322,951 215,269 483,510 805,738 321,228 670,442 1059,657 375,214 737,456 1059,737 322,268 590,590 805,966 214,375 321,817 321,1340 0,349 -67,684 -187,979 -121,308 -309,577 -537,791 -228,228 -496,402 -818,523 -308,121 -656,188 -1018,188 -336,0 -631,-40 -872,-107 -241,-67 -442,-148 -603,-242 -188,-94 -349,-214 -470,-335 -67,134 -174,255 -295,375 -120,121 -254,188 -388,228l-202 0c14,-120 14,-254 27,-402 14,-121 14,-241 27,-389 14,-147 14,-281 14,-415 0,-148 0,-309 -14,-456 -13,-148 -13,-282 -27,-416 -13,-148 -13,-282 -27,-416l202 0c201,751 509,1314 898,1703 389,389 925,590 1595,590 537,0 979,-174 1314,-523 335,-348 510,-818 510,-1434 0,-362 -107,-684 -322,-952 -215,-268 -483,-510 -805,-738 -321,-228 -670,-442 -1059,-657 -375,-214 -737,-456 -1059,-737 -322,-268 -590,-590 -804,-965 -215,-362 -322,-818 -322,-1341 0,-309 53,-590 174,-858 121,-268 282,-510 483,-711 201,-201 442,-362 724,-483 281,-120 576,-174 898,-174 268,0 510,40 711,107 201,67 375,148 523,228 160,94 308,215 442,335 67,-134 174,-254 295,-375 121,-121 255,-188 389,-228l201 0c-13,134 -27,268 -40,402 -14,121 -14,255 -27,403 0,134 0,281 0,415 0,148 0,309 0,456 0,148 13,282 27,416 13,147 27,281 40,416l-201 -1c-201,-750 -496,-1314 -858,-1702 -362,-389 -818,-590 -1354,-590 -443,0 -805,147 -1100,456 -308,335 -456,737 -456,1247z"/>
  <path class="fil0" d="M13783 53952l-2762 0 -670 2293 871 335 0 134 -2024 0 0 -134 871 -335 2628 -9158 201 0 2829 9292 805 201 0 134 -2829 0 0 -134 804 -201 -724 -2427zm-2695 -255l2615 0 -1341 -4451 -1274 4451z"/>
  <polygon class="fil0" points="17912,51860 17912,56365 18717,56567 18717,56701 15955,56701 15955,56567 16760,56365 16760,47610 15955,47409 15955,47275 18717,47275 18717,47409 17912,47610 17912,51579 20674,51579 20674,47610 19870,47409 19870,47275 22632,47275 22632,47409 21827,47610 21827,56365 22632,56567 22632,56701 19870,56701 19870,56567 20674,56365 20674,51860 "/>
  <path class="fil0" d="M26829 53952l-2762 0 -671 2293 872 335 0 134 -2025 0 0 -134 872 -335 2628 -9158 201 0 2829 9292 804 201 0 134 -2829 0 0 -134 805 -201 -724 -2427zm-2695 -255l2614 0 -1341 -4451 -1273 4451z"/>
  <path class="fil0" d="M31494 47289c577,0 1073,67 1489,187 415,121 777,295 1045,510 282,214 483,469 617,750 134,282 201,590 201,912 0,255 -40,496 -120,697 -81,202 -175,376 -295,537 -121,161 -268,295 -429,402 -161,107 -322,201 -483,268 -389,174 -818,282 -1301,322 389,40 751,134 1073,281 282,121 536,309 778,550 241,242 388,577 429,979l268 2360c13,174 53,295 120,362 68,67 135,107 215,107 40,0 94,-13 148,-54 53,-26 93,-67 147,-120 40,-40 81,-108 121,-175l134 135c-54,120 -134,214 -228,308 -81,67 -188,134 -322,201 -134,67 -281,94 -469,94 -309,0 -550,-94 -751,-268 -188,-175 -308,-376 -335,-617l-268 -2360c-41,-308 -94,-563 -175,-777 -80,-215 -187,-389 -335,-523 -134,-134 -322,-228 -536,-295 -215,-67 -469,-94 -778,-94l-536 0 0 4371 804 201 0 134 -2762 0 0 -134 805 -201 0 -8756 -805 -201 0 -134 2534 0 0 41zm2092 2359c0,-670 -174,-1193 -536,-1542 -362,-362 -872,-536 -1542,-536l-536 0 0 4170 536 0c670,0 1193,-174 1542,-537 348,-375 536,-884 536,-1555z"/>
  <path class="fil0" d="M45505 50895l0 94c-254,13 -469,67 -630,161 -161,94 -308,241 -429,442 -121,202 -255,470 -389,818 -147,389 -281,697 -389,925 -107,228 -201,403 -281,537 -81,134 -161,241 -228,348 27,27 161,134 389,362 241,215 442,403 603,550 376,322 671,523 885,617 215,94 429,134 630,147l0 81 -1636 0c-603,-483 -1045,-859 -1340,-1140 -201,268 -496,550 -912,845 -402,308 -885,456 -1435,456 -295,0 -576,-54 -817,-148 -255,-107 -470,-241 -657,-442 -188,-188 -336,-403 -443,-644 -107,-241 -147,-483 -147,-737 0,-497 147,-939 455,-1328 309,-389 671,-724 1113,-1019l-67 -67c-321,-362 -563,-684 -751,-979 -174,-294 -268,-616 -268,-938 0,-308 81,-617 255,-885 174,-281 402,-496 711,-670 295,-175 643,-255 1005,-255 483,0 885,134 1180,402 295,268 456,604 456,1006 0,442 -174,831 -510,1180 -348,348 -764,670 -1246,965 174,201 455,509 844,885l764 791c295,308 564,576 792,778 187,-282 388,-698 603,-1221 214,-522 322,-951 322,-1287 0,-214 -54,-362 -175,-429 -107,-67 -254,-107 -429,-107l0 -94 2172 0zm-5497 1100c-724,482 -1086,1059 -1086,1716 0,335 94,643 282,925 187,281 429,496 724,657 295,161 603,241 898,241 268,0 510,-53 724,-147 215,-94 402,-201 550,-322 147,-121 308,-255 456,-416 -295,-281 -537,-509 -684,-670 -161,-161 -322,-335 -510,-510 -174,-187 -361,-375 -549,-590 -188,-214 -470,-496 -805,-884zm469 -604c376,-241 671,-483 899,-751 228,-268 348,-576 348,-952 0,-227 -53,-442 -161,-643 -107,-201 -254,-375 -455,-510 -202,-134 -429,-187 -671,-187 -348,0 -617,107 -804,308 -188,201 -282,456 -282,738 0,187 54,415 174,657 108,254 255,496 429,724 175,214 349,428 523,616z"/>
  <polygon class="fil0" points="46471,47423 46471,47288 49300,47289 49300,47423 48495,47624 50654,54690 52544,47758 51673,47423 51673,47289 53697,47289 53697,47423 52826,47758 50332,56915 50131,56915 47302,47624 "/>
  <path class="fil0" d="M58953 51995c0,831 -94,1541 -282,2158 -187,617 -429,1126 -724,1529 -294,402 -643,710 -1019,911 -375,201 -764,309 -1139,309 -389,0 -764,-108 -1140,-309 -375,-201 -710,-509 -1019,-911 -295,-403 -549,-926 -724,-1529 -187,-617 -281,-1341 -281,-2158 0,-832 94,-1542 281,-2159 188,-617 429,-1126 724,-1529 295,-402 644,-710 1019,-911 376,-201 764,-309 1140,-309 389,0 764,108 1139,309 376,201 711,509 1019,911 295,403 537,926 724,1529 188,617 282,1341 282,2159zm-1274 0c0,-926 -53,-1690 -174,-2293 -107,-604 -255,-1086 -442,-1448 -188,-362 -389,-617 -617,-751 -228,-148 -443,-215 -657,-215 -215,0 -429,67 -657,215 -228,148 -429,389 -617,751 -187,362 -335,844 -442,1448 -107,603 -174,1367 -174,2293 0,925 53,1689 174,2292 107,604 255,1086 442,1448 188,362 389,617 617,751 228,148 442,215 657,215 214,0 429,-67 657,-215 228,-147 429,-389 617,-751 187,-362 335,-844 442,-1448 121,-603 174,-1367 174,-2292z"/>
  <path class="fil0" d="M60066 49032c0,361 107,683 322,951 214,269 482,510 804,738 322,228 671,442 1059,657 376,214 738,456 1060,737 321,268 590,590 804,966 215,362 322,817 322,1340 0,349 -67,684 -188,979 -120,308 -308,577 -536,791 -228,228 -496,402 -818,523 -308,121 -657,188 -1019,188 -335,0 -630,-40 -871,-107 -242,-67 -443,-148 -604,-242 -188,-94 -348,-214 -469,-335 -67,134 -174,255 -295,375 -121,121 -255,188 -389,228l-201 0c13,-120 13,-254 27,-402 13,-121 13,-241 27,-389 13,-147 13,-281 13,-415 0,-148 0,-309 -13,-456 -14,-148 -14,-282 -27,-416 -14,-148 -14,-282 -27,-416l201 0c201,751 510,1314 898,1703 389,389 926,590 1596,590 536,0 979,-174 1314,-523 335,-348 509,-818 509,-1434 0,-362 -107,-684 -322,-952 -214,-268 -482,-510 -804,-738 -322,-228 -670,-442 -1059,-657 -376,-214 -738,-456 -1059,-737 -322,-268 -590,-590 -805,-965 -214,-362 -322,-818 -322,-1341 0,-309 54,-590 175,-858 120,-268 281,-510 482,-711 201,-201 443,-362 724,-483 282,-120 577,-174 899,-174 268,0 509,40 710,107 201,67 376,148 523,228 161,94 308,215 443,335 67,-134 174,-254 294,-375 121,-121 255,-188 389,-228l202 0c-14,134 -27,268 -41,402 -13,121 -13,255 -26,403 0,134 0,281 0,415 0,148 0,309 0,456 0,148 13,282 26,416 14,147 27,281 41,416l-202 -1c-201,-750 -496,-1314 -858,-1702 -362,-389 -818,-590 -1354,-590 -442,0 -804,147 -1099,456 -309,335 -456,737 -456,1247z"/>
  <polygon class="fil0" points="66488,53215 66488,56379 67293,56580 67293,56714 64531,56714 64531,56580 65335,56379 65335,47624 64531,47423 64531,47288 67293,47289 67293,47423 66488,47624 66488,52745 69384,47758 68513,47423 68513,47289 70537,47289 70537,47423 69666,47758 67950,50681 70658,56379 71462,56580 71462,56714 68566,56714 68566,56580 69371,56379 67252,51887 "/>
  <path class="fil1" d="M44540 23356c-1797,-1770 -4170,-2749 -6690,-2749 -2521,0 -4894,979 -6691,2749 -1770,1797 -2748,4170 -2748,6690 0,2521 978,4894 2748,6691 1797,1770 4170,2748 6691,2748 2520,0 4893,-978 6690,-2748 1770,-1797 2749,-4170 2749,-6691 13,-2520 -966,-4893 -2749,-6690zm-134 13247c-1757,1743 -4076,2695 -6556,2695 -2467,0 -4800,-952 -6557,-2695 -1743,-1757 -2695,-4076 -2695,-6557 0,-2467 952,-4800 2695,-6556 1757,-1743 4076,-2695 6557,-2695 2467,0 4799,952 6556,2695 1743,1756 2695,4076 2695,6556 0,2467 -952,4800 -2695,6557z"/>
  <path class="fil1" d="M47061 20849c201,-27 402,-27 603,0 67,-242 121,-483 134,-738 -255,27 -496,67 -737,134 26,202 26,403 0,604z"/>
  <path class="fil0" d="M47061 39244c26,201 26,402 0,603 241,67 482,121 737,134 -27,-254 -67,-496 -134,-737 -201,27 -402,27 -603,0z"/>
  <path class="fil0" d="M28652 39244c-201,27 -402,27 -603,0 -67,241 -121,483 -135,737 255,-26 497,-67 738,-134 -27,-201 -27,-402 0,-603z"/>
  <path class="fil1" d="M28652 20849c-27,-201 -27,-402 0,-604 -241,-67 -483,-120 -738,-134 27,255 68,496 135,738 201,-27 402,-40 603,0z"/>
  <path class="fil1" d="M43159 19066c-27,-175 -54,-349 -107,-523 -161,80 -309,174 -456,295 80,120 134,254 161,402 120,-81 255,-134 402,-174z"/>
  <path class="fil1" d="M27043 25139c-80,-120 -134,-255 -161,-402 -174,27 -349,54 -523,107 81,161 174,309 295,456 121,-67 255,-121 389,-161z"/>
  <path class="fil0" d="M32554 41027c26,174 53,349 107,523 161,-80 308,-174 456,-295 -81,-121 -134,-255 -161,-402 -121,80 -255,134 -402,174z"/>
  <path class="fil1" d="M48669 34954c81,120 135,254 161,402 175,-27 349,-54 523,-107 -80,-161 -174,-309 -295,-456 -120,67 -254,120 -389,161z"/>
  <path class="fil1" d="M49353 24858c-174,-54 -348,-94 -523,-108 -40,134 -94,282 -161,403 135,40 269,94 403,161 107,-148 201,-295 281,-456z"/>
  <path class="fil1" d="M33117 18838c-134,-108 -295,-215 -456,-295 -54,174 -94,348 -107,523 134,40 281,93 402,161 27,-135 94,-269 161,-389z"/>
  <path class="fil1" d="M26359 35235c175,54 349,94 523,107 40,-134 94,-281 161,-402 -134,-40 -268,-94 -402,-161 -107,148 -201,295 -282,456z"/>
  <path class="fil0" d="M42596 41255c134,107 295,215 456,295 53,-174 94,-349 107,-523 -134,-40 -282,-94 -402,-161 -40,134 -94,268 -161,389z"/>
  <path class="fil1" d="M51847 30087c-27,-14 -54,-27 -94,-41 27,-13 67,-26 94,-40 188,-107 335,-281 389,-496 53,-201 40,-416 -67,-576 -107,-161 -282,-269 -469,-269 0,0 -14,0 -14,0 -134,0 -255,108 -255,255 0,134 108,255 255,255 121,0 228,-94 241,-215 27,27 54,54 67,81 68,107 81,268 41,416 -41,160 -161,294 -295,375 -148,80 -322,107 -483,67 -228,-54 -402,-228 -576,-402 -41,-40 -68,-67 -108,-108 -67,-53 -134,-120 -201,-160 67,-161 107,-336 94,-510 -13,-228 -107,-456 -282,-657 -93,-107 -201,-214 -335,-308 94,0 188,-14 282,-54 201,-13 402,-94 563,-214 228,-188 375,-483 375,-792 0,-147 -27,-294 -40,-455 0,-148 27,-309 148,-416 -188,40 -349,174 -429,335 -54,-67 -161,-94 -255,-67 -54,14 -94,27 -134,54 -27,-14 -40,-27 -67,-27 -282,-94 -617,13 -778,241 -13,14 -13,27 -13,40 -14,27 -14,54 -14,94 0,134 108,255 255,255 148,0 255,-107 255,-255 0,-67 -27,-134 -81,-187 108,-41 215,-41 322,0 188,67 335,254 362,469 27,214 -67,429 -241,576 -161,148 -389,215 -617,202 -134,-14 -268,-54 -402,-81 -14,0 -27,0 -40,0 -443,-161 -939,-201 -1408,-107 -121,-456 -268,-898 -443,-1327 54,13 94,13 148,13 94,0 188,-13 281,-54 282,-94 523,-308 631,-563 107,107 174,242 187,376 14,134 -27,254 -107,362 -40,-81 -121,-134 -228,-134 -134,0 -255,107 -255,254 0,134 108,255 255,255 27,0 40,0 67,-13 0,0 14,0 14,0 0,0 13,0 13,0 13,0 13,0 13,-14 269,-121 443,-416 416,-724 -27,-214 -147,-429 -322,-563 41,-228 -26,-469 -161,-644 -187,-227 -522,-321 -791,-214 -13,0 -13,0 -26,13 0,0 -14,0 -14,0 0,0 -13,0 -13,14 -14,13 -41,27 -54,40 -94,94 -94,255 0,362 94,94 255,94 362,0 67,-67 94,-174 54,-255 120,27 241,81 335,188 94,107 134,255 134,416 0,0 -13,0 -13,0 -255,-108 -577,-94 -845,40 -148,80 -268,174 -335,295 -201,-403 -416,-791 -671,-1167 54,14 94,14 148,14 147,0 308,-54 429,-148 120,-94 201,-214 254,-362 0,0 0,14 0,14 14,26 54,40 94,26 121,-13 228,-147 202,-281 134,67 294,53 442,0 134,-54 255,-161 349,-282 -242,121 -564,67 -751,-134 -107,-107 -175,-268 -282,-375 -161,-188 -415,-268 -657,-295 -161,-14 -322,0 -469,27 -94,-14 -201,-14 -295,0 -13,0 -27,0 -40,0 13,-27 13,-54 27,-81 120,-362 362,-697 670,-925 161,-121 429,-268 737,-281 269,-14 537,107 684,294 67,94 107,188 121,282 0,94 -40,188 -107,241 27,-40 40,-80 40,-134 0,-134 -107,-254 -255,-254 -40,0 -80,13 -121,26 -13,0 -26,14 -40,27 -67,54 -94,134 -94,228 0,94 41,188 108,255 120,107 321,121 469,13 121,-94 201,-241 188,-415 0,-175 -94,-309 -161,-403 -188,-241 -510,-375 -845,-362 -241,14 -483,81 -711,228 148,-228 228,-482 228,-710 14,-336 -120,-657 -362,-845 -80,-67 -228,-147 -402,-161 -174,0 -322,67 -416,188 -93,147 -93,348 14,469 53,67 147,107 255,107 0,0 0,0 0,0 93,0 174,-40 227,-94 14,-13 14,-26 27,-40 14,-40 27,-67 27,-120 0,-135 -107,-255 -255,-255 -53,0 -93,13 -134,40 54,-67 148,-107 242,-107 94,0 187,40 281,120 188,148 295,416 295,684 -13,309 -161,577 -281,738 -228,308 -564,549 -926,670 -26,13 -53,13 -80,27 0,-14 0,-27 0,-40 0,-108 0,-201 0,-295 27,-161 40,-309 27,-470 -14,-241 -107,-496 -295,-657 -121,-107 -268,-174 -376,-281 -201,-188 -254,-510 -134,-751 -120,94 -227,215 -281,349 -54,134 -67,308 0,442 -121,-27 -268,67 -282,201 0,40 0,81 27,94 0,0 14,0 14,0 -148,54 -269,148 -362,255 -135,174 -175,389 -135,576 -375,-254 -764,-469 -1166,-670 121,-67 228,-188 295,-335 134,-268 147,-590 40,-845 0,0 0,-13 0,-13 148,0 295,40 416,134 94,80 161,201 187,335 -93,-27 -187,-13 -254,54 -94,94 -94,254 0,362 94,93 254,93 362,0 13,-14 27,-41 40,-54 0,0 0,-13 13,-13 0,0 0,-14 0,-14 0,0 0,-13 14,-27 107,-268 13,-603 -215,-804 -174,-148 -415,-201 -643,-161 -134,-188 -349,-308 -563,-322 -309,-27 -604,148 -724,416 0,0 0,13 -14,13 0,0 0,14 0,14 0,0 0,13 0,13 0,27 -13,40 -13,67 0,134 107,255 254,255 135,0 255,-107 255,-255 0,-94 -53,-188 -134,-228 107,-80 228,-120 362,-107 134,13 268,80 375,188 -254,107 -469,348 -563,630 -53,147 -67,308 -40,429 -429,-174 -871,-322 -1327,-443 94,-469 53,-952 -107,-1407 0,-14 0,-27 0,-41 -41,-134 -81,-268 -81,-402 -13,-228 54,-456 201,-617 148,-174 362,-254 577,-241 214,27 402,174 469,362 40,107 27,215 0,322 -40,-54 -107,-81 -188,-81 -134,0 -254,108 -254,255 0,148 107,255 254,255 27,0 67,0 94,-14 14,0 27,-13 40,-13 242,-161 336,-496 242,-778 -14,-26 -14,-53 -27,-67 27,-40 40,-94 54,-134 13,-94 0,-187 -67,-254 174,-81 294,-242 335,-429 -108,107 -268,147 -416,147 -147,0 -295,-40 -456,-40 -295,0 -603,147 -791,375 -121,161 -201,349 -214,550 -27,94 -41,188 -54,295 -94,-134 -201,-241 -308,-335 -202,-161 -429,-255 -657,-282 -175,-13 -349,14 -510,94 -53,-67 -107,-134 -161,-201 -40,-40 -67,-81 -107,-107 -174,-188 -349,-362 -402,-577 -40,-161 -14,-335 67,-483 80,-147 214,-254 375,-294 148,-41 295,-27 416,40 27,13 53,40 80,67 -120,13 -214,120 -214,241 0,134 107,255 254,255 135,0 255,-107 255,-255 0,0 0,-13 0,-13 0,-188 -94,-362 -268,-470 -161,-94 -375,-120 -576,-67 -202,67 -389,201 -496,389 -14,27 -27,54 -41,94 -13,-27 -27,-67 -40,-94 -107,-188 -281,-335 -496,-389 -201,-53 -416,-40 -576,67 -161,108 -269,282 -269,470 0,0 0,13 0,13 0,134 108,255 255,255 134,0 255,-107 255,-255 0,-121 -94,-228 -215,-241 27,-27 54,-54 81,-67 107,-67 268,-81 415,-40 161,40 295,160 376,294 80,148 107,322 67,483 -54,228 -228,402 -402,577 -41,40 -67,67 -108,107 -53,67 -120,134 -161,201 -160,-67 -335,-107 -509,-94 -228,14 -456,107 -657,282 -107,94 -215,201 -308,335 0,-94 -27,-201 -54,-295 -13,-201 -94,-389 -215,-550 -187,-228 -482,-375 -791,-375 -147,0 -294,27 -455,40 -148,0 -309,-27 -416,-147 40,187 174,348 335,429 -67,53 -94,160 -67,254 13,54 27,94 54,134 -14,27 -27,41 -27,67 -94,282 13,617 241,778 14,13 27,13 40,13 27,14 54,14 94,14 134,0 255,-107 255,-255 0,-147 -107,-255 -255,-255 -67,0 -134,27 -187,81 -41,-107 -41,-215 0,-322 67,-188 254,-335 469,-362 214,-27 429,67 576,241 148,161 215,389 201,617 -13,134 -53,268 -80,402 0,14 0,27 0,41 -161,442 -201,938 -107,1407 -456,121 -899,269 -1328,443 27,-134 14,-282 -40,-429 -94,-282 -308,-523 -563,-630 107,-108 241,-175 376,-188 134,-13 254,27 362,107 -81,40 -135,121 -135,228 0,134 108,255 255,255 134,0 255,-107 255,-255 0,-27 0,-40 -13,-67 0,0 0,-13 0,-13 0,0 0,-14 0,-14 0,-13 0,-13 -14,-13 -121,-268 -416,-443 -724,-416 -214,27 -429,148 -563,322 -228,-40 -469,27 -644,161 -227,188 -321,523 -214,804 0,0 0,14 13,14 0,0 0,13 0,13 0,0 0,14 14,14 13,13 27,40 40,53 94,94 255,94 362,0 94,-94 94,-255 0,-362 -67,-67 -174,-94 -255,-53 27,-121 81,-242 188,-336 107,-93 255,-134 416,-134 0,0 0,14 0,14 -108,254 -94,576 40,844 80,148 174,269 295,336 -403,201 -791,415 -1167,670 40,-188 0,-416 -134,-576 -94,-121 -214,-202 -362,-255 0,0 14,0 14,0 26,-14 40,-54 26,-94 -13,-121 -147,-228 -281,-201 67,-134 53,-295 0,-443 -54,-134 -161,-254 -282,-348 121,241 67,563 -134,750 -107,108 -268,175 -375,282 -188,161 -268,416 -295,657 -14,161 0,322 27,469 -14,94 -14,201 0,295 0,14 0,27 0,40 -27,-13 -54,-13 -81,-26 -362,-121 -697,-362 -925,-671 -121,-161 -268,-429 -282,-737 -13,-268 108,-537 295,-684 94,-67 188,-107 282,-121 94,0 188,41 241,108 -40,-27 -80,-41 -134,-41 -134,0 -255,108 -255,255 0,40 14,81 27,121 0,13 14,27 27,40 54,67 148,94 228,94 94,0 188,-40 241,-107 108,-121 121,-322 14,-470 -94,-120 -242,-201 -416,-187 -174,0 -308,94 -402,161 -241,187 -376,509 -362,844 13,242 80,483 228,711 -228,-148 -483,-228 -711,-228 -335,-13 -657,121 -844,362 -68,80 -148,228 -161,402 0,161 67,322 187,416 148,94 349,94 470,-14 67,-53 107,-147 107,-254 0,-94 -40,-175 -94,-228 -13,-14 -27,-14 -40,-27 -40,-13 -67,-27 -121,-27 -134,0 -255,107 -255,255 0,53 14,94 41,134 -68,-54 -108,-148 -108,-241 0,-94 40,-188 121,-282 147,-188 416,-295 684,-295 308,14 576,161 737,282 309,228 550,563 671,925 13,27 13,53 26,80 -13,0 -26,0 -40,0 -94,0 -201,0 -295,0 -161,-27 -308,-40 -469,-27 -241,14 -496,108 -657,295 -107,121 -174,269 -282,376 -187,201 -509,255 -750,134 94,121 214,228 348,281 134,54 309,67 443,0 -27,121 67,269 201,282 40,0 80,0 94,-27 0,0 0,-13 0,-13 53,147 147,268 254,362 121,94 282,147 429,147 54,0 108,-13 148,-13 -255,375 -469,764 -670,1166 -67,-120 -188,-228 -336,-295 -268,-134 -590,-147 -844,-40 0,0 -14,0 -14,0 0,-147 40,-295 134,-416 81,-93 201,-160 336,-187 -27,94 -14,187 53,255 94,93 255,93 362,0 94,-94 94,-255 0,-362 -13,-14 -40,-27 -53,-41 0,0 -14,0 -14,-13 0,0 -13,0 -13,0 0,0 -14,0 -27,-14 -268,-107 -604,-13 -805,215 -147,174 -201,416 -161,644 -187,134 -308,348 -321,563 -27,295 147,603 415,724 0,0 14,13 14,13 0,0 13,0 13,0 0,0 14,0 14,0 26,0 40,14 67,14 134,0 254,-108 254,-255 0,-134 -107,-255 -254,-255 -94,0 -188,54 -228,134 -81,-107 -121,-228 -108,-362 14,-134 81,-268 188,-375 107,255 349,469 630,563 94,27 188,54 282,54 54,0 107,-14 147,-14 -174,429 -335,872 -442,1327 -469,-93 -952,-53 -1408,108 -13,0 -27,0 -40,0 -134,40 -268,80 -402,80 -228,14 -456,-54 -617,-201 -174,-148 -255,-362 -241,-577 27,-214 174,-402 362,-469 107,-40 214,-27 321,0 -53,40 -80,107 -80,188 0,134 107,255 255,255 147,0 254,-108 254,-255 0,-27 0,-67 -13,-94 0,-13 -13,-27 -13,-40 -161,-242 -496,-335 -778,-242 -27,14 -54,14 -67,27 -40,-27 -94,-40 -134,-53 -94,-14 -188,0 -255,67 -80,-175 -241,-295 -429,-335 107,107 148,268 148,415 0,148 -41,295 -41,456 0,295 148,603 376,791 161,134 362,201 563,215 94,27 188,40 282,53 -135,94 -242,201 -336,309 -161,201 -254,429 -281,657 -14,174 13,348 94,509 -67,54 -134,107 -202,161 -40,40 -80,67 -107,107 -187,175 -362,349 -576,403 -161,40 -335,13 -483,-68 -147,-80 -255,-214 -295,-375 -40,-147 -27,-295 40,-416 14,-26 40,-53 67,-80 14,121 121,214 242,214 134,0 254,-107 254,-254 0,-134 -107,-255 -254,-255 0,0 -14,0 -14,0 -187,0 -362,94 -469,268 -94,161 -121,376 -67,577 67,201 201,389 389,496 27,13 53,27 94,40 -27,13 -67,27 -94,40 -188,107 -335,282 -389,496 -54,201 -40,416 67,577 107,161 282,268 456,268 0,0 13,0 13,0 0,0 14,0 14,0 134,0 254,-107 254,-255 0,-134 -107,-255 -254,-255 -121,0 -228,94 -242,215 -27,-27 -53,-54 -67,-81 -67,-107 -80,-268 -40,-415 40,-161 161,-295 295,-376 148,-80 322,-107 483,-67 228,54 402,228 576,403 40,40 67,67 107,107 68,53 135,121 202,161 -67,161 -108,335 -94,509 13,228 107,456 281,657 94,107 201,215 336,309 -94,0 -202,26 -295,53 -202,14 -389,94 -550,215 -228,187 -376,482 -376,791 0,147 27,295 41,456 0,147 -27,308 -148,415 188,-40 349,-174 429,-335 54,67 161,94 255,67 53,-13 94,-27 134,-53 27,13 40,26 67,26 67,27 147,41 215,41 214,0 442,-108 563,-282 13,-13 13,-27 13,-40 13,-27 13,-54 13,-94 0,-134 -107,-255 -254,-255 -148,0 -255,107 -255,255 0,67 27,134 80,188 -107,40 -214,40 -321,0 -188,-67 -336,-255 -362,-470 -27,-214 67,-429 241,-576 161,-148 389,-215 617,-201 134,13 268,53 402,80 13,0 27,0 27,0 281,107 590,161 898,161 174,0 349,-27 510,-54 120,456 268,899 442,1328 -134,-27 -282,-14 -429,40 -282,94 -523,308 -630,563 -107,-107 -174,-241 -188,-375 -13,-134 27,-255 107,-362 41,80 121,134 228,134 134,0 255,-107 255,-255 0,-134 -107,-255 -255,-255 -27,0 -40,0 -67,14 0,0 -13,0 -13,0 0,0 -14,0 -14,0 -13,0 -13,0 -13,13 -268,121 -442,416 -416,724 27,215 148,429 322,563 -40,228 27,470 161,644 134,174 349,268 563,268 67,0 148,-13 215,-40 13,0 27,-14 40,-14 0,0 13,0 13,0 0,0 14,0 14,-13 13,-13 40,-27 53,-40 94,-94 94,-255 0,-362 -94,-94 -254,-94 -362,0 -67,67 -94,174 -53,255 -121,-27 -242,-81 -335,-188 -94,-107 -135,-255 -135,-416 0,0 14,0 14,0 107,40 241,67 362,67 161,0 335,-40 483,-120 147,-81 268,-175 335,-295 201,402 415,791 670,1166 -188,-40 -415,0 -576,134 -121,94 -201,215 -255,362 0,0 0,-13 0,-13 -13,-27 -54,-40 -94,-27 -121,13 -228,147 -201,281 -134,-67 -295,-53 -443,0 -134,54 -254,161 -348,282 241,-121 563,-67 751,134 107,107 174,268 281,376 161,187 416,268 657,294 161,14 309,0 470,-26 53,0 107,13 174,13 40,0 80,0 120,0 27,0 41,0 67,13 -13,27 -13,54 -26,81 -121,362 -362,697 -671,925 -161,121 -429,268 -737,282 -268,13 -537,-108 -684,-295 -67,-94 -107,-188 -121,-282 0,-94 41,-188 108,-241 -27,40 -41,80 -41,134 0,134 108,255 255,255 40,0 81,-14 121,-27 13,0 27,-14 40,-27 67,-54 94,-134 94,-228 0,-94 -40,-188 -107,-255 -121,-107 -322,-120 -470,-13 -120,94 -201,241 -187,416 0,174 94,308 161,402 187,228 482,362 804,362 14,0 27,0 40,0 242,-14 483,-81 711,-228 -148,228 -228,483 -228,710 -13,336 121,657 362,845 80,67 228,148 402,161 0,0 14,0 14,0 161,0 308,-67 388,-188 94,-147 94,-348 -13,-469 -54,-67 -147,-107 -255,-107 -27,0 -53,0 -80,13 -40,0 -67,14 -94,40 -27,14 -40,27 -67,54 -14,14 -14,27 -27,40 -13,40 -27,67 -27,121 0,134 107,255 255,255 54,0 94,-14 134,-41 -54,68 -147,108 -241,108 -94,0 -188,-40 -282,-121 -188,-147 -295,-416 -295,-684 14,-308 161,-576 282,-737 228,-308 563,-550 925,-671 27,-13 54,-13 80,-26 0,13 0,26 0,40 0,94 0,201 0,295 -26,161 -40,308 -26,469 13,241 107,496 294,657 121,107 269,174 376,282 201,187 255,509 134,750 121,-93 228,-214 282,-348 53,-134 67,-309 0,-443 120,27 268,-67 281,-201 0,-40 0,-80 -27,-94 0,0 -13,0 -13,0 147,-53 268,-147 362,-254 134,-175 174,-389 134,-577 375,255 764,469 1166,670 -120,68 -228,188 -295,336 -134,268 -147,590 -40,844 0,0 0,14 0,14 -147,0 -295,-40 -415,-134 -94,-81 -161,-201 -188,-336 94,27 188,14 255,-53 93,-94 93,-255 0,-362 -94,-94 -255,-94 -362,0 -14,13 -27,40 -41,54 0,0 0,13 -13,13 0,0 0,13 0,13 0,0 0,14 -13,14 -108,268 -14,603 214,804 148,121 322,175 510,175 40,0 94,0 134,-14 134,188 348,308 563,322 27,0 40,0 67,0 281,0 550,-174 657,-416 0,0 0,-13 13,-13 0,0 0,-14 0,-14 0,0 0,-13 0,-13 0,-27 14,-40 14,-67 0,-134 -108,-255 -255,-255 -134,0 -255,107 -255,255 0,94 54,188 134,228 -107,80 -228,120 -362,107 -134,-13 -268,-80 -375,-188 255,-107 469,-348 563,-630 54,-147 67,-308 40,-429 429,174 872,322 1327,443 -93,469 -53,952 108,1407 0,14 0,27 0,41 40,134 80,268 80,402 14,228 -53,456 -201,617 -147,174 -362,254 -576,241 -215,-27 -403,-174 -470,-362 -40,-107 -27,-215 0,-322 40,54 108,81 188,81 134,0 255,-108 255,-255 0,-148 -108,-255 -255,-255 -27,0 -67,0 -94,14 -13,0 -27,13 -40,13 -241,161 -335,496 -241,778 13,26 13,53 26,67 -26,40 -40,94 -53,134 -14,94 0,187 67,254 -174,81 -295,242 -335,429 107,-107 268,-147 415,-147 148,0 295,40 456,40 295,0 604,-147 791,-375 121,-161 201,-349 215,-550 27,-94 40,-188 53,-295 94,134 202,241 309,335 201,161 429,255 657,282 27,0 53,0 80,0 148,0 295,-27 429,-94 54,67 107,134 161,188 40,40 67,80 107,107 175,188 349,362 403,576 40,161 13,336 -67,483 -81,148 -215,255 -376,295 -147,40 -295,27 -415,-40 -27,-14 -54,-40 -81,-67 121,-14 215,-121 215,-241 0,-135 -108,-255 -255,-255 -134,0 -255,107 -255,255 0,0 0,13 0,13 0,188 94,362 268,469 108,67 228,94 349,94 67,0 147,-13 214,-27 202,-67 389,-201 496,-389 14,-26 27,-53 41,-93 13,26 27,67 40,93 107,188 281,336 496,389 201,54 416,40 576,-67 161,-107 269,-281 269,-469 0,0 0,-13 0,-13 0,-135 -108,-255 -255,-255 -134,0 -255,107 -255,255 0,120 94,227 215,241 -27,27 -54,53 -81,67 -107,67 -268,80 -415,40 -161,-40 -295,-161 -376,-295 -80,-147 -107,-322 -67,-483 54,-227 228,-402 402,-576 41,-40 67,-67 108,-107 53,-67 120,-134 161,-188 134,67 281,94 429,94 26,0 53,0 80,0 228,-14 456,-107 657,-282 107,-94 215,-201 308,-335 0,94 27,201 54,295 13,201 94,389 215,550 187,228 482,375 791,375 147,0 295,-27 455,-40 148,0 309,27 416,147 -40,-187 -174,-348 -335,-429 67,-53 94,-160 67,-254 -13,-54 -27,-94 -54,-134 14,-27 27,-41 27,-67 94,-282 -13,-617 -241,-778 -14,-13 -27,-13 -40,-13 -27,-14 -54,-14 -94,-14 -134,0 -255,107 -255,255 0,147 107,255 255,255 67,0 134,-27 187,-81 41,107 41,215 0,322 -67,188 -254,335 -469,362 -214,27 -429,-67 -576,-241 -148,-161 -215,-389 -201,-617 13,-134 53,-268 80,-402 0,-14 0,-27 0,-41 161,-442 201,-938 107,-1407 456,-121 899,-269 1328,-443 -27,134 -14,282 40,429 94,282 308,523 563,630 -107,108 -241,175 -376,188 -134,13 -254,-27 -362,-107 81,-40 135,-121 135,-228 0,-134 -108,-255 -255,-255 -134,0 -255,107 -255,255 0,27 0,40 13,67 0,0 0,13 0,13 0,0 0,14 0,14 0,0 0,13 14,13 107,242 375,416 657,416 27,0 40,0 67,0 214,-27 429,-148 563,-322 40,14 94,14 134,14 188,0 376,-67 510,-175 227,-187 321,-523 214,-804 0,-14 0,-14 -13,-27 0,0 0,-13 0,-13 0,0 0,-14 -14,-14 -13,-13 -27,-40 -40,-54 -94,-93 -255,-93 -362,0 -94,94 -94,255 0,362 67,67 174,94 255,54 -27,121 -81,241 -188,335 -107,94 -255,134 -415,134 0,0 0,-13 0,-13 107,-255 93,-577 -41,-845 -80,-147 -174,-268 -295,-335 403,-201 791,-416 1167,-670 -40,187 0,415 134,576 94,121 214,201 362,255 0,0 -14,0 -14,0 -26,13 -40,54 -26,94 13,120 147,228 281,201 -67,134 -53,295 0,442 54,134 161,255 282,349 -121,-241 -67,-563 134,-751 107,-107 268,-174 375,-281 188,-161 268,-416 295,-657 14,-161 0,-322 -27,-470 14,-94 14,-201 0,-295 0,-13 0,-26 0,-40 27,14 54,14 81,27 362,121 697,362 925,670 121,161 268,429 282,738 13,268 -108,536 -295,684 -94,67 -188,107 -282,120 -94,0 -188,-40 -241,-107 40,27 80,40 134,40 134,0 255,-107 255,-254 0,-41 -14,-81 -27,-121 0,-14 -14,-27 -27,-40 -27,-27 -54,-54 -94,-67 0,0 -13,0 -13,-14 0,0 -14,0 -14,0 -13,0 -27,-13 -40,-13 -27,0 -54,-14 -81,-14 -93,0 -187,41 -254,108 -108,120 -121,321 -14,469 81,121 228,188 389,188 0,0 14,0 14,0 174,0 308,-94 402,-161 241,-188 375,-510 362,-845 -14,-241 -81,-483 -228,-711 228,148 483,228 710,228 14,0 27,0 41,0 321,0 616,-134 804,-362 67,-80 148,-228 161,-402 0,-161 -67,-322 -188,-416 -147,-94 -348,-94 -469,14 -67,53 -107,147 -107,255 0,93 40,174 94,227 13,14 27,14 40,27 40,14 67,27 121,27 134,0 254,-107 254,-255 0,-53 -13,-93 -40,-134 67,54 107,148 107,242 0,94 -40,187 -120,281 -148,188 -416,295 -684,295 -308,-13 -577,-161 -737,-281 -309,-228 -550,-564 -671,-926 -13,-26 -13,-53 -27,-80 27,0 40,0 67,-13 40,0 81,0 121,0 54,0 107,0 174,-14 161,27 309,40 470,27 241,-13 496,-107 656,-295 108,-121 175,-268 282,-375 188,-201 510,-255 751,-134 -94,-121 -215,-228 -349,-282 -134,-54 -308,-67 -442,0 27,-121 -67,-268 -201,-282 -41,0 -81,0 -94,27 0,0 0,14 0,14 -54,-148 -148,-269 -255,-362 -174,-134 -389,-175 -576,-134 254,-376 469,-765 670,-1167 67,121 188,228 335,295 148,81 322,121 483,121 121,0 255,-27 362,-67 0,0 13,0 13,0 0,147 -40,295 -134,415 -80,94 -201,161 -335,188 27,-94 13,-188 -54,-255 -94,-94 -254,-94 -362,0 -94,94 -94,255 0,362 14,14 41,27 54,40 0,0 13,0 13,14 0,0 14,0 14,0 13,0 27,13 40,13 67,27 134,41 215,41 214,0 429,-94 563,-269 147,-174 201,-415 161,-643 187,-134 308,-349 321,-563 27,-295 -147,-604 -415,-724 0,0 -14,-14 -14,-14 0,0 -13,0 -13,0 0,0 -14,0 -14,0 -26,0 -40,-13 -67,-13 -134,0 -254,107 -254,255 0,134 107,254 254,254 94,0 188,-53 228,-134 81,107 121,228 108,362 -14,134 -81,268 -188,376 -107,-255 -349,-470 -630,-564 -148,-53 -309,-67 -429,-40 174,-429 321,-871 442,-1327 174,40 335,54 510,54 308,0 616,-54 898,-161 13,0 27,0 27,0 134,-41 268,-81 402,-81 228,-13 456,54 617,201 174,148 254,362 241,577 -27,214 -174,402 -362,469 -107,40 -215,27 -322,0 54,-40 81,-107 81,-188 0,-134 -108,-254 -255,-254 -148,0 -255,107 -255,254 0,27 0,67 14,94 0,14 13,27 13,41 121,174 335,281 563,281 67,0 148,-13 215,-40 27,-14 53,-14 67,-27 40,27 94,40 134,54 94,13 188,0 255,-67 80,174 241,295 429,335 -108,-107 -148,-268 -148,-416 0,-147 40,-295 40,-456 0,-295 -147,-603 -375,-791 -161,-120 -349,-201 -550,-214 -94,-27 -188,-40 -295,-54 134,-94 242,-201 335,-308 161,-201 255,-429 282,-657 13,-175 -13,-349 -94,-510 67,-53 134,-107 201,-161 40,-40 81,-67 107,-107 188,-174 362,-349 577,-402 161,-40 335,-14 483,67 147,80 254,214 295,375 40,148 26,295 -41,416 -13,27 -40,54 -67,80 -13,-120 -120,-214 -241,-214 -134,0 -255,107 -255,255 0,134 108,254 255,254 0,0 14,0 14,0 0,0 13,0 13,0 174,0 362,-94 456,-268 94,-161 120,-375 67,-576 0,-174 -134,-362 -322,-469zm-2293 -2293c201,107 362,241 483,389 134,161 215,362 228,549 13,135 -13,255 -54,376 -174,-107 -335,-188 -509,-241 -362,-108 -738,-54 -1019,147 -121,81 -215,201 -295,322 -161,-228 -201,-510 -107,-751 67,-201 241,-349 429,-416 0,0 0,14 0,14 0,134 107,255 254,255 135,0 255,-108 255,-255 0,-121 -94,-228 -201,-242 0,0 -13,0 -13,0 -14,0 -14,0 -27,0 0,0 0,0 -14,0 0,0 -13,0 -13,0 -335,-13 -657,202 -818,510 -40,-295 -107,-590 -174,-885 536,-134 1126,-40 1595,228zm577 1488c-40,54 -81,107 -121,148 -174,187 -442,295 -710,308 -295,13 -563,-80 -765,-255 67,-120 161,-228 282,-308 228,-161 536,-201 845,-107 160,40 308,107 469,214zm-4988 7937c-13,14 -27,27 -40,41 0,0 -13,13 -13,13 0,0 -14,13 -14,13 -13,14 -27,27 -40,41 -1931,1890 -4478,2922 -7173,2922 -2708,0 -5242,-1032 -7173,-2922 -13,-14 -27,-27 -40,-41 0,0 -14,-13 -14,-13 0,0 -13,-13 -13,-13 -13,-14 -27,-27 -40,-41 -1891,-1930 -2923,-4478 -2923,-7173 0,-2708 1032,-5242 2923,-7173 13,-13 27,-27 40,-40 0,0 13,-13 13,-13 0,0 14,-14 14,-14 13,-13 27,-27 40,-40 1931,-1890 4478,-2923 7173,-2923 2708,0 5242,1033 7173,2923 13,14 27,27 40,40 0,0 14,14 14,14 0,0 13,13 13,13 14,14 27,27 40,40 1891,1931 2923,4478 2923,7173 0,2695 -1032,5243 -2923,7173zm-67 336c40,107 81,227 94,348 -161,-13 -322,-13 -483,14 135,-121 269,-242 389,-362zm644 -671c-27,161 -27,335 -14,483 -120,-27 -241,-54 -348,-94 134,-134 255,-255 362,-389zm-6986 4116c161,228 202,537 108,845 -40,161 -121,308 -228,469 -54,-40 -107,-80 -148,-120 -187,-175 -295,-443 -308,-711 -13,-295 80,-563 255,-764 134,80 241,174 321,281zm-1448 -268c175,201 269,483 255,764 -13,269 -134,523 -308,711 -40,40 -94,80 -148,121 -107,-161 -174,-309 -228,-470 -80,-308 -40,-630 108,-844 94,-121 201,-215 321,-282zm-6261 -2815c-161,-27 -335,-27 -483,-14 27,-121 54,-241 94,-348 121,120 255,241 389,362zm-684 -644c-107,40 -228,80 -348,94 13,-161 13,-322 -14,-483 121,134 242,255 362,389zm295 -14735c-40,-107 -80,-228 -94,-348 67,13 148,13 215,13 94,0 188,-13 282,-27 -148,121 -282,241 -403,362zm-643 671c27,-161 27,-336 13,-483 121,27 241,53 349,94 -134,134 -255,254 -362,389zm6985 -4117c-161,-228 -201,-536 -107,-844 40,-161 121,-309 228,-470 53,41 107,81 147,121 188,174 295,443 309,711 13,295 -81,563 -255,764 -134,-81 -241,-174 -322,-282zm1435 269c-175,-202 -268,-483 -255,-765 13,-268 134,-523 308,-710 41,-40 94,-81 148,-121 107,161 174,308 228,469 80,309 40,630 -108,845 -80,121 -187,214 -321,282zm6274 2815c94,14 188,27 282,27 67,0 148,0 215,-13 -27,120 -54,241 -94,348 -134,-121 -268,-241 -403,-362zm684 644c107,-40 228,-81 349,-94 -14,161 -14,322 13,483 -120,-135 -241,-255 -362,-389zm1944 2855c27,-134 134,-268 309,-348 228,-107 482,-121 683,-40 14,13 27,13 54,26 0,14 -13,27 -13,41 -81,201 -282,375 -510,456 -174,67 -349,53 -469,-27 0,0 -14,0 -14,-14 -13,-26 -26,-53 -40,-94 0,14 0,0 0,0zm-321 -1675c-161,120 -376,147 -523,53 -175,-107 -242,-348 -148,-523 40,-67 94,-120 161,-147 -27,40 -40,94 -40,134 0,134 107,255 255,255 26,0 40,0 67,-14 40,0 80,-27 107,-40 40,-40 67,-94 80,-161 14,-94 -13,-174 -80,-255 -67,-80 -174,-134 -282,-134 -174,-13 -348,107 -442,282 -40,67 -54,147 -54,228 -27,-41 -67,-81 -94,-121 0,0 0,0 0,0 -94,-282 -120,-563 -80,-845 201,-13 389,-13 590,14 241,40 415,120 536,241 121,121 201,308 188,510 0,201 -94,402 -241,523zm-1435 -1891c161,-53 308,-121 456,-214 -94,147 -161,295 -215,455 -13,54 -27,108 -40,175 -174,27 -349,80 -509,147 67,-161 107,-335 147,-509 40,-27 94,-41 161,-54zm-818 -791c0,-107 -54,-201 -134,-282 -80,-67 -161,-93 -255,-80 -67,13 -120,40 -161,80 -27,27 -40,68 -53,108 0,27 -14,40 -14,67 0,134 108,254 255,254 54,0 94,-13 134,-40 -27,67 -80,121 -147,161 -175,94 -416,27 -523,-147 -94,-148 -67,-376 53,-523 121,-148 309,-242 523,-242 201,0 389,68 510,188 120,121 201,295 241,537 27,187 40,388 13,589 -268,41 -563,14 -844,-80 0,0 0,0 0,0 -40,-27 -81,-67 -121,-94 81,0 161,-27 228,-54 201,-93 308,-268 295,-442zm-2614 -791c-81,-107 -94,-282 -27,-469 80,-242 254,-429 456,-510 13,0 26,-13 40,-13 13,13 13,27 27,53 80,215 67,470 -41,684 -80,174 -214,282 -348,309 0,0 0,0 -14,0 -26,-14 -53,-27 -80,-41 0,0 -13,0 -13,-13zm-2950 -2896c188,13 375,94 550,228 147,121 281,281 388,483 269,482 349,1059 242,1595 -295,-67 -590,-134 -885,-174 308,-148 523,-483 509,-818 0,0 0,-13 0,-13 0,0 0,0 0,-14 0,-13 0,-13 0,-27 0,0 0,-13 0,-13 -26,-121 -120,-201 -241,-201 -134,0 -255,107 -255,254 0,135 108,255 255,255 0,0 14,0 14,0 -68,188 -215,349 -416,429 -241,94 -536,40 -751,-107 121,-81 228,-174 322,-295 188,-268 241,-644 147,-1019 -53,-174 -120,-335 -241,-509 107,-54 228,-67 362,-54zm-1837 -174c27,-41 67,-67 107,-108 161,-161 322,-335 416,-549 94,214 255,388 416,549 40,41 67,67 107,108 53,53 94,107 134,161 -54,40 -121,80 -174,134 -215,214 -349,523 -362,831 -14,322 80,630 268,871 -121,54 -255,94 -389,135 -134,-41 -268,-81 -389,-135 188,-241 295,-549 268,-871 -13,-322 -147,-617 -362,-831 -53,-54 -107,-94 -174,-134 40,-54 80,-108 134,-161zm-1743 885c107,-202 241,-362 389,-483 161,-134 362,-215 550,-228 134,-13 254,13 375,54 -107,174 -188,335 -241,509 -108,362 -54,738 147,1019 81,121 201,215 322,295 -228,161 -509,201 -751,107 -201,-67 -348,-241 -415,-429 0,0 13,0 13,0 134,0 255,-107 255,-255 0,-134 -108,-254 -255,-254 -121,0 -228,94 -241,214 0,0 0,14 0,14 0,13 0,13 0,27 0,0 0,13 0,13 0,0 0,13 0,13 -14,336 201,657 509,805 -295,40 -590,107 -885,174 -120,-536 -40,-1113 228,-1595zm-2105 2239c-134,-27 -268,-134 -348,-309 -108,-228 -121,-482 -41,-683 14,-14 14,-27 27,-54 14,0 27,13 40,13 201,81 376,282 456,510 67,174 54,348 -27,469 0,0 0,13 -13,13 -40,27 -67,41 -94,41 0,0 0,0 0,0zm-1636 858c-107,174 -348,241 -523,147 -67,-40 -120,-94 -147,-161 40,27 94,40 134,40 134,0 255,-107 255,-254 0,-27 0,-40 -14,-67 0,-40 -26,-81 -40,-108 -40,-40 -94,-67 -161,-80 -94,-13 -174,13 -254,80 -81,68 -135,175 -135,282 -13,174 108,349 282,442 67,41 148,54 228,54 -40,27 -81,67 -121,94 0,0 0,0 0,0 -281,94 -563,121 -844,80 -14,-201 -14,-388 13,-589 40,-242 121,-416 241,-537 121,-120 309,-201 510,-188 214,0 415,94 523,242 120,147 147,362 53,523zm-2145 456c148,93 295,161 456,214 54,14 107,27 174,40 27,175 81,349 148,510 -161,-67 -335,-107 -510,-148 -13,-53 -27,-120 -40,-174 -67,-147 -147,-295 -228,-442zm-147 1541c-94,-174 -255,-281 -443,-281 -107,0 -201,53 -281,134 -67,80 -94,161 -81,255 14,67 40,120 81,161 26,26 67,40 107,53 27,0 40,14 67,14 134,0 255,-108 255,-255 0,-54 -14,-94 -41,-134 68,27 121,80 161,147 94,175 27,416 -147,523 -148,94 -376,67 -523,-53 -148,-121 -241,-309 -241,-523 0,-201 67,-389 187,-510 121,-120 295,-201 537,-241 187,-27 389,-40 590,-14 40,269 13,564 -81,845 0,0 0,0 0,0 -27,40 -67,81 -94,121 0,-94 -13,-175 -53,-242zm-1220 2333c-108,81 -282,94 -470,27 -241,-80 -429,-255 -509,-456 0,-13 -14,-27 -14,-40 14,-13 27,-13 54,-27 215,-80 469,-67 684,40 174,81 281,215 308,349 0,0 0,0 0,14 -13,26 -27,53 -40,80 0,13 -13,13 -13,13zm-2910 2963c14,-187 94,-375 228,-549 121,-148 282,-282 483,-389 482,-268 1059,-349 1595,-241 -67,294 -134,589 -174,884 -148,-308 -483,-523 -818,-509 0,0 -13,0 -13,0 0,0 0,0 -14,0 -13,0 -13,0 -27,0 0,0 -13,0 -13,0 -121,27 -201,121 -201,241 0,134 107,255 255,255 147,0 254,-107 254,-255 0,0 0,-13 0,-13 188,67 349,214 429,415 94,242 41,537 -107,751 -80,-120 -174,-228 -295,-322 -268,-187 -643,-241 -1019,-147 -174,54 -335,121 -509,241 -40,-107 -67,-241 -54,-362zm1743 751c-201,175 -483,268 -764,255 -268,-13 -523,-134 -711,-308 -40,-41 -80,-94 -120,-148 161,-107 308,-174 469,-228 308,-80 630,-40 845,107 120,94 201,202 281,322zm-1904 1073c-40,-27 -67,-67 -107,-107 -161,-161 -335,-322 -550,-416 215,-94 389,-255 550,-416 40,-40 67,-67 107,-107 54,-54 108,-94 161,-134 40,54 81,121 134,174 215,215 523,349 832,362 26,0 53,0 80,0 295,0 577,-94 791,-281 54,120 94,254 134,388 -40,135 -80,269 -134,389 -241,-187 -550,-295 -871,-268 -322,14 -617,148 -832,362 -53,54 -94,107 -134,174 -67,-26 -121,-67 -161,-120zm1904 53c-67,121 -161,228 -281,309 -228,161 -537,201 -845,107 -161,-40 -308,-121 -469,-228 40,-53 80,-107 120,-147 175,-188 443,-295 711,-309 281,0 563,94 764,268zm-1032 1690c-201,-107 -362,-241 -483,-389 -134,-161 -215,-362 -228,-550 -13,-134 14,-254 54,-375 174,107 335,188 509,241 362,107 738,54 1019,-147 121,-81 215,-201 295,-322 161,228 201,509 107,751 -67,201 -241,348 -429,415 0,0 0,-13 0,-13 0,-134 -107,-255 -254,-255 -148,0 -255,107 -255,255 0,121 94,228 201,241 0,0 13,0 13,0 14,0 14,0 27,0 0,0 0,0 14,0 0,0 13,0 13,0 335,14 657,-201 818,-509 40,295 107,590 174,885 -536,134 -1113,40 -1595,-228zm2252 2118c-27,134 -134,268 -308,349 -228,107 -483,120 -684,40 -13,-13 -27,-13 -54,-27 0,-13 14,-27 14,-40 80,-201 281,-375 509,-456 175,-67 349,-53 470,27 0,0 13,0 13,13 13,27 27,54 40,94 0,-13 0,0 0,0zm322 1676c161,-120 375,-147 523,-53 174,107 241,348 147,522 -40,68 -93,121 -161,148 27,-40 41,-94 41,-134 0,-134 -108,-255 -255,-255 -27,0 -40,0 -67,14 -40,0 -81,26 -107,53 -41,40 -67,94 -81,161 -13,94 14,174 81,255 67,80 174,134 281,134 175,0 349,-107 443,-282 40,-67 53,-147 53,-228 27,41 67,81 94,121 0,0 0,0 0,0 94,282 121,563 81,845 -201,13 -389,13 -590,-14 -242,-40 -416,-120 -537,-241 -120,-134 -201,-322 -187,-509 0,-215 94,-416 241,-537zm1032 1502c0,0 0,0 0,0 0,0 0,0 0,0l0 0zm403 389c-161,53 -309,120 -456,214 94,-147 161,-295 214,-456 14,-53 27,-107 40,-174 175,-27 349,-80 510,-147 -67,160 -121,335 -148,509 -40,27 -107,40 -160,54zm818 791c0,107 53,201 134,281 80,67 161,94 254,81 67,-14 121,-40 161,-81 27,-27 40,-67 54,-107 0,-27 13,-40 13,-67 0,-134 -107,-255 -254,-255 -54,0 -94,14 -135,40 27,-67 81,-120 148,-160 174,-94 416,-27 523,147 94,148 67,375 -54,523 -120,147 -308,241 -523,241 -201,0 -388,-67 -509,-187 -121,-121 -201,-295 -241,-537 -27,-187 -41,-389 -14,-590 268,-40 563,-13 845,81 0,0 0,0 0,0 40,27 80,67 120,94 -80,0 -160,26 -227,53 -202,94 -309,268 -295,443zm2614 777c80,108 94,282 27,470 -81,241 -255,429 -456,509 -13,0 -27,14 -40,14 -14,-14 -14,-27 -27,-54 -81,-215 -67,-469 40,-684 81,-174 215,-281 349,-308 0,0 0,0 13,0 27,13 54,27 81,40 0,13 0,13 13,13zm2950 2910c-188,-14 -376,-94 -550,-228 -148,-121 -282,-282 -389,-483 -268,-483 -349,-1059 -241,-1595 295,67 590,134 885,174 -309,147 -523,483 -510,804 0,0 0,14 0,14 0,0 0,13 0,13 0,14 0,14 0,27 0,0 0,14 0,14 27,120 121,214 241,214 135,0 255,-107 255,-255 0,-134 -107,-254 -255,-254 0,0 -13,0 -13,0 67,-188 215,-349 416,-429 241,-94 536,-41 751,107 -121,80 -228,174 -322,295 -188,268 -242,643 -148,1019 54,174 121,335 242,509 -108,54 -242,67 -362,54zm1836 174c-26,40 -67,67 -107,107 -161,161 -322,335 -415,550 -94,-215 -255,-389 -416,-550 -40,-40 -67,-67 -107,-107 -54,-54 -94,-107 -134,-161 53,-40 120,-80 174,-134 214,-215 348,-523 362,-831 13,-322 -81,-630 -268,-872 120,-53 254,-94 388,-134 135,40 269,81 389,134 -187,242 -295,550 -268,872 14,322 148,616 362,831 54,54 107,94 174,134 -40,54 -93,107 -134,161zm1743 -885c-107,201 -241,362 -388,483 -161,134 -362,214 -550,228 -134,13 -255,-14 -376,-54 108,-174 188,-335 242,-509 107,-362 53,-738 -148,-1019 -80,-121 -201,-215 -322,-295 228,-161 510,-201 751,-107 201,67 349,241 416,429 0,0 -13,0 -13,0 -135,0 -255,107 -255,254 0,134 107,255 255,255 120,0 227,-94 241,-201 0,0 0,-14 0,-14 0,-13 0,-13 0,-26 0,0 0,0 0,-14 0,0 0,-13 0,-13 13,-335 -201,-657 -510,-818 295,-40 590,-107 885,-174 121,536 41,1113 -228,1595zm2105 -2239c135,27 269,134 349,308 107,228 121,483 40,684 -13,14 -13,27 -27,54 -13,0 -26,-14 -40,-14 -201,-80 -375,-281 -456,-509 -67,-174 -53,-349 27,-469 0,0 0,-14 14,-14 40,-26 67,-40 93,-40 0,0 0,0 0,0zm1636 -858c107,-174 349,-241 523,-147 67,40 121,93 148,160 -41,-26 -94,-40 -134,-40 -135,0 -255,107 -255,255 0,27 0,40 13,67 0,40 27,80 40,107 41,40 94,67 161,81 94,13 175,-14 255,-81 81,-67 134,-174 134,-281 14,-175 -107,-349 -281,-443 -67,-40 -148,-53 -228,-53 40,-27 80,-67 120,-94 0,0 0,0 0,0 282,-94 563,-121 845,-81 13,201 13,389 -13,590 -41,242 -121,416 -242,537 -134,120 -322,201 -509,187 -215,0 -416,-94 -523,-241 -121,-148 -148,-362 -54,-523zm2145 -456c-147,-94 -295,-161 -456,-214 -53,-14 -107,-27 -174,-41 -27,-174 -80,-348 -147,-509 161,67 335,107 509,147 14,54 27,121 40,175 67,147 148,295 228,442zm-40 -603c0,0 0,0 0,0 0,0 0,0 0,0l0 0zm188 -939c94,175 268,282 442,282 108,0 201,-54 282,-134 67,-81 94,-161 80,-255 -13,-67 -40,-121 -80,-161 -27,-27 -67,-40 -107,-53 -27,0 -41,-14 -67,-14 -134,0 -255,107 -255,255 0,53 13,94 40,134 -67,-27 -121,-81 -161,-148 -94,-174 -27,-415 148,-522 147,-94 375,-68 523,53 147,121 241,308 241,523 0,201 -67,389 -188,510 -121,120 -295,201 -536,241 -188,27 -389,40 -590,13 -40,-268 -14,-563 80,-844 0,0 0,0 0,0 27,-41 67,-81 94,-121 0,94 14,174 54,241zm1220 -2333c107,-80 282,-93 469,-26 242,80 429,254 510,455 0,14 13,27 13,41 -13,13 -27,13 -54,26 -214,81 -469,67 -683,-40 -175,-80 -282,-214 -309,-348 0,0 0,0 0,-14 14,-27 27,-53 41,-80 -1,-14 -1,-14 13,-14zm2909 -2963c-13,188 -94,376 -228,550 -120,148 -281,282 -482,389 -483,268 -1059,349 -1596,241 67,-295 134,-590 175,-885 147,309 482,523 817,510 0,0 14,0 14,0 0,0 0,0 13,0 14,0 14,0 27,0 0,0 14,0 14,0 120,-27 201,-121 201,-241 0,-135 -108,-255 -255,-255 -134,0 -255,107 -255,255 0,0 0,13 0,13 -188,-67 -348,-215 -429,-416 -94,-241 -40,-536 107,-751 81,121 175,228 295,322 268,188 644,242 1019,148 175,-54 335,-121 510,-242 40,108 67,242 53,362zm-1743 -751c201,-174 483,-268 765,-254 268,13 522,134 710,308 40,40 81,94 121,148 -161,107 -309,174 -469,227 -309,81 -631,41 -845,-107 -121,-94 -215,-201 -282,-322zm2012 -147c-41,40 -68,67 -108,107 -53,54 -107,94 -161,134 -40,-53 -80,-120 -134,-174 -214,-214 -523,-349 -831,-362 -322,-13 -630,81 -872,268 -53,-120 -93,-254 -134,-389 41,-134 81,-268 134,-388 215,174 497,281 792,281 26,0 53,0 80,0 322,-13 617,-147 831,-362 54,-53 94,-107 134,-174 54,40 108,80 161,134 40,27 67,67 108,107 160,161 335,322 549,416 -201,80 -375,241 -549,402z"/>
  <path class="fil1" d="M37850 15767c120,-161 268,-308 429,-429 -121,-214 -269,-429 -429,-616 -161,187 -309,402 -429,616 174,134 321,268 429,429z"/>
  <path class="fil1" d="M52558 29617c-121,161 -269,309 -429,429 161,121 308,269 429,429 214,-120 429,-268 616,-429 -201,-161 -402,-308 -616,-429z"/>
  <path class="fil0" d="M37850 44325c-121,161 -269,309 -429,429 120,215 268,429 429,617 160,-188 308,-402 429,-617 -161,-134 -309,-268 -429,-429z"/>
  <path class="fil1" d="M23155 29617c-215,121 -429,269 -617,429 188,161 402,309 617,429 121,-161 268,-308 429,-429 -161,-120 -308,-268 -429,-429z"/>
  <path class="fil1" d="M36495 20420c0,0 14,0 14,0 0,0 0,0 0,0 53,-14 94,-54 94,-121 -14,-54 -67,-94 -121,-94 -54,14 -94,67 -94,121 14,53 67,94 107,94z"/>
  <path class="fil1" d="M37099 20366c13,0 13,0 0,0 67,0 107,-53 107,-107 0,-54 -54,-94 -107,-94 -54,0 -94,54 -94,107 0,40 40,94 94,94z"/>
  <path class="fil1" d="M35905 20527c0,0 14,0 14,0 53,-13 94,-67 80,-121 -13,-53 -67,-94 -120,-80 -54,13 -94,67 -81,121 14,40 54,80 107,80z"/>
  <path class="fil1" d="M37702 20326l0 0c54,0 107,-54 107,-107 0,-54 -40,-108 -107,-108 -54,0 -107,41 -107,108 13,67 53,107 107,107z"/>
  <path class="fil1" d="M35315 20661c14,0 14,0 27,0 54,-13 94,-67 81,-121 -14,-53 -67,-93 -121,-80 -53,13 -94,67 -67,121 -13,53 40,80 80,80z"/>
  <path class="fil1" d="M29926 24335c27,0 67,-14 80,-40 27,-41 27,-108 -27,-148 -40,-27 -107,-27 -147,27 -27,40 -27,107 27,147 26,14 40,14 67,14z"/>
  <path class="fil1" d="M40089 20581c13,0 13,0 26,0 41,0 94,-27 108,-81 13,-53 -27,-107 -81,-121 -53,-13 -107,27 -120,81 -27,54 13,107 67,121z"/>
  <path class="fil1" d="M39499 20473c0,0 13,0 13,0 54,0 94,-40 107,-80 14,-54 -26,-107 -80,-121 -54,-13 -107,27 -121,81 -13,53 27,107 81,120z"/>
  <path class="fil1" d="M34739 20835c13,0 27,0 27,0 53,-13 80,-80 67,-134 -14,-53 -81,-80 -134,-67 -54,14 -81,81 -67,134 13,41 67,67 107,67z"/>
  <path class="fil1" d="M38909 20393c0,0 0,0 0,0 67,0 107,-40 107,-94 0,-54 -40,-107 -94,-121 -54,0 -107,41 -107,94 -13,54 40,107 94,121z"/>
  <path class="fil1" d="M38305 20339c0,0 14,0 0,0 54,0 108,-40 108,-94 0,-53 -41,-107 -94,-107 -54,0 -107,40 -107,94 0,54 40,107 93,107z"/>
  <path class="fil1" d="M31575 22578c27,0 40,-13 67,-27 40,-40 53,-107 13,-147 -40,-40 -107,-54 -147,-13 -40,40 -54,107 -14,147 27,27 54,40 81,40z"/>
  <path class="fil1" d="M31119 22981c27,0 54,-14 67,-27 40,-40 40,-108 0,-148 -40,-40 -107,-40 -148,0l0 0c-40,40 -40,107 0,148 27,13 54,27 81,27z"/>
  <path class="fil1" d="M32058 22216c26,0 40,0 67,-13 40,-27 53,-94 26,-148 -26,-40 -93,-53 -147,-26 -40,26 -54,93 -27,147 13,14 40,40 81,40z"/>
  <path class="fil1" d="M30288 23865c27,0 53,-13 80,-40 40,-40 27,-107 -13,-147 -40,-40 -108,-27 -148,13 -40,40 -27,107 14,148 26,13 53,26 67,26z"/>
  <path class="fil1" d="M30690 23410c27,0 54,-14 80,-27 41,-40 41,-107 0,-148 -40,-40 -107,-40 -147,0 -40,41 -40,108 0,148 13,13 40,27 67,27z"/>
  <path class="fil1" d="M34162 21036c14,0 27,0 41,-13 53,-27 80,-80 53,-134 -27,-54 -80,-80 -134,-54 -53,27 -80,81 -53,134 13,54 53,67 93,67z"/>
  <path class="fil1" d="M40665 20742c14,0 14,0 27,0 40,0 80,-27 94,-68 13,-53 -14,-107 -67,-134 -54,-13 -107,14 -134,67 -14,54 27,121 80,135z"/>
  <path class="fil1" d="M33613 21278c13,0 27,0 40,-14 54,-26 80,-80 54,-134 -27,-53 -81,-80 -134,-53 -54,27 -68,80 -54,134 13,53 54,67 94,67z"/>
  <path class="fil1" d="M33076 21559c14,0 41,0 54,-13 54,-27 67,-94 40,-134 -27,-54 -94,-67 -134,-40 -53,27 -67,94 -40,134 13,40 40,53 80,53z"/>
  <path class="fil1" d="M32554 21868c13,0 40,0 53,-14 54,-27 67,-94 27,-147 -27,-54 -94,-67 -147,-27 -54,27 -68,94 -27,147 27,27 67,41 94,41z"/>
  <path class="fil1" d="M46296 25112c14,0 41,0 54,-13 54,-27 67,-94 40,-134 -27,-54 -94,-67 -147,-40 -54,27 -67,94 -41,134 27,40 67,53 94,53z"/>
  <path class="fil1" d="M47168 27258c13,40 53,67 94,67 13,0 13,0 27,0 53,-14 80,-81 67,-134 -14,-54 -81,-81 -135,-67 -40,26 -67,80 -53,134z"/>
  <path class="fil1" d="M47074 26762c13,0 27,0 40,-14 54,-13 81,-80 67,-134 -13,-54 -80,-80 -134,-67 -53,13 -80,80 -67,134 14,54 54,81 94,81z"/>
  <path class="fil1" d="M47315 27834c14,54 54,81 108,81 13,0 13,0 26,0 54,-14 94,-67 81,-121 -14,-54 -67,-94 -121,-81 -67,14 -107,67 -94,121z"/>
  <path class="fil1" d="M45975 24603c13,0 40,0 53,-14 54,-26 67,-93 27,-147l0 0c-27,-54 -94,-67 -147,-27 -54,27 -68,94 -27,148 27,26 67,40 94,40z"/>
  <path class="fil1" d="M46846 26198c13,0 27,0 40,-13 54,-27 81,-81 54,-134 -27,-54 -81,-81 -134,-54 -54,27 -81,81 -54,134 27,41 54,67 94,67z"/>
  <path class="fil1" d="M46591 25649c14,0 27,0 40,-14 54,-27 68,-94 41,-134 -27,-53 -94,-67 -134,-40 -54,27 -67,94 -41,134 27,27 54,54 94,54z"/>
  <path class="fil1" d="M41228 20929c14,0 27,0 40,0 41,0 81,-27 94,-67 14,-53 -13,-107 -67,-134l0 0c-53,-27 -107,14 -134,67 -13,54 14,121 67,134z"/>
  <path class="fil1" d="M47557 29617c0,54 53,94 107,94 0,0 0,0 0,0 53,0 107,-53 94,-107 0,-54 -54,-107 -107,-94 -54,0 -94,54 -94,107z"/>
  <path class="fil1" d="M47677 30113c-53,0 -107,41 -107,108 0,53 40,107 107,107 0,0 0,0 0,0 54,0 108,-40 108,-107 -14,-54 -54,-108 -108,-108z"/>
  <path class="fil1" d="M47516 29014c0,54 54,94 108,94 0,0 0,0 13,0 54,0 94,-54 94,-107 0,-54 -54,-94 -107,-94 -67,0 -108,53 -108,107z"/>
  <path class="fil1" d="M47436 28424c0,0 0,0 0,0 13,54 54,81 107,81 0,0 14,0 14,0 53,-14 94,-68 80,-121 -13,-54 -67,-94 -121,-81 -53,14 -93,67 -80,121z"/>
  <path class="fil1" d="M45626 24120c27,0 40,0 67,-27 40,-40 54,-93 13,-147 -40,-40 -93,-54 -147,-14 -40,41 -54,94 -14,148 14,27 41,40 81,40z"/>
  <path class="fil1" d="M42851 21707c13,13 40,13 53,13 40,0 67,-13 94,-53 27,-54 14,-108 -40,-148 -54,-27 -107,-13 -148,40 -26,54 -13,108 41,148z"/>
  <path class="fil1" d="M41791 21157c14,0 27,14 41,14 40,0 80,-27 93,-67 27,-54 0,-108 -53,-135 -54,-26 -107,0 -134,54 -27,40 0,107 53,134z"/>
  <path class="fil1" d="M43414 22042c27,0 67,-13 80,-40 27,-40 14,-107 -27,-148 -40,-26 -107,-13 -147,27 -27,40 -14,107 27,148 26,0 40,13 67,13z"/>
  <path class="fil1" d="M42328 21412c13,13 27,13 40,13 40,0 80,-13 94,-53 27,-54 0,-108 -40,-134 -54,-27 -108,0 -135,40 -26,40 -13,107 41,134z"/>
  <path class="fil1" d="M44741 23168c0,0 13,0 0,0 27,27 54,40 81,40 26,0 53,-13 67,-26 40,-41 40,-108 0,-148 0,0 0,0 -14,0 0,0 0,0 0,-13 -40,-41 -107,-41 -147,0 -27,40 -27,107 13,147 0,0 0,0 0,0z"/>
  <path class="fil1" d="M43896 22391c27,0 67,-14 81,-41 40,-40 27,-107 -14,-147 -40,-40 -107,-27 -147,13 -40,41 -27,108 13,148 27,27 54,27 67,27z"/>
  <path class="fil1" d="M45237 23651c27,0 54,-13 67,-27 40,-40 54,-107 14,-147 -41,-41 -108,-41 -148,-14 -40,40 -54,107 -13,148 27,27 53,40 80,40z"/>
  <path class="fil1" d="M44366 22779c27,0 53,-13 80,-40 40,-40 27,-107 -13,-147 -40,-40 -108,-27 -148,13 -40,40 -27,107 14,148 26,13 40,26 67,26z"/>
  <path class="fil1" d="M29523 24831c14,13 41,13 54,13 27,0 67,-13 81,-40 26,-54 13,-107 -27,-147 -40,-27 -108,-14 -148,26 -13,41 0,108 40,148z"/>
  <path class="fil0" d="M40933 39271c-53,13 -80,80 -67,134 14,40 54,67 94,67 14,0 27,0 27,0 54,-14 80,-81 67,-134 -13,-54 -67,-94 -121,-67z"/>
  <path class="fil0" d="M40357 39432c-54,13 -94,67 -81,120 14,41 54,81 94,81 14,0 14,0 27,0 54,-14 94,-67 67,-121 13,-53 -54,-94 -107,-80z"/>
  <path class="fil0" d="M39780 39566c-53,13 -94,67 -80,120 13,54 53,81 107,81 13,0 13,0 27,0 53,-14 94,-67 80,-121 -26,-53 -80,-80 -134,-80z"/>
  <path class="fil0" d="M41496 39056c-53,27 -80,81 -53,134 13,41 53,67 94,67 13,0 27,0 40,-13 54,-27 80,-80 54,-134 -27,-40 -81,-67 -135,-54z"/>
  <path class="fil1" d="M29229 25340c13,14 26,14 53,14 40,0 67,-14 94,-54 27,-53 13,-107 -40,-134 -54,-27 -107,-13 -134,40l0 0c-54,54 -27,107 27,134z"/>
  <path class="fil0" d="M42582 38547c-53,27 -67,94 -40,134 14,40 54,53 94,53 14,0 27,0 54,-13 53,-27 67,-94 40,-134 -40,-54 -107,-67 -148,-40z"/>
  <path class="fil0" d="M42046 38815c-54,27 -67,80 -54,134 14,40 54,54 94,54 14,0 27,0 41,-14 53,-27 80,-80 53,-134 -27,-40 -80,-53 -134,-40z"/>
  <path class="fil0" d="M43588 37903c-40,27 -54,94 -27,148 14,27 54,40 81,40 26,0 40,-13 67,-13 40,-41 53,-94 27,-148 -41,-40 -108,-54 -148,-27z"/>
  <path class="fil0" d="M37394 39753c-54,0 -108,41 -108,94 0,54 41,108 94,108 0,0 0,0 0,0 54,0 108,-41 108,-94 0,-54 -41,-108 -94,-108z"/>
  <path class="fil0" d="M36790 39700c-53,0 -107,40 -107,94 -13,53 40,107 94,107 0,0 13,0 13,0 54,0 94,-40 108,-94 0,-40 -41,-94 -108,-107z"/>
  <path class="fil0" d="M35611 39499c-54,-14 -108,27 -121,80 -14,54 27,107 80,121 14,0 14,0 27,0 40,0 94,-27 94,-81 13,-53 -13,-107 -80,-120z"/>
  <path class="fil0" d="M38587 39740c-54,0 -94,54 -94,107 0,54 54,94 107,94 0,0 0,0 14,0 53,0 94,-53 94,-107 -14,-67 -67,-107 -121,-94z"/>
  <path class="fil0" d="M37997 39767c-54,0 -107,40 -107,107 0,54 40,107 107,107l0 0c54,0 107,-40 107,-107 -13,-67 -53,-121 -107,-107z"/>
  <path class="fil0" d="M39190 39673c-53,13 -94,54 -94,121 14,53 54,94 108,94 0,0 13,0 13,0 54,-14 94,-54 94,-121 -13,-67 -67,-107 -121,-94z"/>
  <path class="fil0" d="M36200 39619c-53,-13 -107,27 -120,81 -14,53 27,107 80,120 0,0 14,0 14,0 53,0 94,-40 107,-80 13,-54 -27,-107 -81,-121z"/>
  <path class="fil1" d="M46752 34216c-53,-27 -107,0 -134,54 -27,53 0,107 54,134 13,0 27,13 40,13 40,0 80,-27 94,-53 27,-67 0,-121 -54,-148z"/>
  <path class="fil1" d="M46994 33653c-54,-27 -108,0 -135,54 -26,53 0,107 54,134 13,0 27,13 40,13 40,0 81,-27 94,-67 27,-54 0,-107 -53,-134z"/>
  <path class="fil1" d="M47369 32513c-54,-13 -107,14 -121,67 -13,54 14,108 67,121 14,0 14,0 27,0 40,0 81,-27 94,-80 13,-41 -13,-94 -67,-108z"/>
  <path class="fil1" d="M44057 37541c-40,40 -53,94 -13,148 13,27 53,40 80,40 27,0 40,-14 67,-27 41,-40 54,-107 14,-147 -40,-41 -94,-54 -148,-14z"/>
  <path class="fil1" d="M47503 31923c-54,-13 -107,27 -121,81 -13,54 27,107 81,121 0,0 13,0 13,0 54,0 94,-27 107,-81 0,-67 -26,-121 -80,-121z"/>
  <path class="fil1" d="M47651 30717c-54,0 -108,40 -108,94 0,53 40,107 94,107 0,0 0,0 14,0 53,0 93,-40 107,-94 0,-54 -54,-107 -107,-107z"/>
  <path class="fil1" d="M47597 31320c-54,-13 -107,27 -121,94 -13,54 27,107 94,121 0,0 14,0 14,0 53,0 93,-41 107,-94 0,-67 -40,-108 -94,-121z"/>
  <path class="fil1" d="M47195 33090c-54,-14 -108,13 -134,67 -14,54 13,107 67,134 13,0 26,0 26,0 41,0 81,-27 94,-67 27,-67 0,-121 -53,-134z"/>
  <path class="fil1" d="M46484 34752c-54,-26 -107,-13 -134,41 -27,53 -13,107 40,134 14,13 27,13 54,13 40,0 67,-13 94,-54 13,-40 0,-107 -54,-134z"/>
  <path class="fil1" d="M44942 36723c-40,41 -40,108 0,148 14,13 40,27 67,27 27,0 54,-14 81,-27 40,-40 40,-107 0,-148 -54,-40 -121,-40 -148,0z"/>
  <path class="fil1" d="M44513 37139c-40,40 -40,107 0,147 27,27 54,27 81,27 26,0 53,-13 67,-27 40,-40 40,-107 0,-147 -41,-27 -108,-27 -148,0z"/>
  <path class="fil1" d="M45331 36281c-40,40 -27,107 13,147 14,14 41,27 67,27 27,0 54,-13 81,-40 40,-40 27,-107 -13,-147 -41,-41 -108,-41 -148,13z"/>
  <path class="fil1" d="M45693 35798c-27,40 -27,107 27,148 13,13 40,13 67,13 27,0 67,-13 80,-40 27,-40 27,-107 -27,-148 -40,-26 -107,-13 -147,27z"/>
  <path class="fil1" d="M46176 35275c-54,-27 -108,-13 -148,27 -27,40 -13,107 27,148 13,13 40,13 54,13 40,0 67,-13 94,-54 40,-40 26,-107 -27,-134z"/>
  <path class="fil0" d="M43092 38238c-54,27 -67,94 -27,148 13,27 54,53 81,53 13,0 40,0 53,-13 54,-27 67,-94 27,-147 -27,-54 -80,-67 -134,-41z"/>
  <path class="fil1" d="M28102 31199c54,0 94,-53 94,-107 0,-53 -53,-94 -107,-94 -54,0 -94,54 -94,108 0,53 40,93 107,93 0,0 0,0 0,0z"/>
  <path class="fil1" d="M28049 30596c53,0 107,-54 94,-107 0,-54 -54,-107 -108,-94 -53,0 -107,54 -94,107 0,54 54,94 108,94 0,0 0,0 0,0z"/>
  <path class="fil1" d="M28035 29993c54,0 107,-40 107,-107 0,-54 -40,-108 -107,-108 -53,0 -107,40 -107,108 13,53 54,107 107,107z"/>
  <path class="fil1" d="M28598 33345c-53,13 -80,80 -67,134 14,40 54,67 94,67 14,0 27,0 40,0 54,-14 81,-81 67,-134 -13,-54 -80,-81 -134,-67z"/>
  <path class="fil1" d="M28545 32849c-14,-54 -81,-81 -134,-67 -54,13 -81,80 -67,134 13,40 53,80 93,80 14,0 27,0 27,0 67,-40 94,-94 81,-147z"/>
  <path class="fil1" d="M28397 32259c-13,-54 -67,-94 -120,-81 -54,14 -94,67 -81,121 14,53 54,80 107,80 14,0 14,0 27,0 40,0 81,-53 67,-120z"/>
  <path class="fil1" d="M28277 31682c-14,-54 -67,-94 -121,-80 -54,13 -94,67 -81,120 14,54 54,81 108,81 0,0 13,0 13,0 54,-14 94,-67 81,-121z"/>
  <path class="fil1" d="M28062 29389c0,0 0,0 0,0 67,0 107,-40 107,-93 0,-54 -40,-108 -94,-108 -53,0 -107,40 -107,94 -13,54 27,94 94,107z"/>
  <path class="fil1" d="M28719 26440c13,0 27,13 40,13 40,0 81,-27 94,-67 27,-53 0,-107 -54,-134 -53,-27 -107,0 -134,54 -26,53 0,120 54,134z"/>
  <path class="fil1" d="M28505 27016c13,0 26,0 26,0 41,0 81,-27 94,-67 14,-53 -13,-107 -67,-134 -53,-13 -107,14 -134,67 0,54 27,107 81,134z"/>
  <path class="fil1" d="M28947 25890c13,0 27,13 40,13 40,0 81,-26 94,-53 27,-54 0,-107 -54,-134 -53,-27 -107,0 -134,53 -13,27 0,94 54,121z"/>
  <path class="fil1" d="M28210 28183c13,0 13,0 26,0 54,0 94,-27 108,-81 13,-53 -27,-107 -81,-120 -53,-14 -107,26 -121,80 -26,54 14,107 68,121z"/>
  <path class="fil1" d="M28344 27593c13,0 13,0 26,0 41,0 94,-27 94,-81 14,-53 -13,-107 -67,-120 -53,-14 -107,13 -120,67 -27,67 13,120 67,134z"/>
  <path class="fil1" d="M28116 28786c0,0 13,0 13,0 54,0 94,-40 107,-94 14,-53 -26,-107 -94,-121 -53,-13 -107,27 -120,94 0,54 40,108 94,121z"/>
  <path class="fil0" d="M33921 38936c-53,-27 -107,0 -134,53 -27,54 0,107 54,134 13,0 27,14 40,14 40,0 80,-27 94,-67 13,-54 -14,-108 -54,-134z"/>
  <path class="fil0" d="M32205 38091c-27,40 -27,107 27,147 13,14 40,14 53,14 27,0 68,-14 81,-40 27,-41 27,-108 -27,-148 -40,-27 -107,-13 -134,27z"/>
  <path class="fil1" d="M28826 33921c-53,27 -80,81 -53,134 13,40 53,67 94,67 13,0 26,0 40,-13 53,-27 80,-81 53,-134 -26,-54 -80,-81 -134,-54z"/>
  <path class="fil1" d="M31722 37729c-40,40 -27,107 14,147 13,14 40,27 67,27 27,0 67,-13 80,-40 40,-40 27,-107 -13,-147 -54,-41 -121,-27 -148,13z"/>
  <path class="fil1" d="M31253 37340c-40,40 -27,107 13,148 14,13 41,26 67,26 27,0 54,-13 81,-40 40,-40 27,-107 -13,-147 -41,-27 -108,-27 -148,13z"/>
  <path class="fil0" d="M33371 38681c-53,-27 -107,0 -134,40 -26,54 0,107 41,134 13,14 26,14 40,14 40,0 80,-14 94,-54 40,-54 13,-107 -41,-134z"/>
  <path class="fil0" d="M34471 39164c-54,-14 -107,13 -134,67 -27,53 13,107 67,134 13,0 27,0 40,0 40,0 81,-27 94,-67 13,-54 -13,-121 -67,-134z"/>
  <path class="fil0" d="M35034 39351c-54,-13 -107,14 -134,67 -14,54 13,107 67,134 13,0 13,0 27,0 40,0 80,-27 94,-67 40,-67 0,-120 -54,-134z"/>
  <path class="fil0" d="M32849 38386c-54,-27 -108,-14 -148,40 -27,54 -13,107 40,148 14,13 40,13 54,13 40,0 67,-13 94,-54 27,-53 13,-120 -40,-147z"/>
  <path class="fil1" d="M29510 35034c-27,-54 -94,-67 -134,-40 -54,27 -67,94 -40,134 13,27 53,53 94,53 13,0 40,0 53,-13 40,-27 54,-80 27,-134 0,0 0,0 0,0z"/>
  <path class="fil1" d="M30972 36924c-41,-40 -108,-40 -148,0 -40,41 -40,108 0,148 27,13 40,27 80,27 27,0 54,-14 68,-27 40,-40 40,-107 0,-148 0,0 0,0 0,0z"/>
  <path class="fil1" d="M29684 35503c-40,27 -53,94 -27,148 14,27 54,40 81,40 13,0 40,0 54,-13 40,-27 53,-94 26,-148 -26,-40 -93,-54 -134,-27z"/>
  <path class="fil1" d="M29081 34457c-54,27 -67,94 -40,135 13,40 53,53 94,53 13,0 27,0 40,-13 54,-27 67,-94 40,-134 -27,-41 -94,-67 -134,-41z"/>
  <path class="fil1" d="M30033 35999c-40,41 -54,94 -13,148 13,27 53,40 80,40 27,0 40,-13 67,-27 40,-40 54,-94 13,-147 -40,-41 -107,-41 -147,-14z"/>
  <path class="fil1" d="M30408 36482c-40,40 -40,107 -13,148 27,26 54,40 80,40 27,0 54,-14 67,-27 41,-40 41,-107 14,-148 -40,-53 -107,-53 -148,-13z"/>
  <path class="fil2" d="M34230 27486c0,294 80,549 254,764 175,214 389,415 657,590 255,187 550,362 858,536 309,174 590,375 858,590 255,228 483,483 657,778 175,295 255,657 255,1086 0,281 -53,549 -147,791 -108,241 -242,456 -429,643 -188,188 -403,322 -657,429 -255,107 -537,148 -832,148 -281,0 -509,-27 -710,-81 -201,-53 -362,-120 -496,-187 -148,-81 -282,-175 -376,-269 -53,108 -134,215 -228,309 -93,94 -201,161 -308,187l-161 0c14,-107 14,-214 27,-321 13,-94 13,-201 27,-322 13,-121 13,-228 13,-335 0,-121 0,-242 -13,-362 -14,-121 -14,-228 -27,-335 -13,-121 -13,-228 -27,-336l161 0c161,604 402,1060 724,1381 322,322 751,470 1287,470 429,0 791,-134 1059,-416 268,-282 403,-670 403,-1153 0,-295 -81,-550 -255,-764 -174,-215 -389,-416 -657,-590 -255,-188 -550,-362 -858,-537 -309,-174 -590,-375 -858,-589 -255,-228 -483,-483 -657,-778 -175,-295 -255,-657 -255,-1086 0,-241 54,-483 147,-697 94,-215 228,-403 389,-577 161,-161 362,-295 590,-389 228,-94 469,-147 724,-147 215,0 416,27 577,80 161,54 308,121 429,188 134,80 254,174 362,268 53,-107 134,-214 228,-308 93,-94 201,-161 308,-188l161 0c-13,107 -27,215 -27,322 -13,107 -13,214 -13,322 0,107 0,227 0,335 0,120 0,241 0,362 0,120 13,228 13,335 14,121 14,228 27,335l-161 0c-161,-603 -402,-1059 -697,-1381 -295,-322 -671,-469 -1100,-469 -362,0 -657,121 -898,375 -228,255 -348,590 -348,993z"/>
  <polygon class="fil2" points="37139,26185 37139,26078 39432,26078 39432,26185 38775,26346 40518,32058 42046,26453 41335,26185 41335,26078 42971,26078 42971,26185 42261,26453 40249,33854 40075,33854 37796,26346 "/>
  <path class="fil0" d="M18999 60709l0 202c-188,134 -403,201 -644,201 -121,0 -241,-27 -349,-67 -107,-41 -201,-108 -295,-188 -80,-81 -147,-174 -201,-295 -53,-121 -67,-241 -67,-375 0,-121 27,-242 67,-349 41,-107 108,-215 188,-295 80,-80 174,-161 295,-201 107,-54 241,-67 362,-67 121,0 228,13 322,40 107,27 214,81 308,161l0 201c-188,-174 -389,-268 -630,-268 -107,0 -201,27 -295,67 -94,40 -174,107 -228,174 -67,81 -121,161 -147,255 -41,94 -54,188 -54,295 0,147 27,282 94,402 67,121 161,215 268,282 107,67 228,107 362,107 107,0 228,-27 335,-67 107,-67 215,-134 309,-215z"/>
  <polygon class="fil0" points="19548,61058 19548,59436 19079,59436 19079,59302 20192,59302 20192,59436 19723,59436 19723,61058 "/>
  <polygon class="fil0" points="20634,61058 20876,60522 20232,59302 20420,59302 20956,60347 21425,59302 21600,59302 20795,61058 "/>
  <path class="fil0" d="M21975 59302l979 0 0 1622 214 0 0 496 -161 0 0 -349 -1220 1 0 348 -161 0 0 -496c121,0 202,-67 269,-188 53,-120 80,-295 80,-509l0 -925zm174 134l0 777c0,121 0,215 -13,295 -14,81 -27,161 -54,228 -27,67 -67,121 -134,174l845 1 0 -1475 -644 0z"/>
  <polygon class="fil0" points="23410,59302 23584,59302 23584,60696 24791,59235 24791,61058 24616,61058 24616,59664 23410,61125 "/>
  <path class="fil0" d="M25166 61058l483 -778c-81,0 -175,-13 -242,-53 -80,-40 -147,-94 -187,-161 -54,-67 -67,-161 -67,-255 0,-53 13,-121 26,-174 14,-54 54,-107 94,-161 41,-54 108,-94 188,-121 81,-27 174,-40 295,-40l416 0 0 1757 -175 0 0 -778 -161 0 -469 778 -201 0 0 -14zm804 -912l0 -697 -241 0c-107,0 -201,27 -295,67 -94,40 -134,134 -134,282 0,228 134,348 416,348l254 0z"/>
  <path class="fil0" d="M27606 59302l979 0 0 1622 214 0 0 496 -160 0 0 -349 -1221 1 0 348 -160 0 0 -496c120,0 201,-67 268,-188 53,-120 80,-295 80,-509l0 -925zm161 134l0 777c0,121 0,215 -13,295 -14,81 -27,161 -54,228 -27,67 -67,121 -134,174l845 1 0 -1475 -644 0z"/>
  <path class="fil0" d="M28960 60173c0,-121 27,-241 67,-362 41,-107 108,-214 188,-295 81,-80 188,-147 295,-201 121,-54 241,-67 389,-67 147,0 268,27 389,67 120,54 214,121 308,201 81,81 148,188 188,295 40,107 67,228 67,362 0,121 -27,241 -67,362 -40,107 -107,215 -188,295 -80,80 -188,148 -308,201 -121,54 -242,67 -389,67 -148,0 -268,-27 -389,-67 -121,-40 -214,-121 -308,-201 -81,-80 -148,-188 -188,-295 -40,-107 -54,-228 -54,-362zm175 0c0,107 13,201 53,295 40,94 94,174 161,255 67,80 148,134 242,174 93,40 201,67 308,67 121,0 214,-27 322,-67 94,-40 174,-94 241,-174 67,-81 121,-161 161,-255 40,-94 54,-201 54,-295 0,-107 -14,-201 -54,-295 -40,-94 -94,-174 -161,-255 -67,-67 -148,-134 -241,-174 -94,-40 -201,-67 -322,-67 -121,0 -215,27 -322,67 -94,40 -174,94 -241,174 -67,67 -121,161 -161,255 -27,94 -40,201 -40,295z"/>
  <path class="fil0" d="M32674 60709l0 202c-187,134 -402,201 -643,201 -121,0 -242,-27 -349,-67 -107,-41 -201,-108 -295,-188 -80,-81 -147,-174 -201,-295 -54,-121 -67,-241 -67,-375 0,-121 27,-242 67,-349 40,-107 107,-215 188,-295 80,-80 174,-147 295,-201 107,-54 241,-67 362,-67 120,0 227,13 321,40 108,27 215,81 309,161l0 201c-188,-174 -389,-268 -630,-268 -108,0 -202,27 -295,67 -94,40 -175,107 -228,174 -67,81 -121,161 -148,255 -40,94 -53,188 -53,295 0,147 26,282 94,402 67,121 160,215 268,282 107,67 228,107 362,107 107,0 228,-27 335,-67 107,-67 214,-134 308,-215z"/>
  <polygon class="fil0" points="33224,61058 33224,59436 32755,59436 32755,59302 33868,59302 33868,59436 33398,59436 33398,61058 "/>
  <polygon class="fil0" points="34310,61058 34551,60522 33908,59302 34095,59302 34632,60347 35101,59302 35275,59302 34471,61058 "/>
  <polygon class="fil0" points="35490,61058 35490,59302 36844,59302 36844,61058 36670,61058 36670,59436 35664,59436 35664,61058 "/>
  <polygon class="fil0" points="37273,61058 37273,59302 37447,59302 37447,60026 38453,60026 38453,59302 38627,59302 38627,61058 38466,61058 38466,60160 37461,60160 37461,61058 "/>
  <path class="fil0" d="M38976 60173c0,-121 27,-241 67,-362 40,-107 107,-214 188,-295 80,-80 187,-147 294,-201 121,-54 242,-67 389,-67 148,0 268,27 389,67 121,54 215,121 308,201 81,81 148,188 188,295 40,107 67,228 67,362 0,121 -27,241 -67,362 -40,107 -107,215 -188,295 -80,80 -187,148 -308,201 -121,54 -241,67 -389,67 -147,0 -268,-27 -389,-67 -120,-53 -214,-121 -308,-201 -80,-80 -147,-188 -188,-295 -26,-107 -53,-228 -53,-362zm188 0c0,107 13,201 53,295 40,94 94,174 161,255 67,80 148,134 241,174 94,40 201,67 309,67 120,0 214,-27 321,-67 94,-40 175,-94 242,-174 67,-81 120,-161 161,-255 40,-94 53,-201 53,-295 0,-107 -13,-201 -53,-295 -40,-94 -94,-174 -161,-255 -67,-67 -148,-134 -242,-174 -93,-40 -201,-67 -321,-67 -121,0 -215,27 -322,67 -94,40 -174,94 -241,174 -67,67 -121,161 -161,255 -41,94 -40,201 -40,295z"/>
  <path class="fil0" d="M41228 59302l175 0 0 1394 1206 -1461 0 1823 -174 0 0 -1394 -1207 1461 0 -1823zm322 -322l134 -54c14,54 40,81 81,108 40,26 93,40 134,40 120,0 187,-54 228,-148l134 54c-41,80 -94,147 -161,174 -67,27 -134,40 -201,40 -67,0 -134,-13 -202,-40 -53,-27 -107,-94 -147,-174z"/>
  <path class="fil0" d="M44044 59302l979 0 0 1622 214 0 0 496 -161 0 0 -349 -1220 0 0 349 -161 0 0 -496c121,0 201,-67 268,-188 54,-120 81,-295 81,-509l0 -925zm174 134l0 777c0,121 0,215 -13,295 -14,81 -27,161 -54,228 -27,67 -67,121 -134,174l845 1 0 -1475 -644 0z"/>
  <polygon class="fil0" points="45492,61058 45492,59302 46430,59302 46430,59436 45666,59436 45666,59999 46404,59999 46404,60133 45666,60133 45666,60911 46430,60911 46430,61045 45492,61045 "/>
  <polygon class="fil0" points="46779,61058 46779,59302 48133,59302 48133,61058 47959,61058 47959,59436 46953,59436 46953,61058 "/>
  <polygon class="fil0" points="48562,59302 48736,59302 48736,60696 49943,59235 49943,61058 49769,61058 49769,59664 48562,61125 "/>
  <path class="fil0" d="M50547 59302l978 0 0 1756 -174 0 0 -1622 -630 0 0 952c0,107 0,201 -14,281 -13,81 -26,148 -67,215 -27,53 -67,107 -134,134 -53,27 -134,54 -214,54 -27,0 -81,0 -134,-14l0 -134c53,13 80,13 94,13 80,0 147,-26 201,-80 40,-54 67,-107 80,-188 14,-80 14,-161 14,-268l0 -1099z"/>
  <path class="fil0" d="M51914 61058l483 -778c-81,0 -174,-13 -242,-53 -80,-40 -147,-94 -187,-161 -54,-67 -67,-161 -67,-255 0,-53 13,-121 27,-174 13,-54 53,-107 93,-161 41,-54 108,-94 188,-121 81,-27 174,-40 295,-40l416 0 0 1757 -175 0 0 -778 -160 0 -470 778 -201 0 0 -14zm805 -912l0 -697 -242 0c-107,0 -201,27 -295,67 -94,40 -134,134 -134,282 0,228 134,348 416,348l255 0z"/>
  <polygon class="fil0" points="53322,61058 53322,59302 53496,59302 53496,60924 54488,60924 54488,59302 54663,59302 54663,60924 54877,60924 54877,61420 54716,61420 54716,61071 53322,61072 "/>
  <polygon class="fil0" points="55105,59302 55279,59302 55279,60696 56486,59235 56486,61058 56312,61058 56312,59664 55105,61125 "/>
  <polygon class="fil0" points="56915,59302 57089,59302 57089,60696 58296,59235 58296,61058 58122,61058 58122,59664 56915,61125 "/>
  <rect class="fil3" width="76128" height="76128"/>
 </g>
</svg>
